<?xml version="1.0" standalone="no"?>
<!DOCTYPE svg PUBLIC "-//W3C//DTD SVG 20010904//EN"
 "http://www.w3.org/TR/2001/REC-SVG-20010904/DTD/svg10.dtd">
<svg version="1.0" xmlns="http://www.w3.org/2000/svg"
 width="708.000000pt" height="708.000000pt" viewBox="0 0 708.000000 708.000000"
 preserveAspectRatio="xMidYMid meet">
<metadata>
Created by potrace 1.11, written by Peter Selinger 2001-2013
</metadata>
<g transform="translate(0.000000,708.000000) scale(0.100000,-0.100000)"
fill="#000000" stroke="none">
<path d="M3260 6601 c-8 -5 -57 -11 -108 -14 -73 -5 -99 -10 -123 -28 -26 -18
-48 -23 -128 -26 -122 -4 -270 -38 -307 -70 -15 -12 -31 -23 -36 -23 -5 0 -18
-9 -30 -19 -11 -11 -43 -28 -71 -38 -28 -10 -52 -25 -55 -35 -2 -10 -12 -20
-22 -23 -9 -3 -25 -14 -35 -25 -10 -11 -31 -20 -46 -20 -16 0 -39 -11 -54 -24
-15 -14 -40 -28 -56 -31 -16 -4 -29 -10 -29 -14 0 -4 -17 -7 -39 -8 -21 -1
-55 -11 -75 -22 -20 -12 -45 -21 -56 -21 -11 0 -20 -4 -20 -10 0 -5 -10 -10
-23 -10 -13 0 -34 -11 -47 -25 -13 -14 -30 -25 -39 -25 -8 0 -28 -15 -45 -33
-17 -18 -48 -41 -68 -52 -21 -11 -38 -23 -38 -27 0 -5 -9 -8 -20 -8 -11 0 -20
-4 -20 -8 0 -4 -16 -14 -35 -21 -19 -6 -42 -22 -52 -34 -10 -13 -36 -35 -58
-51 -22 -16 -60 -56 -85 -90 -25 -33 -55 -66 -68 -72 -58 -29 -112 -109 -112
-166 0 -25 -14 -45 -78 -108 -42 -42 -87 -80 -98 -84 -15 -4 -23 -18 -27 -41
-3 -19 -17 -50 -31 -68 -14 -19 -26 -39 -26 -45 0 -7 -4 -12 -10 -12 -5 0 -10
-7 -10 -14 0 -8 -11 -36 -25 -62 -14 -26 -25 -64 -25 -85 0 -21 -9 -55 -20
-74 -24 -43 -53 -88 -60 -95 -5 -5 -20 -37 -37 -80 -26 -66 -69 -156 -76 -161
-17 -13 -37 -63 -37 -94 0 -33 -28 -95 -42 -95 -5 0 -8 -10 -8 -23 0 -13 -4
-27 -9 -32 -5 -6 -12 -32 -15 -60 -10 -95 -18 -130 -36 -150 -26 -29 -35 -133
-15 -171 24 -47 19 -80 -15 -101 -17 -9 -30 -25 -30 -35 0 -10 -4 -18 -10 -18
-13 0 -13 -57 0 -65 6 -3 10 -26 10 -50 0 -24 4 -46 9 -49 10 -7 2 -54 -10
-62 -15 -9 -10 -71 7 -85 8 -7 13 -20 11 -29 -2 -9 1 -24 8 -33 8 -11 10 -39
7 -79 -11 -140 3 -360 25 -402 9 -18 15 -50 14 -75 -2 -39 10 -80 39 -133 6
-10 10 -29 10 -42 0 -13 6 -37 14 -53 19 -38 36 -95 36 -121 0 -11 5 -24 10
-27 6 -3 10 -15 10 -26 0 -11 8 -29 19 -40 23 -25 56 -132 53 -175 -1 -24 4
-34 23 -44 16 -8 25 -22 25 -37 0 -13 5 -23 10 -23 6 0 10 -10 10 -22 1 -25
26 -101 52 -158 9 -19 19 -47 22 -61 3 -14 27 -48 53 -76 71 -75 83 -91 83
-112 0 -11 22 -38 50 -61 28 -23 50 -46 50 -50 0 -14 56 -93 82 -116 12 -11
32 -32 43 -47 11 -15 25 -27 31 -27 16 0 114 -118 114 -137 0 -12 84 -73 100
-73 6 0 9 -4 5 -9 -10 -17 28 -90 51 -95 11 -3 56 -41 100 -84 62 -62 89 -82
127 -93 26 -7 64 -28 85 -46 20 -18 44 -33 53 -33 8 0 30 -16 49 -35 19 -19
38 -35 43 -35 5 0 17 -8 26 -18 23 -26 81 -51 127 -54 21 -1 51 -10 65 -20 14
-11 43 -21 65 -24 21 -3 43 -9 48 -14 6 -6 20 -10 33 -10 13 0 33 -5 46 -12
46 -23 54 -26 125 -33 40 -4 75 -11 78 -16 3 -5 27 -9 53 -9 46 0 136 -24 155
-41 6 -5 27 -9 47 -9 21 0 41 -4 44 -10 3 -5 19 -10 34 -10 15 0 31 -4 37 -9
13 -13 77 -21 249 -31 201 -12 447 -11 462 2 8 6 31 8 58 4 25 -4 60 -3 78 3
17 6 58 13 89 16 36 4 70 15 93 31 30 20 48 24 108 24 56 0 82 5 118 23 25 13
70 27 99 30 30 4 58 11 64 17 5 5 23 10 38 10 15 0 28 4 28 10 0 5 13 7 28 4
19 -4 46 2 77 16 27 12 60 24 74 26 14 2 44 6 66 9 50 8 85 24 85 41 0 7 15
16 33 19 17 4 48 19 67 34 47 35 77 51 95 51 25 0 129 54 157 81 14 15 42 32
61 38 19 7 43 21 52 31 10 11 24 20 30 20 7 0 21 12 30 28 39 59 72 81 131 88
38 5 59 13 67 25 7 11 15 19 19 19 10 0 58 49 58 59 0 5 11 12 25 15 14 4 25
12 25 20 0 7 12 24 28 38 15 14 60 62 101 107 41 45 91 91 112 101 21 11 40
29 44 40 3 11 18 28 33 39 15 10 35 39 46 64 10 24 29 50 42 57 13 7 38 37 56
67 18 29 36 53 40 53 4 0 8 9 8 20 0 10 11 30 25 44 14 14 25 29 25 34 0 5 7
15 15 22 8 7 15 20 15 30 0 9 11 38 25 64 14 26 25 62 25 81 0 19 5 37 10 40
6 3 10 13 10 22 0 8 10 29 23 46 32 45 47 77 47 98 0 10 5 21 10 24 6 3 10 28
10 55 0 27 4 51 9 54 4 3 11 28 14 55 3 28 14 62 24 77 14 23 18 61 24 248 7
215 7 222 34 268 l26 47 -6 207 c-3 114 -10 215 -16 225 -6 13 -6 25 3 38 9
15 9 34 0 84 -7 35 -12 98 -12 140 0 46 -4 77 -11 79 -7 2 -13 42 -17 96 -2
51 -9 95 -13 98 -5 3 -9 31 -9 63 0 32 -2 60 -5 63 -3 3 -8 38 -10 78 -2 40
-8 77 -14 83 -6 6 -11 21 -11 32 0 12 -11 32 -25 45 -14 14 -25 35 -25 50 0
17 -12 38 -35 60 -19 19 -35 42 -35 52 0 11 -11 30 -25 44 -19 19 -28 42 -35
91 -5 36 -15 72 -22 82 -20 25 -38 59 -38 72 0 7 -11 27 -25 45 -14 18 -25 42
-25 53 0 12 -4 21 -10 21 -5 0 -10 8 -10 18 0 10 -11 29 -25 42 -14 13 -25 30
-25 37 0 8 -8 16 -17 20 -26 9 -117 108 -139 150 -10 20 -31 50 -46 66 -16 17
-28 36 -28 43 0 7 -6 17 -14 21 -7 4 -24 26 -38 48 -14 22 -36 51 -50 65 -13
14 -32 42 -41 62 -10 20 -36 50 -59 65 -22 15 -59 47 -81 71 -23 23 -52 48
-65 55 -14 7 -35 31 -47 55 -29 55 -221 252 -245 252 -4 0 -13 7 -20 15 -7 8
-33 25 -59 37 -25 13 -58 35 -73 50 -15 15 -52 39 -83 54 -31 14 -66 36 -79
47 -28 28 -62 47 -81 47 -8 0 -15 7 -15 15 0 11 -13 15 -54 15 -30 0 -58 5
-61 10 -3 6 -17 10 -29 10 -13 0 -29 7 -36 15 -8 10 -31 15 -66 15 -29 0 -56
5 -59 10 -4 6 -25 10 -48 10 -54 -2 -96 8 -129 31 -20 15 -44 19 -111 19 -47
0 -89 5 -92 10 -3 6 -28 10 -54 10 -26 0 -51 4 -57 10 -5 5 -68 10 -139 11
-93 1 -136 5 -153 15 -17 12 -54 14 -175 10 -184 -6 -247 -7 -267 -1 -8 2 -22
0 -30 -4z m141 -182 c13 -6 25 -7 32 -1 7 6 34 6 67 1 30 -4 85 -8 122 -8 37
-1 79 -6 93 -13 21 -9 31 -9 46 0 23 15 99 16 99 2 0 -14 43 -13 58 2 8 8 15
8 24 1 12 -9 50 -17 183 -38 22 -4 46 -11 53 -17 8 -7 12 -7 12 1 0 7 13 2 29
-10 25 -19 42 -21 162 -22 87 0 141 -5 154 -13 11 -6 45 -15 76 -18 30 -4 69
-16 85 -26 16 -11 38 -25 49 -32 11 -7 23 -18 27 -25 5 -6 30 -17 58 -24 27
-7 50 -16 50 -21 0 -4 10 -8 23 -8 14 0 30 -12 45 -35 12 -20 45 -49 72 -66
28 -17 50 -35 50 -40 0 -5 13 -21 30 -35 16 -15 32 -35 35 -45 4 -11 13 -19
21 -19 8 0 14 -4 14 -10 0 -5 7 -10 15 -10 8 0 15 -4 15 -9 0 -6 12 -16 28
-23 16 -8 28 -23 30 -37 4 -24 24 -51 38 -51 4 0 26 -17 49 -37 23 -21 49 -45
58 -53 26 -23 67 -77 67 -87 0 -5 11 -20 25 -33 14 -13 25 -28 25 -32 0 -13
20 -30 54 -48 16 -8 35 -25 44 -37 8 -13 20 -23 26 -23 17 0 53 -39 74 -81 30
-57 46 -80 76 -111 24 -24 28 -35 23 -65 -4 -25 0 -46 13 -72 35 -64 74 -114
104 -130 19 -11 33 -30 41 -56 7 -24 33 -61 64 -92 28 -29 51 -61 51 -70 0
-10 16 -31 35 -46 24 -19 38 -41 46 -72 6 -24 17 -50 25 -56 8 -6 14 -22 14
-35 0 -13 5 -24 10 -24 6 0 10 -13 10 -29 0 -40 29 -134 64 -210 8 -19 8 -25
-1 -28 -15 -5 -17 -35 -4 -48 6 -6 11 -32 13 -60 1 -27 5 -54 9 -60 3 -5 10
-43 13 -83 4 -39 13 -83 20 -97 8 -16 11 -43 8 -70 -3 -28 0 -50 8 -60 8 -10
13 -68 14 -182 2 -92 4 -172 6 -178 1 -5 2 -14 1 -20 0 -5 -3 -79 -5 -163 -2
-90 -8 -158 -15 -166 -6 -7 -12 -43 -13 -79 -1 -43 -6 -68 -14 -71 -9 -3 -13
-27 -13 -75 0 -56 -4 -77 -20 -100 -12 -16 -21 -36 -21 -44 0 -9 -4 -19 -10
-22 -5 -3 -10 -39 -10 -78 0 -73 -17 -137 -47 -183 -10 -17 -15 -43 -14 -78 1
-52 1 -54 -29 -59 -24 -5 -30 -12 -30 -32 0 -14 -14 -51 -30 -81 -17 -29 -28
-54 -25 -54 3 0 -6 -12 -20 -27 -14 -15 -25 -32 -25 -37 0 -5 -10 -18 -23 -30
-12 -11 -32 -39 -43 -61 -49 -94 -56 -104 -72 -109 -10 -3 -26 -21 -37 -38
-10 -18 -29 -43 -42 -56 -13 -13 -23 -28 -23 -35 0 -7 -12 -20 -27 -29 -51
-31 -100 -84 -112 -121 -7 -20 -18 -37 -26 -37 -16 0 -78 -69 -125 -138 -20
-29 -43 -52 -53 -52 -19 0 -100 -47 -105 -61 -2 -5 -10 -9 -19 -9 -8 0 -29
-16 -47 -35 -19 -19 -43 -35 -55 -35 -11 0 -21 -4 -21 -9 0 -5 -8 -12 -17 -15
-10 -4 -44 -31 -77 -61 -76 -71 -99 -85 -135 -85 -18 0 -35 -8 -43 -19 -18
-25 -97 -64 -119 -58 -23 6 -82 -14 -107 -36 -11 -10 -36 -21 -56 -24 -20 -3
-36 -9 -36 -13 0 -4 -8 -11 -17 -14 -32 -11 -64 -33 -98 -66 -32 -31 -36 -32
-94 -27 -35 4 -63 2 -66 -4 -4 -5 -10 -7 -15 -4 -5 3 -11 1 -15 -5 -3 -5 -17
-10 -30 -10 -13 0 -27 -4 -30 -10 -3 -5 -23 -10 -44 -10 -22 0 -44 -6 -51 -15
-8 -10 -31 -15 -67 -15 -30 0 -63 -5 -73 -10 -13 -7 -21 -7 -25 0 -4 6 -56 10
-123 10 -116 0 -117 0 -152 -31 -32 -27 -39 -30 -80 -23 -25 4 -63 8 -85 10
-22 1 -42 3 -45 4 -3 1 -15 1 -27 1 -11 -1 -24 2 -27 7 -3 5 -47 10 -97 11
-51 1 -96 4 -100 7 -5 3 -17 0 -27 -5 -13 -7 -33 -6 -67 4 -26 8 -72 15 -102
15 -29 0 -62 6 -73 12 -15 10 -24 10 -39 1 -23 -14 -80 3 -114 35 -17 16 -36
22 -70 22 -25 0 -49 4 -52 10 -3 5 -21 10 -39 10 -18 0 -45 9 -59 20 -30 24
-70 26 -87 5 -16 -20 -32 -19 -56 3 -21 20 -81 52 -97 52 -6 0 -25 11 -43 25
-18 14 -46 25 -62 25 -16 0 -35 7 -43 16 -21 26 -66 44 -108 44 -52 0 -71 8
-71 31 0 11 -8 22 -17 25 -10 3 -26 10 -35 15 -10 5 -22 9 -28 9 -6 0 -24 16
-41 35 -22 25 -39 35 -60 35 -23 0 -34 8 -54 40 -14 22 -25 42 -25 45 0 19
-72 74 -112 85 -48 13 -98 49 -98 71 0 15 -47 78 -76 101 -12 10 -29 37 -39
60 -17 44 -110 148 -132 148 -7 0 -13 7 -13 16 0 8 -22 38 -50 65 -27 27 -50
53 -50 58 0 4 -9 16 -20 26 -11 10 -20 22 -20 27 0 5 -11 24 -25 42 -14 18
-25 40 -25 49 0 10 -4 17 -10 17 -5 0 -10 13 -10 29 0 16 -7 34 -15 41 -8 7
-20 30 -25 51 -6 21 -26 55 -45 75 -19 20 -35 43 -35 50 0 8 -4 14 -10 14 -5
0 -10 8 -10 18 0 9 -7 30 -15 46 -8 15 -15 37 -15 47 0 11 -4 27 -9 37 -5 9
-17 34 -27 55 -10 20 -22 37 -26 37 -5 0 -8 11 -8 25 0 14 -4 25 -10 25 -5 0
-10 11 -10 25 0 14 5 25 10 25 18 0 11 46 -10 65 -11 10 -20 24 -20 31 0 7 -6
19 -13 26 -7 7 -18 27 -25 43 -11 26 -16 61 -38 230 -5 36 -13 64 -34 105 -11
23 -13 316 -2 337 21 40 45 162 44 223 -1 36 -2 100 -3 143 -1 46 3 83 10 90
6 6 11 26 11 43 0 18 4 35 9 38 12 8 21 48 31 146 17 161 25 205 43 230 9 13
17 41 17 62 0 21 5 38 10 38 6 0 10 16 10 35 0 19 5 35 10 35 6 0 10 11 10 23
0 13 8 39 17 58 16 30 26 67 50 182 3 15 9 27 14 27 5 0 9 9 9 19 0 11 5 23
10 26 6 3 10 15 10 26 0 10 6 19 13 19 7 0 19 16 26 35 7 19 16 35 21 35 5 0
12 15 15 33 8 37 42 85 101 142 23 22 54 65 68 95 15 30 31 57 34 60 13 9 32
50 32 66 0 10 11 32 25 50 14 18 25 35 25 39 0 3 30 33 66 68 36 34 94 89 128
122 95 91 149 135 167 135 18 0 47 26 85 75 14 19 43 43 63 52 20 10 54 36 76
59 22 23 56 46 76 52 19 5 68 28 108 51 40 22 79 41 87 41 8 0 14 3 14 8 0 9
71 37 133 51 53 13 111 46 142 81 53 60 140 91 268 96 98 4 219 21 227 33 12
17 69 31 122 29 38 -1 64 4 82 15 15 10 45 17 76 17 27 0 50 5 50 10 0 13 16
13 41 -1z"/>
<path d="M3493 6320 c-17 -10 -33 -24 -35 -32 -4 -10 -8 -10 -19 -1 -13 11
-34 12 -143 12 -17 0 -44 -11 -62 -24 -26 -20 -45 -25 -88 -25 -30 0 -58 -4
-61 -10 -3 -5 -20 -10 -36 -10 -18 0 -40 -10 -57 -25 -19 -18 -33 -24 -47 -19
-11 4 -57 9 -101 11 -79 4 -82 4 -114 -26 -26 -24 -37 -28 -52 -20 -14 7 -27
4 -55 -16 -21 -14 -47 -25 -59 -25 -21 0 -52 -14 -109 -50 -17 -10 -50 -19
-74 -19 -33 -1 -49 -7 -67 -26 -13 -14 -31 -25 -41 -25 -10 0 -34 -15 -53 -33
-48 -45 -107 -77 -155 -86 -30 -5 -45 -14 -60 -38 -15 -24 -28 -32 -48 -33
-15 0 -45 -11 -65 -25 -20 -14 -41 -25 -47 -25 -6 0 -26 -12 -45 -28 -19 -15
-48 -34 -64 -42 -37 -19 -116 -97 -116 -115 0 -7 -15 -24 -32 -36 -18 -13 -38
-28 -44 -34 -6 -5 -23 -19 -37 -30 -15 -11 -27 -27 -27 -35 0 -9 -4 -20 -9
-25 -5 -6 -26 -41 -46 -80 -87 -162 -98 -181 -115 -200 -18 -22 -50 -115 -50
-149 0 -12 -9 -28 -20 -36 -11 -8 -20 -21 -20 -28 0 -8 -27 -43 -60 -79 -33
-35 -60 -73 -60 -84 0 -10 -11 -37 -25 -59 -14 -22 -25 -53 -25 -69 0 -16 -4
-33 -10 -36 -5 -3 -10 -18 -10 -33 0 -17 -14 -40 -40 -67 -29 -29 -43 -55 -52
-93 -7 -29 -16 -52 -20 -52 -5 0 -8 -28 -8 -63 0 -35 -4 -67 -9 -72 -12 -13
-17 -77 -8 -92 5 -7 3 -30 -3 -51 -5 -22 -7 -59 -4 -84 6 -40 4 -46 -19 -61
-23 -15 -25 -23 -24 -72 1 -31 -4 -60 -11 -67 -7 -7 -12 -29 -12 -51 0 -21 -4
-46 -10 -56 -6 -13 -4 -28 10 -54 12 -22 16 -39 10 -42 -11 -7 -14 -58 -4 -68
7 -6 6 -35 -3 -226 -3 -66 -1 -107 6 -114 14 -14 14 -57 1 -57 -19 0 -10 -55
14 -85 23 -28 24 -36 19 -110 -5 -67 -3 -83 11 -94 9 -7 16 -24 16 -37 0 -12
4 -25 9 -28 5 -3 11 -20 14 -38 7 -45 31 -106 51 -129 9 -11 16 -23 16 -27 0
-4 16 -18 35 -32 32 -23 47 -60 25 -60 -5 0 -10 -9 -10 -20 0 -11 4 -20 9 -20
10 0 51 -96 51 -120 0 -10 7 -23 15 -30 8 -7 15 -27 15 -44 0 -22 8 -40 26
-57 15 -13 35 -43 46 -66 10 -23 23 -45 28 -48 14 -8 60 -112 60 -133 0 -10 7
-27 15 -38 8 -10 15 -29 15 -41 0 -23 52 -73 76 -73 8 0 14 -4 14 -9 0 -5 18
-28 40 -51 32 -34 40 -50 40 -81 0 -30 6 -42 29 -58 16 -12 34 -21 40 -21 6 0
15 -8 20 -17 5 -10 25 -34 45 -53 19 -19 36 -43 36 -52 0 -9 5 -20 10 -23 6
-3 10 -15 10 -26 0 -26 29 -69 45 -69 8 0 22 -10 32 -23 39 -49 110 -97 142
-97 17 0 41 -5 54 -12 12 -6 28 -14 36 -18 8 -3 22 -21 32 -39 23 -43 49 -71
66 -71 7 0 13 -4 13 -10 0 -5 6 -10 13 -10 7 0 20 -9 29 -19 9 -10 34 -22 57
-26 23 -4 41 -11 41 -15 0 -5 22 -16 50 -25 27 -9 52 -21 55 -26 4 -5 15 -9
26 -9 18 0 31 -5 82 -32 12 -7 62 -13 111 -14 80 -1 92 -3 104 -23 8 -11 23
-21 33 -21 10 0 21 -5 24 -10 3 -6 21 -10 40 -10 46 0 144 -26 164 -44 18 -16
99 -25 276 -31 66 -2 145 -4 175 -5 30 -2 63 -7 74 -12 13 -7 26 -6 42 2 16 9
27 10 36 2 7 -5 29 -11 48 -13 19 -2 39 -5 45 -8 20 -10 74 -11 80 -1 3 5 16
10 29 10 12 0 26 4 32 10 5 5 55 11 111 13 56 3 107 8 113 12 6 4 24 2 40 -5
26 -11 33 -9 75 21 36 26 57 34 102 36 31 2 70 10 86 18 17 8 47 15 69 15 21
0 47 5 58 10 11 6 29 14 40 20 10 5 26 7 34 4 8 -3 17 -1 21 5 3 6 12 11 19
11 27 0 131 71 147 100 9 16 22 37 29 45 7 9 10 25 6 41 -7 27 -7 27 36 20 24
-4 51 -7 61 -6 48 3 75 1 100 -5 38 -10 69 7 142 78 33 32 80 78 105 103 25
24 52 44 59 44 18 0 121 108 121 126 0 8 6 14 14 14 8 0 35 16 60 35 26 19 50
35 54 35 4 0 38 31 76 69 41 41 80 71 97 75 15 3 33 16 40 28 6 13 29 40 50
60 22 20 39 43 39 51 0 7 9 22 21 33 12 10 27 31 35 46 7 14 19 32 26 40 7 7
26 31 43 53 16 22 49 60 73 84 24 24 51 61 60 82 9 22 20 39 24 39 5 0 8 35 8
77 0 71 2 79 26 98 21 17 26 29 26 64 -1 33 3 44 17 48 17 4 41 54 41 85 0 8
9 23 20 33 17 15 20 31 20 92 0 42 4 73 10 73 6 0 10 19 10 43 0 24 4 47 9 52
6 6 13 98 16 205 3 107 10 199 15 204 6 6 10 61 10 123 0 69 4 113 10 113 6 0
10 13 10 29 0 17 -4 33 -10 36 -14 9 -13 48 2 63 7 7 16 47 19 90 6 67 4 86
-18 147 -13 38 -29 75 -35 83 -8 9 -8 16 0 24 15 15 16 55 2 63 -5 3 -10 28
-10 55 0 27 -4 51 -8 54 -5 3 -14 29 -21 58 -7 29 -24 71 -37 93 -47 80 -61
110 -56 123 2 8 -6 27 -18 44 -12 16 -24 46 -26 66 -7 53 -26 114 -40 132 -6
8 -15 26 -19 40 -4 14 -34 51 -66 82 -50 49 -59 63 -59 93 0 35 -42 107 -96
166 -13 14 -24 32 -24 40 0 9 -11 26 -25 39 -15 14 -25 35 -25 50 0 26 -42 80
-61 80 -5 0 -9 6 -9 14 0 8 -11 23 -25 34 -14 11 -40 44 -58 74 -47 78 -58 91
-104 123 -22 17 -49 44 -59 62 -9 18 -21 33 -26 33 -4 0 -8 6 -8 13 0 16 -89
107 -105 107 -6 0 -19 16 -28 35 -11 23 -24 35 -37 35 -12 0 -24 9 -29 23 -13
30 -55 73 -90 92 -16 8 -38 30 -50 50 -11 19 -29 38 -38 41 -47 16 -79 35 -91
53 -7 12 -23 21 -37 21 -14 0 -25 3 -25 8 0 11 -59 42 -80 42 -9 0 -23 7 -30
15 -24 29 -136 75 -183 75 -25 0 -48 4 -51 9 -3 5 -31 12 -62 16 -32 4 -64 10
-73 15 -32 15 -116 42 -128 41 -66 -8 -214 16 -238 39 -25 23 -62 25 -89 5
-17 -13 -22 -13 -42 0 -27 17 -70 20 -79 5 -8 -13 -212 -13 -220 0 -15 25 -42
29 -72 10z m121 -209 c3 -5 50 -9 103 -9 64 0 98 -3 101 -11 2 -7 43 -11 120
-11 65 0 135 -6 157 -12 22 -6 83 -12 135 -13 52 0 104 -6 115 -12 11 -5 47
-11 79 -11 33 -1 64 -6 70 -12 5 -5 20 -10 32 -10 12 0 27 -7 34 -15 7 -8 19
-15 26 -15 8 0 14 -4 14 -10 0 -5 17 -12 38 -15 73 -13 102 -26 108 -50 3 -13
18 -29 35 -35 16 -7 29 -16 29 -21 0 -5 9 -9 20 -9 12 0 22 -9 25 -23 4 -16
29 -33 87 -62 100 -48 164 -111 225 -220 20 -34 113 -125 129 -125 7 0 14 -9
14 -19 0 -10 16 -33 35 -50 19 -17 35 -39 35 -50 0 -11 16 -36 35 -55 19 -20
35 -42 35 -50 0 -17 56 -76 72 -76 23 0 77 -52 89 -85 7 -19 17 -35 21 -35 4
0 8 -16 8 -35 0 -19 4 -35 9 -35 4 0 16 -20 25 -45 10 -25 21 -45 26 -45 10 0
60 -98 60 -119 0 -9 25 -40 55 -69 48 -48 54 -59 61 -108 3 -30 10 -57 15 -60
5 -3 9 -14 9 -25 0 -10 16 -42 35 -69 24 -34 35 -61 35 -85 0 -28 5 -38 25
-47 14 -6 25 -17 25 -25 0 -8 7 -24 15 -36 16 -25 35 -266 35 -449 0 -54 4
-100 10 -103 6 -3 10 -14 10 -24 0 -10 11 -28 24 -40 l24 -23 -19 -33 c-16
-26 -17 -38 -9 -59 7 -19 7 -33 0 -47 -7 -13 -7 -44 -1 -98 11 -82 5 -181 -10
-181 -5 0 -9 -31 -9 -68 0 -49 -6 -81 -21 -111 -16 -35 -18 -48 -10 -72 12
-36 5 -81 -18 -106 -29 -31 -45 -81 -32 -97 8 -9 8 -16 2 -20 -5 -4 -17 -30
-26 -59 -9 -28 -20 -60 -26 -69 -5 -10 -9 -27 -9 -38 0 -12 -9 -38 -20 -60
-11 -22 -20 -46 -20 -54 0 -22 -61 -146 -71 -146 -14 0 -11 -22 5 -39 18 -20
10 -70 -13 -79 -9 -3 -45 -35 -81 -71 -65 -66 -86 -83 -126 -100 -15 -7 -23
-25 -32 -72 -10 -56 -16 -67 -64 -110 -29 -27 -57 -49 -62 -49 -4 0 -48 -26
-97 -57 -55 -37 -92 -68 -100 -85 -6 -15 -29 -44 -50 -63 -32 -29 -47 -35 -82
-35 -34 0 -48 -6 -65 -25 -12 -14 -28 -25 -35 -25 -8 0 -19 -11 -26 -24 -10
-18 -10 -28 -1 -46 12 -22 11 -22 -25 -16 -32 6 -41 4 -66 -20 -21 -20 -35
-25 -56 -21 -32 6 -112 -28 -121 -52 -8 -21 -22 -31 -49 -31 -12 0 -39 -9 -60
-21 -24 -13 -39 -17 -41 -10 -5 16 -62 14 -62 -2 0 -7 5 -18 11 -24 15 -15 3
-33 -22 -33 -10 0 -19 -4 -19 -10 0 -5 -8 -10 -18 -10 -10 0 -27 -7 -39 -15
-12 -8 -28 -12 -37 -9 -16 6 -72 -42 -92 -79 -6 -10 -24 -20 -40 -22 -16 -2
-50 -10 -76 -18 -34 -11 -65 -12 -115 -7 -50 6 -76 4 -97 -6 -16 -8 -37 -14
-47 -14 -10 0 -21 -5 -24 -11 -4 -6 -29 -8 -65 -5 -38 3 -64 0 -76 -8 -11 -7
-44 -16 -74 -20 -69 -8 -152 -27 -164 -37 -5 -5 -18 -3 -29 2 -13 8 -22 8 -30
0 -22 -22 -296 -6 -321 19 -6 6 -38 10 -72 10 -35 0 -65 4 -68 9 -7 10 -151
24 -228 22 -50 -2 -61 1 -83 23 -14 14 -36 26 -49 26 -13 0 -53 14 -89 30 -37
17 -75 30 -86 30 -11 0 -28 11 -39 25 -11 14 -25 25 -31 25 -6 0 -19 4 -29 9
-9 6 -29 12 -44 16 -24 5 -28 10 -28 40 0 33 -2 35 -35 35 -19 0 -35 5 -35 10
0 6 -22 10 -50 10 -47 0 -50 2 -92 54 -38 48 -94 86 -126 86 -21 0 -82 34 -82
45 0 7 -9 20 -20 30 -11 10 -25 36 -32 57 -6 21 -14 38 -18 38 -4 0 -15 16
-24 35 -9 19 -23 35 -30 35 -25 0 -96 90 -96 121 0 35 -75 112 -124 129 -21 6
-36 21 -45 42 -33 77 -46 105 -70 143 -34 53 -81 146 -81 161 0 6 -7 25 -15
40 -8 16 -15 36 -15 44 0 8 -7 24 -15 34 -8 11 -15 26 -15 33 0 8 -9 33 -20
55 -11 23 -20 47 -20 54 0 7 -15 42 -34 78 -19 36 -32 66 -29 66 3 0 -1 10 -9
22 -8 13 -18 56 -21 96 -8 104 -43 203 -78 225 -10 6 -19 22 -19 34 0 12 -4
25 -10 28 -16 10 -12 113 6 147 21 40 13 89 -21 133 -14 19 -25 47 -25 64 0
17 -9 46 -20 66 -14 25 -20 54 -20 98 0 41 -5 70 -16 85 -15 22 -15 25 4 45
11 12 19 33 18 47 -1 14 5 36 15 50 9 14 19 56 22 95 4 38 11 71 17 73 5 2 10
13 10 25 0 22 17 81 31 109 5 10 9 65 9 122 0 59 4 108 10 111 6 3 10 13 10
21 0 28 42 109 71 134 37 34 49 69 49 142 0 33 6 72 14 86 29 56 44 96 39 107
-2 7 7 22 21 33 14 11 26 25 26 32 0 14 55 70 69 70 6 0 20 20 32 45 12 25 25
45 30 45 5 0 9 6 9 13 0 8 10 22 21 33 26 23 79 137 79 170 0 13 5 24 10 24 6
0 10 9 10 19 0 11 10 28 23 38 12 10 27 26 32 34 36 57 72 98 84 99 8 0 37 21
66 48 71 65 116 102 124 102 4 0 22 13 41 30 19 16 39 29 44 30 5 0 19 11 32
25 15 17 34 25 55 25 22 0 43 10 70 35 23 21 49 35 65 35 32 0 59 14 107 56
20 19 41 34 45 34 5 0 22 11 38 25 16 14 35 25 43 25 28 0 151 34 151 42 0 4
22 8 49 8 27 0 56 6 63 13 19 17 56 37 69 37 6 0 25 10 42 23 48 34 70 43 128
57 30 7 66 17 81 22 17 6 33 6 46 -1 30 -16 84 -15 117 3 36 19 49 20 74 4 16
-10 28 -8 63 9 67 33 268 57 282 34z"/>
<path d="M4441 5747 c-4 -4 -32 -16 -62 -26 -43 -15 -59 -27 -76 -58 -42 -71
-51 -98 -56 -165 -3 -46 -11 -76 -26 -97 -12 -16 -33 -56 -47 -87 -24 -56 -25
-63 -21 -218 3 -89 10 -190 16 -226 14 -86 72 -197 136 -263 56 -56 53 -54
170 -144 84 -64 301 -183 334 -183 11 0 23 -5 26 -10 4 -6 25 -22 48 -37 66
-42 106 -77 147 -131 53 -69 141 -107 184 -79 12 9 36 17 52 19 l29 3 -1 71
c-1 58 -6 78 -27 110 -21 32 -25 45 -19 74 14 66 8 194 -11 223 -9 14 -25 41
-35 59 -11 18 -40 67 -66 109 -26 41 -49 93 -52 115 -3 21 -9 48 -14 59 -5 11
-11 34 -14 50 -8 55 -27 120 -37 130 -5 5 -9 15 -9 22 0 14 -85 152 -104 168
-6 6 -22 25 -35 44 -22 31 -24 44 -25 160 -1 124 -2 128 -36 196 -26 52 -41
71 -57 73 -13 2 -23 7 -23 11 0 23 -267 50 -289 28z m119 -102 c23 -8 59 -15
79 -16 l36 -1 -43 -10 c-50 -11 -77 -44 -69 -86 5 -25 3 -27 -27 -28 -31 0
-32 0 -14 18 10 10 18 29 18 42 0 26 -44 76 -67 76 -8 0 -11 5 -8 10 9 14 46
12 95 -5z m195 -354 c7 -21 6 -23 -11 -16 -10 4 -51 8 -89 10 -39 1 -81 7 -93
14 -17 9 -33 8 -77 -4 -30 -9 -55 -20 -55 -23 0 -4 -10 -12 -22 -17 -13 -6
-24 -17 -24 -25 -1 -8 -2 -21 -3 -27 -1 -8 -15 -13 -36 -13 -19 0 -35 -1 -35
-3 0 -1 -4 -16 -9 -34 -8 -26 -6 -36 11 -55 24 -28 12 -33 -35 -13 l-36 15 5
52 c6 63 33 158 45 158 5 0 9 5 9 12 0 6 7 19 15 28 8 9 19 49 25 90 12 86 22
101 48 77 10 -9 39 -20 65 -23 41 -6 45 -9 37 -25 -24 -44 5 -119 45 -119 30
0 55 38 55 84 l0 44 40 -5 c55 -8 99 12 102 46 1 14 5 -26 8 -89 4 -63 10
-126 15 -139z m44 -93 c11 -18 28 -42 38 -54 10 -11 23 -29 29 -40 54 -96 64
-117 64 -129 0 -9 4 -23 10 -33 5 -9 14 -39 20 -67 37 -172 49 -204 102 -274
22 -30 23 -51 1 -51 -30 0 -83 -49 -83 -77 0 -28 24 -52 53 -53 37 0 14 -18
-32 -24 -51 -7 -66 -17 -72 -50 -4 -17 -6 -17 -35 8 -18 14 -41 26 -51 26 -11
0 -46 16 -79 36 -32 20 -84 48 -114 63 -111 55 -283 201 -331 280 -25 41 -24
41 11 41 17 0 30 -4 30 -9 0 -5 10 -13 23 -16 12 -4 39 -20 59 -36 20 -16 47
-29 58 -29 16 0 20 -4 16 -16 -8 -22 19 -64 42 -64 9 0 28 -9 42 -20 51 -40
150 -18 150 33 0 26 -28 57 -52 57 -13 0 -18 8 -18 28 -1 28 -20 62 -36 62 -5
0 -14 11 -20 24 -10 21 -9 25 10 30 16 4 31 -5 61 -39 41 -46 68 -55 105 -35
23 12 34 55 20 80 -10 18 -8 20 18 20 15 0 33 5 40 12 15 15 16 64 2 73 -5 3
-10 19 -10 35 0 16 -4 32 -10 35 -5 3 -10 15 -10 26 0 25 -28 69 -45 69 -25 0
-42 34 -38 73 3 20 7 37 8 37 2 0 12 -15 24 -32z m-252 -314 c-3 -3 -12 -4
-19 -1 -8 3 -5 6 6 6 11 1 17 -2 13 -5z"/>
<path d="M1578 4238 c-27 -7 -41 -18 -50 -39 -7 -16 -18 -29 -25 -29 -7 0 -17
-8 -22 -18 -11 -21 -2 -310 10 -318 5 -3 9 -16 9 -29 0 -13 5 -27 10 -30 7 -4
7 -12 0 -25 -5 -10 -10 -30 -10 -44 0 -14 -4 -28 -10 -31 -5 -3 -10 -24 -10
-45 0 -21 -4 -41 -9 -44 -4 -3 -11 -24 -14 -47 -5 -40 -21 -58 -72 -84 -15 -8
-21 -22 -23 -58 -2 -28 1 -47 7 -47 6 0 11 -8 11 -18 0 -58 50 -95 122 -90 33
2 45 8 53 26 10 22 51 31 71 14 11 -10 82 -31 104 -31 8 0 35 -5 60 -11 74
-18 160 -24 173 -11 6 6 21 11 33 11 13 0 26 5 29 10 3 6 14 10 23 10 9 0 30
7 46 15 15 8 43 15 61 15 71 0 86 66 28 124 l-38 37 -75 -7 c-41 -3 -81 -11
-87 -16 -16 -13 -218 -23 -267 -14 -20 4 -47 17 -61 30 -25 23 -34 56 -15 56
6 0 10 14 10 31 0 17 5 39 10 50 15 27 21 210 8 226 -6 8 -8 30 -4 52 3 23 2
42 -4 46 -5 3 -10 35 -10 69 0 61 2 65 35 90 32 25 35 32 35 77 0 81 -56 119
-142 97z"/>
<path d="M2376 4177 c-38 -23 -57 -45 -58 -63 -1 -31 19 -71 52 -102 29 -28
30 -32 30 -115 0 -47 5 -89 10 -92 12 -8 13 -142 1 -149 -4 -3 -11 -36 -14
-73 -3 -37 -8 -75 -11 -83 -7 -17 -51 -40 -77 -40 -25 0 -68 -55 -62 -79 3
-10 18 -32 34 -47 33 -32 44 -33 234 -39 117 -3 121 -2 148 23 15 14 27 32 27
39 0 20 -22 55 -50 80 -28 26 -36 28 -46 12 -10 -17 -44 42 -44 79 0 18 5 40
11 50 8 13 9 50 1 133 -5 63 -6 119 -1 124 4 6 9 44 11 85 l3 75 30 -3 c44 -5
93 -4 151 4 66 7 94 -6 94 -46 0 -15 4 -30 10 -32 5 -2 9 -91 9 -218 1 -219 0
-241 -14 -273 -11 -27 10 -59 60 -89 42 -26 46 -26 75 -12 53 27 64 62 56 188
-4 60 -11 117 -16 125 -12 24 -5 280 9 294 6 6 11 19 11 29 0 16 12 18 135 18
l135 0 0 -28 c0 -15 4 -32 10 -38 5 -5 12 -42 16 -82 4 -39 11 -72 15 -72 15
0 10 -162 -6 -205 -8 -22 -14 -70 -15 -107 0 -60 3 -70 27 -92 38 -35 71 -41
102 -18 26 19 26 22 33 188 12 274 12 306 4 362 -6 37 -6 52 3 52 6 0 11 7 11
15 0 20 102 21 119 1 8 -10 11 -79 8 -242 -4 -218 -15 -331 -36 -343 -12 -8
-16 -50 -7 -82 4 -14 20 -37 35 -52 l29 -26 138 9 c173 12 153 12 254 -2 47
-7 91 -18 98 -24 8 -9 12 -47 12 -121 0 -116 1 -117 58 -150 31 -18 46 -16 69
10 20 20 22 39 29 217 8 232 9 236 92 242 31 3 64 8 73 12 24 10 39 -34 39
-114 0 -38 5 -72 10 -75 6 -3 10 -26 10 -49 0 -40 18 -114 41 -174 5 -13 9
-32 9 -42 0 -40 85 -139 121 -140 8 0 19 -4 25 -9 5 -4 29 -11 54 -14 61 -8
90 15 90 71 0 49 -44 102 -83 102 -19 0 -30 9 -41 32 -9 17 -16 39 -16 49 0 9
-6 19 -12 22 -9 2 -13 27 -13 73 0 38 -4 77 -9 87 -4 9 -5 44 -2 77 5 41 2 70
-7 93 -14 32 -14 34 12 44 14 6 38 14 52 17 32 7 70 42 86 79 16 34 28 156 20
188 -4 13 -26 45 -50 72 -40 43 -48 47 -90 47 -25 0 -49 5 -52 10 -11 17 -73
12 -84 -7 -9 -16 -11 -16 -31 2 -20 18 -36 20 -204 19 -135 -1 -175 2 -156 9
36 15 34 12 41 85 3 37 9 75 13 84 14 31 -50 84 -109 92 -49 5 -467 10 -535 5
-19 -1 -110 -1 -202 0 -144 3 -169 1 -183 -13 -22 -22 -42 -20 -48 4 -4 16
-14 20 -47 20 -23 0 -49 -4 -58 -8 -22 -11 -490 4 -505 16 -7 6 -32 12 -57 16
-25 3 -63 8 -85 11 -24 3 -48 0 -59 -8z m1704 -231 c0 -31 39 -76 67 -76 7 0
13 -3 13 -7 0 -12 -33 -43 -47 -43 -8 0 -13 -12 -13 -32 0 -26 9 -42 41 -72
l42 -39 -5 -93 c-5 -87 -7 -95 -32 -115 -21 -16 -26 -28 -24 -56 1 -21 -3 -38
-12 -43 -20 -13 -252 -13 -284 0 -25 9 -26 12 -26 100 0 114 7 130 63 130 31
0 46 -6 62 -23 14 -17 35 -26 73 -30 47 -5 54 -4 67 16 21 33 16 95 -9 112
-11 8 -17 18 -13 22 4 4 -7 22 -25 40 -31 33 -73 43 -94 24 -5 -4 -26 -6 -48
-3 -32 4 -40 10 -52 38 -17 41 -18 137 -1 165 11 18 21 20 135 18 l122 -2 0
-31z m534 -247 c115 -17 142 -61 52 -88 -25 -7 -46 -17 -46 -22 0 -5 -9 -9
-20 -9 -11 0 -20 -5 -20 -11 0 -9 -38 -11 -175 -9 -27 1 -51 3 -53 5 -3 2 -7
24 -9 49 -4 32 -1 53 11 71 15 23 22 25 101 25 46 0 118 -5 159 -11z"/>
<path d="M5035 3587 c-53 -24 -64 -63 -81 -267 -21 -255 -25 -294 -34 -305
-17 -22 -21 -83 -6 -98 8 -8 13 -17 10 -19 -13 -14 50 -39 89 -36 40 3 42 5
45 38 1 19 7 44 12 55 5 11 11 38 14 60 9 70 31 173 38 181 4 3 23 -7 42 -24
l35 -30 115 5 c114 6 116 6 116 -16 0 -11 5 -21 10 -21 13 0 13 -108 -1 -205
-7 -56 -7 -85 2 -113 17 -54 23 -64 51 -85 33 -24 82 -15 105 19 23 36 31 214
10 235 -12 13 -13 30 -6 105 5 49 6 150 2 224 -5 118 -4 137 11 149 9 8 16 28
16 50 0 29 -7 44 -35 71 l-36 35 -247 3 c-193 2 -254 -1 -277 -11z m292 -137
c101 0 103 -2 103 -70 0 -35 -5 -62 -13 -68 -7 -6 -70 -12 -140 -14 l-127 -3
0 66 c0 69 5 79 54 105 16 8 25 8 37 -3 10 -8 42 -13 86 -13z"/>
<path d="M2890 2780 c-25 -4 -63 -13 -85 -19 -22 -6 -62 -11 -89 -11 -58 0
-156 -48 -187 -91 -77 -109 -120 -266 -118 -439 0 -85 -4 -127 -15 -155 -22
-52 -20 -82 8 -106 21 -18 25 -34 31 -105 4 -46 11 -84 15 -84 5 0 3 -15 -2
-34 -9 -28 -7 -42 9 -78 42 -90 52 -114 58 -143 4 -16 13 -39 19 -50 7 -11 21
-49 31 -85 20 -72 75 -150 105 -150 10 0 21 -4 24 -9 10 -15 67 -19 73 -4 3 7
11 13 18 13 6 0 24 11 39 25 15 14 29 25 31 25 11 0 83 79 89 98 4 12 25 43
47 68 21 25 41 55 43 67 15 82 26 128 41 167 19 51 85 174 125 235 64 96 200
360 200 389 0 13 -9 35 -20 48 -10 14 -17 28 -13 31 3 4 -6 22 -21 42 -16 20
-33 61 -40 98 -17 80 -37 117 -75 142 -17 11 -31 26 -31 33 0 6 -4 12 -9 12
-6 0 -21 10 -35 23 -16 15 -52 28 -108 40 -89 18 -91 18 -158 7z m127 -46 c-3
-3 -12 -4 -19 -1 -8 3 -5 6 6 6 11 1 17 -2 13 -5z m-297 -48 c0 -3 -4 -8 -10
-11 -5 -3 -10 -1 -10 4 0 6 5 11 10 11 6 0 10 -2 10 -4z m535 -118 c6 -4 2 -8
-7 -8 -10 0 -18 7 -18 17 0 9 3 12 8 7 4 -5 12 -12 17 -16z m-178 -28 c-3 -13
0 -20 9 -20 8 0 14 7 14 15 0 8 4 15 9 15 4 0 6 -11 3 -25 -3 -19 -10 -24 -28
-23 -13 1 -24 5 -24 8 0 14 13 50 17 50 3 0 3 -9 0 -20z m213 -6 c0 -8 -4 -12
-10 -9 -5 3 -10 10 -10 16 0 5 5 9 10 9 6 0 10 -7 10 -16z m-243 -40 c-3 -3
-12 -4 -19 -1 -8 3 -5 6 6 6 11 1 17 -2 13 -5z m243 -84 c0 -5 -5 -10 -11 -10
-5 0 -7 5 -4 10 3 6 8 10 11 10 2 0 4 -4 4 -10z m-369 -40 c5 0 18 -9 29 -20
19 -19 19 -20 1 -30 -13 -6 -17 -17 -14 -30 5 -21 -3 -25 -23 -12 -15 9 1 56
16 47 5 -3 10 -1 10 4 0 6 -5 11 -11 11 -12 0 -48 40 -49 53 0 5 7 1 16 -7 8
-9 20 -16 25 -16z m214 20 c3 -5 -1 -10 -9 -10 -9 0 -16 -8 -17 -17 0 -11 -2
-13 -6 -5 -11 28 17 56 32 32z m-548 -122 c-3 -8 -6 -5 -6 6 -1 11 2 17 5 13
3 -3 4 -12 1 -19z m-120 -4 c-3 -3 -12 -4 -19 -1 -8 3 -5 6 6 6 11 1 17 -2 13
-5z m438 -39 c-45 -38 -55 -42 -55 -19 0 8 5 12 10 9 6 -3 14 5 20 19 7 19 17
26 37 26 l28 0 -40 -35z m-95 -27 c0 -5 -4 -8 -10 -8 -5 0 -10 10 -10 23 0 18
2 19 10 7 5 -8 10 -18 10 -22z m256 -43 c2 -28 -11 -25 -19 5 -3 11 0 20 6 20
7 0 13 -11 13 -25z m-36 -93 c-19 -2 -42 -10 -52 -18 -11 -10 -18 -12 -23 -5
-3 6 0 11 7 11 8 0 29 13 48 29 34 28 35 28 45 7 10 -19 8 -21 -25 -24z m127
-8 c-3 -3 -12 -4 -19 -1 -8 3 -5 6 6 6 11 1 17 -2 13 -5z m-257 -174 c0 -5 -4
-10 -9 -10 -6 0 -13 5 -16 10 -3 6 1 10 9 10 9 0 16 -4 16 -10z m66 -147 c-5
-5 -66 19 -66 26 0 19 15 18 41 -1 16 -12 27 -23 25 -25z m29 -133 c3 -5 1
-10 -4 -10 -6 0 -11 5 -11 10 0 6 2 10 4 10 3 0 8 -4 11 -10z"/>
</g>
</svg>
