<?xml version="1.0" standalone="no"?>
<!DOCTYPE svg PUBLIC "-//W3C//DTD SVG 20010904//EN"
 "http://www.w3.org/TR/2001/REC-SVG-20010904/DTD/svg10.dtd">
<svg version="1.0" xmlns="http://www.w3.org/2000/svg"
 width="708.000000pt" height="708.000000pt" viewBox="0 0 708.000000 708.000000"
 preserveAspectRatio="xMidYMid meet">
<metadata>
Created by potrace 1.11, written by Peter Selinger 2001-2013
</metadata>
<g transform="translate(0.000000,708.000000) scale(0.100000,-0.100000)"
fill="#000000" stroke="none">
<path d="M3292 7068 c-7 -7 -44 -11 -101 -9 -53 1 -92 -3 -96 -9 -3 -5 -39
-10 -80 -10 -41 0 -77 -4 -80 -10 -3 -5 -21 -10 -39 -10 -20 0 -40 -8 -51 -20
-10 -11 -28 -20 -41 -20 -13 0 -26 -4 -29 -10 -4 -6 -53 -10 -115 -10 -91 0
-115 -3 -145 -20 -20 -11 -49 -20 -65 -20 -16 0 -32 -4 -35 -10 -3 -5 -16 -10
-29 -10 -12 0 -35 -13 -51 -30 -16 -16 -34 -30 -40 -30 -6 0 -24 -13 -40 -30
-16 -16 -36 -30 -45 -30 -24 0 -80 -29 -80 -41 0 -13 -25 -39 -38 -39 -5 0
-17 -9 -27 -20 -11 -12 -31 -20 -50 -20 -21 0 -40 -9 -55 -25 -26 -28 -115
-75 -141 -75 -10 0 -21 -4 -24 -10 -3 -5 -15 -10 -25 -10 -11 0 -35 -9 -55
-20 -20 -11 -44 -20 -55 -20 -10 0 -22 -4 -25 -10 -3 -5 -16 -10 -29 -10 -12
0 -35 -13 -51 -30 -16 -16 -34 -30 -40 -30 -6 0 -29 -18 -50 -40 -21 -22 -43
-40 -47 -40 -5 0 -18 -9 -30 -20 -12 -11 -28 -20 -35 -20 -7 0 -13 -4 -13 -10
0 -5 -9 -10 -20 -10 -11 0 -20 -4 -20 -9 0 -5 -15 -16 -33 -24 -17 -9 -52 -36
-75 -61 -24 -25 -48 -46 -53 -46 -16 0 -73 -63 -91 -100 -21 -42 -71 -100 -87
-100 -17 0 -81 -67 -81 -85 0 -8 -4 -15 -10 -15 -5 0 -10 -15 -10 -34 0 -19
-4 -38 -10 -41 -5 -3 -10 -16 -10 -29 0 -15 -32 -53 -99 -119 -54 -53 -103
-97 -110 -97 -6 0 -11 -13 -11 -28 0 -29 -24 -87 -40 -97 -11 -7 -40 -65 -40
-81 0 -6 -13 -38 -30 -69 -22 -42 -30 -71 -30 -109 0 -53 -18 -104 -45 -126
-8 -7 -15 -18 -15 -25 0 -7 -7 -18 -15 -25 -23 -19 -44 -67 -34 -77 6 -6 1
-17 -11 -28 -11 -10 -20 -26 -20 -35 0 -9 -23 -61 -50 -115 -36 -71 -50 -110
-50 -140 0 -44 -20 -94 -45 -115 -8 -7 -15 -22 -15 -34 0 -12 -4 -26 -9 -31
-5 -6 -12 -37 -14 -70 -9 -101 -23 -163 -40 -183 -25 -27 -23 -131 3 -182 31
-61 21 -120 -20 -120 -29 0 -68 -85 -52 -111 7 -10 12 -37 12 -58 0 -22 5 -43
10 -46 13 -8 13 -122 0 -130 -17 -10 -11 -55 10 -82 11 -14 20 -34 20 -44 0
-10 5 -21 10 -24 6 -3 10 -35 10 -70 0 -35 5 -67 11 -70 7 -5 2 -16 -12 -31
-20 -21 -21 -28 -11 -44 7 -11 12 -38 12 -59 0 -22 4 -43 10 -46 13 -8 13 -48
-1 -62 -8 -8 -8 -13 0 -17 6 -4 11 -34 11 -66 0 -41 6 -71 20 -95 14 -25 20
-54 20 -95 0 -33 4 -60 10 -60 6 0 10 -9 10 -20 0 -11 5 -20 10 -20 6 0 10 -9
10 -20 0 -11 5 -20 10 -20 6 0 10 -18 10 -40 0 -22 5 -40 10 -40 6 0 10 -9 10
-20 0 -11 5 -20 10 -20 6 0 10 -13 10 -30 0 -16 5 -30 10 -30 6 0 10 -16 10
-36 0 -25 7 -43 22 -56 15 -13 19 -21 11 -29 -8 -8 -3 -20 18 -42 16 -16 29
-40 29 -53 0 -13 5 -26 10 -29 6 -3 10 -17 10 -30 0 -13 5 -27 10 -30 6 -3 10
-23 10 -44 0 -30 6 -42 30 -59 16 -13 30 -30 30 -40 0 -9 7 -26 15 -36 8 -11
13 -28 10 -37 -3 -10 -1 -20 5 -24 5 -3 10 -17 10 -31 0 -13 5 -24 10 -24 6 0
10 -9 10 -20 0 -11 9 -35 20 -55 11 -20 20 -42 20 -49 0 -29 33 -75 105 -146
43 -42 75 -83 75 -94 0 -22 47 -76 65 -76 14 0 55 -42 55 -57 0 -5 9 -18 20
-28 11 -10 20 -23 20 -29 0 -15 52 -66 67 -66 7 0 13 -5 13 -12 0 -16 50 -68
65 -68 13 0 75 -65 75 -78 0 -4 14 -21 30 -37 16 -16 30 -35 30 -42 0 -8 8
-17 18 -20 9 -4 31 -20 47 -35 17 -15 36 -28 43 -28 6 0 12 -7 12 -16 0 -9 8
-28 18 -42 10 -15 22 -35 25 -44 4 -10 15 -18 26 -18 11 0 47 -25 79 -55 33
-30 64 -55 70 -55 6 0 17 -12 24 -27 8 -17 24 -30 43 -34 63 -15 120 -41 142
-65 12 -13 36 -27 52 -30 16 -3 46 -24 67 -45 21 -21 43 -39 50 -39 6 0 17 -7
24 -15 23 -27 113 -65 157 -65 24 0 58 -9 78 -20 20 -11 53 -20 75 -20 21 0
42 -4 45 -10 3 -5 22 -10 41 -10 19 0 34 -4 34 -10 0 -5 14 -10 30 -10 17 0
30 -4 30 -10 0 -5 23 -10 50 -10 28 0 50 -4 50 -10 0 -5 23 -10 50 -10 28 0
50 -4 50 -10 0 -6 30 -10 70 -10 69 0 150 -18 150 -32 0 -5 24 -8 54 -8 30 0
58 -4 61 -10 3 -5 21 -10 40 -10 19 0 37 -4 40 -10 3 -5 26 -10 50 -10 24 0
47 -5 50 -10 4 -6 77 -10 186 -10 125 0 185 -4 199 -12 16 -10 24 -10 40 0 13
8 65 12 159 12 101 0 140 3 143 12 3 9 27 12 78 10 40 -1 78 2 84 7 6 5 29 11
51 15 22 3 59 9 83 12 23 4 42 11 42 15 0 5 8 9 18 9 10 0 24 9 32 20 12 17
26 20 92 20 43 0 86 4 96 9 82 41 108 51 138 51 19 0 43 5 54 10 11 5 29 14
40 20 11 6 31 10 44 10 14 0 28 5 31 10 3 6 21 10 40 10 18 0 59 14 90 30 31
17 72 30 90 30 19 0 37 4 40 10 3 5 21 10 40 10 44 0 82 18 88 41 3 11 21 22
46 29 23 6 56 23 74 38 38 32 72 52 89 52 28 0 161 74 180 101 12 16 27 29 33
29 20 0 71 29 91 51 10 12 29 25 42 30 12 5 22 14 22 22 0 14 72 85 107 105
13 6 40 12 61 12 33 0 45 8 107 70 38 39 75 70 82 70 8 0 17 10 22 23 5 12 21
33 35 46 14 14 26 30 26 36 0 6 14 24 30 40 17 16 30 35 30 42 0 7 7 13 15 13
9 0 18 8 22 17 11 31 57 74 101 94 23 11 42 25 42 32 0 7 16 29 35 47 38 37
65 82 65 110 0 18 35 53 63 63 9 4 17 13 17 20 0 8 9 22 20 32 11 10 20 23 20
30 0 7 9 20 20 30 11 10 20 28 20 40 0 12 11 32 25 45 31 29 55 75 55 105 0
12 9 34 21 49 13 16 22 47 26 83 3 32 11 72 19 90 8 17 14 34 14 37 0 4 16 30
35 59 19 28 35 63 35 77 0 14 4 30 9 36 5 5 12 34 14 64 9 89 26 179 39 203 9
15 15 98 20 252 9 294 11 325 24 333 20 13 33 105 33 222 -1 71 -5 120 -12
129 -8 9 -11 47 -10 100 1 47 -2 100 -8 118 -7 23 -7 43 2 73 9 31 10 43 1 52
-7 7 -12 24 -12 39 0 15 -4 31 -10 34 -6 3 -10 48 -10 100 0 52 -4 96 -9 99
-15 10 -29 92 -47 291 -3 33 -9 65 -14 70 -4 6 -13 52 -20 103 -7 51 -17 95
-21 98 -5 3 -9 15 -9 28 0 12 -11 33 -25 46 -14 13 -28 39 -31 59 -4 20 -21
52 -39 71 -17 19 -39 52 -49 72 -9 20 -21 40 -26 43 -16 10 -40 67 -40 96 0
15 -4 31 -10 34 -5 3 -10 17 -10 29 0 13 -7 29 -15 36 -8 7 -29 41 -45 75 -16
34 -37 68 -45 75 -8 7 -15 23 -15 36 0 13 -4 24 -10 24 -5 0 -10 7 -10 15 0 8
-13 29 -30 47 -16 17 -30 37 -30 44 0 8 -7 14 -16 14 -19 0 -164 147 -164 166
0 8 -4 14 -10 14 -5 0 -10 7 -10 16 0 16 -55 74 -71 74 -5 0 -9 9 -9 20 0 11
-13 34 -30 52 -16 17 -30 35 -30 40 0 5 -22 31 -50 58 -27 27 -50 56 -50 64 0
9 -4 16 -10 16 -5 0 -10 7 -10 16 0 17 -23 44 -38 44 -5 0 -17 9 -27 20 -10
11 -24 20 -32 20 -7 0 -34 22 -60 48 -27 26 -60 54 -75 61 -15 8 -33 27 -40
43 -7 15 -16 28 -20 28 -5 0 -8 7 -8 15 0 18 -163 185 -180 185 -6 0 -29 18
-50 40 -21 22 -45 40 -52 40 -7 0 -20 9 -28 20 -8 11 -22 20 -32 20 -10 0 -18
5 -18 10 0 6 -11 10 -24 10 -14 0 -40 16 -65 40 -22 22 -48 40 -56 40 -8 0
-15 5 -15 10 0 6 -8 10 -19 10 -25 0 -65 21 -101 54 -17 14 -37 26 -45 26 -8
0 -15 5 -15 10 0 6 -13 10 -30 10 -20 0 -30 5 -30 15 0 12 -14 15 -64 15 -48
0 -65 4 -70 15 -3 8 -16 15 -29 15 -13 0 -32 9 -42 20 -16 18 -31 20 -141 20
-75 0 -125 4 -129 10 -5 8 -11 8 -20 0 -9 -7 -16 -6 -25 5 -28 33 -72 45 -171
45 -54 0 -101 4 -104 10 -3 6 -35 10 -70 10 -35 0 -67 5 -70 10 -3 6 -26 10
-50 10 -24 0 -47 -4 -50 -10 -8 -13 -91 -13 -115 0 -13 7 -21 7 -25 0 -9 -15
-31 -12 -77 10 -32 15 -62 20 -129 20 -48 0 -91 -4 -94 -10 -3 -5 -17 -10 -30
-10 -13 0 -27 5 -30 10 -8 14 -58 13 -73 -2z m-140 -209 c15 -8 26 -8 42 0 17
10 301 11 476 2 8 0 43 2 78 5 37 4 68 2 75 -5 8 -6 18 -6 27 -1 20 13 67 13
75 0 3 -5 30 -10 59 -10 28 0 57 -5 64 -12 9 -9 17 -8 37 2 22 12 27 11 48 -8
16 -15 36 -22 65 -22 22 0 44 -4 47 -10 4 -6 70 -10 165 -10 141 0 164 -2 195
-20 23 -13 54 -20 89 -20 53 0 104 -18 126 -45 7 -8 18 -15 25 -15 6 0 20 -9
30 -20 10 -11 29 -20 42 -20 13 0 41 -9 63 -20 22 -11 46 -20 55 -20 18 0 45
-23 45 -37 0 -15 52 -59 91 -76 20 -9 44 -29 54 -44 10 -16 31 -38 46 -51 16
-13 29 -30 29 -37 0 -8 15 -21 33 -30 64 -31 127 -84 127 -108 0 -16 11 -27
40 -41 22 -11 40 -23 40 -27 0 -4 21 -23 48 -42 26 -19 61 -54 77 -77 17 -23
44 -59 61 -79 17 -20 34 -44 37 -54 4 -9 17 -21 30 -26 13 -5 47 -30 77 -55
30 -25 58 -46 63 -46 13 0 31 -22 50 -61 9 -20 23 -42 32 -49 8 -7 15 -18 15
-24 0 -7 18 -30 40 -51 36 -35 40 -44 40 -87 0 -50 9 -72 50 -125 14 -18 35
-46 48 -62 13 -17 35 -36 49 -43 19 -9 32 -29 44 -63 9 -27 23 -51 30 -54 22
-7 74 -65 91 -101 9 -19 37 -54 61 -78 26 -26 50 -61 57 -85 8 -23 22 -51 32
-63 10 -11 18 -30 18 -42 0 -11 5 -24 10 -27 6 -3 10 -21 10 -40 0 -19 5 -37
10 -40 6 -3 10 -17 10 -30 0 -13 5 -27 10 -30 6 -3 10 -17 10 -30 0 -13 5 -27
10 -30 6 -3 10 -17 10 -30 0 -13 5 -27 10 -30 13 -8 13 -52 -1 -61 -8 -4 -8
-9 0 -17 6 -6 11 -26 11 -43 0 -18 5 -36 10 -39 6 -3 10 -22 10 -41 0 -19 5
-34 10 -34 6 0 10 -22 10 -49 0 -28 5 -53 10 -56 6 -3 10 -24 10 -46 0 -26 7
-47 20 -61 21 -23 27 -48 10 -48 -5 0 -10 -18 -10 -40 0 -22 5 -40 10 -40 6 0
10 -18 10 -39 0 -22 5 -43 10 -46 6 -4 10 -62 10 -141 0 -83 4 -134 10 -134
14 0 13 -47 -1 -56 -8 -4 -8 -9 0 -17 14 -14 15 -293 1 -302 -5 -3 -10 -19
-10 -36 0 -16 5 -29 10 -29 16 0 12 -20 -11 -52 -18 -24 -20 -34 -10 -54 7
-16 7 -24 0 -24 -6 0 -9 -19 -8 -45 2 -25 -3 -51 -9 -57 -7 -7 -12 -43 -12
-88 0 -71 -15 -130 -32 -130 -5 0 -8 -13 -8 -30 0 -16 -4 -30 -10 -30 -6 0
-10 -38 -10 -94 0 -53 -4 -98 -10 -101 -5 -3 -10 -19 -10 -36 0 -16 -3 -29 -7
-29 -18 0 -33 -59 -33 -127 l0 -73 -30 0 c-28 0 -30 -2 -30 -40 0 -22 -3 -40
-7 -40 -9 0 -33 -49 -33 -67 0 -7 -4 -13 -10 -13 -5 0 -10 -9 -10 -20 0 -11
-4 -20 -10 -20 -5 0 -10 -6 -10 -13 0 -8 -9 -22 -20 -32 -11 -10 -20 -24 -20
-31 0 -7 -13 -25 -30 -41 -16 -15 -30 -37 -30 -49 0 -11 -8 -29 -17 -40 -25
-28 -43 -61 -43 -78 0 -7 -13 -19 -28 -25 -18 -8 -34 -25 -42 -46 -8 -19 -26
-47 -42 -62 -15 -15 -28 -33 -28 -40 0 -7 -18 -24 -40 -38 -22 -14 -40 -31
-40 -38 0 -7 -10 -17 -22 -22 -26 -12 -56 -61 -57 -92 -1 -13 -7 -23 -15 -23
-14 0 -106 -95 -106 -110 0 -5 -11 -20 -25 -34 -14 -14 -25 -32 -25 -41 0 -8
-4 -15 -9 -15 -5 0 -13 -9 -16 -20 -4 -14 -15 -20 -36 -20 -20 0 -41 -11 -62
-30 -18 -16 -38 -30 -44 -30 -7 0 -13 -4 -13 -10 0 -5 -7 -10 -16 -10 -8 0
-33 -18 -54 -40 -21 -22 -43 -40 -49 -40 -21 0 -55 -26 -135 -102 -44 -43 -86
-78 -93 -78 -7 0 -13 -4 -13 -10 0 -5 -16 -10 -36 -10 -34 0 -64 -18 -64 -39
0 -5 -17 -18 -37 -28 -21 -9 -41 -21 -45 -27 -3 -5 -27 -9 -52 -9 -25 1 -48
-3 -52 -8 -3 -5 -15 -9 -26 -9 -11 0 -28 -8 -37 -18 -21 -25 -55 -42 -81 -42
-11 0 -30 -9 -42 -20 -12 -11 -28 -20 -35 -20 -7 0 -13 -4 -13 -10 0 -5 -7
-10 -15 -10 -18 0 -58 -37 -68 -63 -5 -14 -19 -17 -86 -17 -44 0 -83 -4 -86
-10 -3 -5 -15 -10 -26 -10 -10 0 -19 -4 -19 -10 0 -5 -11 -10 -24 -10 -14 0
-28 -5 -31 -10 -3 -6 -25 -10 -47 -10 -29 0 -49 -7 -64 -21 -17 -16 -35 -21
-76 -21 -29 0 -63 -4 -75 -10 -17 -9 -29 -8 -47 1 -17 10 -44 11 -97 6 -41 -5
-97 -8 -126 -9 -44 -1 -57 -6 -85 -33 -30 -29 -41 -33 -86 -33 -29 0 -61 5
-72 12 -15 10 -24 9 -46 -2 -21 -12 -28 -12 -31 -2 -3 6 -19 12 -37 12 -18 0
-37 5 -44 12 -8 8 -15 8 -27 -2 -12 -10 -24 -11 -54 -1 -47 14 -181 15 -181 1
0 -13 -67 -13 -75 0 -3 6 -48 10 -100 10 -52 0 -97 4 -100 10 -9 14 -62 12
-68 -2 -3 -10 -9 -11 -26 0 -11 6 -29 12 -39 12 -10 0 -31 13 -47 30 -25 27
-35 30 -86 30 -32 0 -61 4 -64 10 -3 5 -25 10 -48 10 -26 0 -51 8 -67 20 -32
25 -62 25 -85 0 -25 -28 -51 -25 -88 10 -18 16 -42 30 -54 30 -13 0 -23 5 -23
10 0 6 -10 10 -23 10 -12 0 -38 13 -57 30 -25 21 -46 29 -73 30 -27 0 -49 9
-75 30 -32 26 -46 29 -112 32 -74 3 -75 4 -78 31 -3 21 -9 27 -27 27 -13 0
-27 5 -30 10 -3 6 -13 10 -21 10 -9 0 -34 18 -56 40 -26 25 -51 40 -67 40 -34
1 -54 17 -82 67 -35 60 -86 113 -108 113 -11 0 -23 5 -26 10 -3 6 -19 10 -36
10 -16 0 -29 3 -29 8 0 4 -10 12 -22 17 -12 6 -31 28 -43 49 -11 22 -44 63
-72 93 -29 29 -61 72 -72 95 -12 27 -46 65 -90 103 -38 33 -73 68 -76 77 -3 9
-33 40 -65 68 -33 29 -60 58 -60 64 0 7 -9 21 -20 31 -11 10 -20 24 -20 30 0
7 -7 18 -16 26 -18 15 -74 122 -74 142 0 8 -7 20 -15 27 -8 7 -19 29 -25 49
-5 20 -29 58 -52 85 -46 54 -108 169 -108 202 0 12 -13 46 -28 75 -37 71 -50
95 -62 119 -6 11 -10 46 -10 78 0 46 -4 63 -20 77 -11 10 -20 24 -20 30 0 7
-7 18 -15 25 -22 18 -45 70 -45 101 0 15 -4 31 -10 34 -5 3 -10 30 -10 60 0
30 -4 57 -10 60 -5 3 -10 28 -10 55 0 31 -8 63 -20 85 -11 20 -20 48 -20 63 0
16 -5 33 -10 38 -7 7 -9 69 -6 180 5 205 12 268 34 314 18 40 27 156 12 165
-6 3 -10 17 -10 30 0 13 -5 27 -11 31 -7 4 -8 20 -4 43 3 20 7 55 9 79 1 23 8
48 14 54 7 7 12 29 12 49 0 21 5 41 10 44 6 3 10 21 10 40 0 19 5 37 10 40 6
3 10 44 10 90 0 46 5 87 10 90 6 3 10 37 10 76 0 38 3 69 8 69 14 0 32 54 32
97 0 24 5 43 10 43 6 0 10 18 10 40 0 22 5 40 10 40 6 0 10 13 10 30 0 16 9
45 20 65 11 20 20 49 20 65 0 16 5 32 10 35 6 3 10 24 10 45 0 22 9 55 20 75
11 20 20 42 20 49 0 16 28 74 40 81 13 8 40 66 40 86 0 10 5 21 10 24 6 3 10
16 10 29 0 12 13 35 30 51 16 16 30 33 30 39 0 14 41 56 56 56 7 0 31 37 53
83 23 45 50 96 60 112 11 17 20 42 20 57 1 15 14 42 31 61 17 19 30 39 30 43
0 19 375 384 395 384 20 0 105 76 105 95 0 16 51 62 78 70 28 8 82 53 82 68 1
14 81 67 101 68 8 0 46 18 84 39 39 22 100 55 137 74 36 20 69 40 73 46 3 5
20 10 36 10 52 0 131 41 190 97 61 60 137 103 180 103 15 0 31 5 34 10 8 13
72 13 81 -1 4 -8 9 -8 17 0 6 6 35 11 63 11 29 0 56 5 59 10 3 6 23 10 43 10
20 0 64 14 97 30 46 24 74 30 125 31 52 1 75 7 115 29 61 34 52 32 77 19z"/>
<path d="M3365 6729 c-30 -29 -59 -37 -70 -19 -3 6 -28 10 -56 10 -27 0 -49
-4 -49 -10 0 -5 -21 -10 -46 -10 -38 0 -51 -5 -74 -30 -25 -26 -35 -30 -84
-30 -35 0 -66 -6 -81 -16 -13 -8 -32 -14 -42 -12 -10 1 -35 -10 -56 -26 -29
-22 -43 -27 -64 -21 -16 4 -64 10 -108 12 l-81 4 -48 -42 c-37 -33 -52 -40
-64 -33 -18 12 -60 -5 -82 -31 -7 -8 -25 -15 -40 -15 -31 0 -82 -23 -100 -45
-7 -8 -21 -15 -31 -15 -10 0 -21 -4 -24 -10 -3 -5 -28 -10 -54 -10 -39 0 -52
-5 -76 -30 -16 -16 -38 -30 -50 -30 -12 0 -42 -21 -70 -50 -27 -27 -53 -50
-57 -50 -4 0 -29 -13 -55 -30 -26 -16 -58 -30 -72 -30 -20 0 -31 -9 -46 -38
-17 -31 -26 -38 -60 -42 -22 -3 -59 -17 -82 -32 -24 -16 -46 -28 -51 -28 -5 0
-17 -9 -27 -20 -10 -11 -22 -20 -27 -20 -10 0 -74 -48 -121 -90 -16 -14 -40
-46 -53 -72 -13 -27 -29 -48 -35 -48 -6 0 -34 -23 -64 -51 -45 -43 -68 -78
-135 -215 -45 -90 -93 -180 -106 -199 -13 -20 -24 -44 -24 -55 0 -10 -4 -22
-10 -25 -5 -3 -10 -30 -10 -59 0 -45 -4 -56 -30 -81 -16 -16 -30 -37 -30 -47
0 -10 -27 -45 -60 -79 -60 -61 -64 -68 -60 -103 1 -10 -7 -28 -17 -40 -32 -37
-43 -65 -43 -105 0 -22 -5 -43 -10 -46 -6 -3 -10 -18 -10 -34 0 -18 -17 -47
-50 -86 -42 -50 -50 -65 -50 -101 0 -28 -6 -46 -20 -59 -17 -15 -20 -31 -20
-91 0 -40 -4 -76 -10 -79 -5 -3 -10 -24 -10 -46 0 -21 5 -39 10 -39 6 0 10
-13 10 -30 0 -16 -4 -30 -10 -30 -13 0 -13 -77 0 -85 22 -13 10 -67 -20 -95
-33 -31 -36 -41 -18 -70 10 -16 10 -24 0 -40 -6 -11 -12 -27 -12 -35 0 -8 -4
-15 -10 -15 -6 0 -10 -26 -10 -59 0 -39 -4 -61 -12 -64 -10 -3 -7 -15 10 -46
23 -44 29 -95 13 -106 -6 -3 -4 -17 4 -32 9 -17 12 -41 9 -64 -4 -22 -2 -39 5
-43 14 -9 15 -53 1 -61 -13 -8 -13 -212 0 -220 14 -8 13 -88 -1 -102 -13 -13
9 -71 36 -93 11 -9 15 -34 15 -105 0 -79 3 -94 20 -110 11 -10 20 -28 20 -41
0 -13 5 -26 10 -29 6 -3 10 -19 10 -34 0 -30 20 -81 33 -81 4 0 7 -12 7 -26 0
-18 18 -44 60 -86 58 -59 76 -101 49 -110 -14 -5 5 -43 34 -69 9 -9 17 -23 17
-32 0 -9 4 -19 10 -22 5 -3 10 -20 10 -37 0 -18 8 -38 20 -48 12 -10 22 -32
23 -51 1 -24 13 -45 39 -71 21 -20 38 -44 38 -52 0 -9 5 -16 10 -16 6 0 10 -8
10 -18 0 -10 9 -24 20 -32 11 -8 20 -22 20 -32 0 -10 5 -18 10 -18 6 0 10 -7
10 -15 0 -9 9 -25 20 -37 12 -13 20 -36 20 -54 0 -18 4 -36 10 -39 6 -3 10
-16 10 -29 0 -23 57 -86 78 -86 7 0 41 -30 77 -67 57 -60 65 -73 65 -106 0
-43 9 -55 63 -80 20 -10 37 -23 37 -29 0 -6 22 -31 50 -56 28 -25 50 -53 50
-63 0 -10 5 -21 10 -24 6 -3 10 -15 10 -26 0 -25 28 -69 45 -69 7 0 23 -11 36
-24 73 -71 140 -116 174 -116 68 0 112 -21 141 -68 33 -52 85 -99 118 -108 14
-3 27 -12 30 -20 3 -8 17 -14 30 -14 14 0 41 -9 61 -20 20 -11 44 -20 55 -20
11 0 20 -3 20 -8 0 -9 72 -32 100 -32 11 0 20 -4 20 -8 0 -4 21 -13 48 -20 26
-7 61 -17 78 -22 40 -13 111 -13 119 0 11 18 41 11 66 -16 32 -35 74 -52 139
-58 95 -8 134 -18 155 -36 20 -17 151 -33 265 -31 25 0 59 0 75 -1 17 0 42 0
58 0 46 2 57 2 222 -3 166 -5 194 -7 210 -16 23 -12 74 -8 125 11 30 11 71 20
92 20 20 0 49 5 63 12 20 9 31 8 52 -3 20 -11 27 -11 30 -1 3 6 17 12 33 12
16 0 30 6 33 13 3 9 9 9 26 0 34 -21 60 -15 97 22 19 19 38 35 42 35 82 5 130
13 164 30 23 11 61 20 85 20 24 0 58 9 78 20 20 11 44 20 55 20 27 0 65 18
142 67 49 31 70 51 74 71 4 15 15 37 26 49 15 16 17 26 10 40 -5 10 -7 24 -5
31 6 16 77 16 103 0 16 -10 24 -10 40 0 24 15 66 16 75 2 9 -14 56 -12 84 4
14 8 84 71 155 140 72 69 151 145 176 169 57 54 80 83 80 102 0 8 8 15 19 15
10 0 39 18 64 40 25 22 50 40 55 40 6 0 46 36 88 80 43 44 86 80 95 80 10 0
29 12 43 28 96 106 116 131 116 150 0 11 3 22 8 24 13 6 72 82 72 94 0 7 14
26 30 44 16 18 30 37 30 44 0 6 32 45 70 86 39 41 70 79 70 83 0 4 9 27 20 49
15 31 20 62 20 121 0 75 1 79 30 104 26 21 30 32 30 73 0 32 5 50 14 53 19 8
46 64 46 97 0 15 9 35 20 45 17 15 20 31 20 96 0 43 5 81 10 84 6 3 10 34 10
69 0 34 5 67 11 73 8 8 8 13 0 17 -14 9 -14 73 -1 81 13 8 13 292 0 300 -5 3
-1 20 10 41 22 37 27 109 9 120 -7 4 -8 20 -4 43 3 20 8 56 12 81 3 25 9 50
15 57 6 8 2 26 -12 54 l-22 42 21 37 c17 30 21 55 21 119 0 81 -5 98 -63 219
-18 37 -18 46 -7 68 11 20 12 29 2 44 -7 11 -12 38 -12 59 0 22 -4 43 -10 46
-5 3 -10 19 -10 34 0 15 -9 46 -20 69 -11 22 -20 47 -20 55 0 8 -9 22 -20 32
-11 10 -20 24 -20 30 0 7 -7 18 -15 25 -22 18 -45 69 -45 100 0 15 -7 33 -15
40 -24 20 -45 71 -45 111 0 21 -4 41 -10 44 -5 3 -10 16 -10 29 0 12 -9 32
-20 44 -11 12 -20 29 -20 39 0 10 -29 48 -65 83 -71 70 -95 108 -95 150 0 15
-9 35 -20 45 -11 10 -20 23 -20 29 0 7 -22 34 -50 61 -29 28 -50 58 -50 70 0
12 -13 34 -30 50 -16 16 -30 36 -30 45 0 28 -24 69 -48 79 -12 6 -27 22 -32
36 -5 14 -21 30 -35 37 -14 6 -25 16 -25 23 0 6 -13 24 -30 40 -16 16 -30 34
-30 40 0 7 -9 20 -20 30 -11 10 -20 23 -20 29 -1 6 -29 29 -63 51 -34 22 -66
50 -73 62 -6 13 -18 31 -27 41 -10 10 -17 23 -17 28 0 13 -93 103 -121 118
-12 6 -30 25 -39 41 -11 19 -26 31 -43 33 -14 2 -29 11 -32 21 -3 10 -14 29
-25 41 -10 12 -20 25 -22 28 -2 4 -21 16 -43 27 -22 12 -53 40 -68 63 -16 23
-36 42 -46 42 -26 0 -74 26 -101 55 -13 14 -33 25 -46 25 -12 0 -27 7 -34 15
-16 19 -68 45 -90 45 -10 0 -23 7 -30 15 -14 17 -67 45 -86 45 -7 0 -29 9 -49
20 -39 22 -75 26 -92 9 -7 -7 -21 -4 -47 10 -25 15 -55 21 -96 21 -32 0 -62 5
-65 10 -3 6 -19 10 -35 10 -16 0 -46 9 -67 21 -29 16 -41 19 -55 10 -22 -14
-55 -14 -63 -1 -3 6 -33 10 -65 10 -32 0 -62 5 -65 10 -3 6 -18 10 -32 10 -15
0 -37 10 -50 22 l-23 21 -46 -23 c-37 -20 -49 -22 -65 -12 -23 15 -85 16 -94
2 -4 -6 -61 -10 -138 -10 -121 0 -134 2 -147 20 -20 27 -39 24 -75 -11z m281
-203 c56 -2 111 -9 122 -15 13 -7 83 -11 178 -11 94 0 170 -5 189 -11 24 -9
54 -9 116 -1 60 7 86 7 91 0 3 -7 47 -13 100 -15 62 -3 98 -9 109 -19 8 -8 26
-14 40 -14 13 0 44 -14 68 -30 34 -24 55 -30 94 -30 42 0 56 -5 79 -27 15 -15
28 -33 28 -40 0 -7 6 -13 13 -13 8 0 22 -8 31 -19 9 -10 30 -21 45 -24 17 -4
31 -14 34 -26 3 -13 41 -38 114 -74 78 -40 119 -67 144 -96 18 -23 53 -63 77
-90 23 -26 42 -52 42 -56 0 -4 14 -23 30 -42 17 -18 30 -38 30 -43 0 -6 6 -10
13 -10 8 0 22 -9 32 -20 10 -11 24 -20 32 -20 7 0 13 -5 13 -10 0 -6 20 -33
45 -59 25 -26 45 -56 45 -67 0 -21 58 -84 77 -84 7 0 13 -7 13 -15 0 -39 33
-81 83 -104 29 -13 60 -31 69 -39 23 -20 68 -110 68 -138 0 -12 8 -32 18 -45
10 -13 26 -41 36 -61 9 -21 23 -38 31 -38 9 0 15 -10 15 -24 0 -13 7 -29 15
-36 19 -15 45 -68 45 -90 0 -17 49 -70 66 -70 6 0 25 -15 43 -34 22 -23 29
-36 21 -41 -8 -5 -9 -10 -1 -18 6 -6 11 -26 11 -43 0 -18 5 -36 10 -39 6 -3
10 -16 10 -29 0 -13 9 -31 20 -41 11 -10 20 -23 20 -30 0 -7 9 -20 20 -30 14
-13 20 -31 20 -62 0 -38 4 -46 30 -61 16 -9 30 -25 30 -35 0 -10 9 -27 20 -39
13 -15 20 -36 20 -64 0 -24 5 -46 10 -49 6 -4 10 -55 10 -121 0 -69 4 -114 10
-114 6 0 10 -53 10 -139 0 -83 4 -142 10 -146 6 -3 10 -14 10 -24 0 -9 14 -30
30 -46 34 -32 36 -56 11 -100 -17 -29 -17 -31 0 -62 11 -19 14 -35 9 -38 -13
-8 -13 -172 0 -180 6 -3 10 -26 10 -50 0 -24 -4 -47 -10 -50 -5 -3 -10 -21
-10 -40 0 -19 -4 -37 -10 -40 -5 -3 -10 -44 -10 -90 0 -46 -4 -87 -10 -90 -14
-9 -13 -81 2 -104 9 -15 9 -25 0 -46 -7 -14 -12 -35 -12 -45 0 -11 -4 -20 -8
-20 -5 0 -19 -20 -31 -44 -19 -36 -21 -47 -11 -63 10 -15 8 -25 -9 -56 -12
-21 -21 -46 -21 -57 0 -10 -4 -22 -10 -25 -5 -3 -10 -17 -10 -30 0 -13 -4 -27
-10 -30 -5 -3 -10 -22 -10 -41 0 -19 -9 -52 -20 -74 -11 -22 -20 -48 -20 -59
0 -11 -4 -23 -10 -26 -5 -3 -10 -14 -10 -23 0 -9 -12 -40 -27 -69 -26 -50 -26
-53 -9 -71 15 -17 15 -24 4 -62 -7 -23 -20 -45 -28 -48 -8 -3 -49 -40 -90 -82
-41 -42 -86 -82 -100 -89 -56 -27 -71 -45 -74 -91 -4 -62 -17 -110 -28 -110
-5 0 -26 -18 -46 -41 -20 -23 -55 -50 -77 -61 -22 -12 -54 -32 -72 -47 -65
-53 -91 -71 -102 -71 -7 0 -20 -19 -30 -42 -33 -76 -132 -149 -173 -127 -17 9
-25 6 -52 -20 -18 -17 -37 -31 -44 -31 -22 0 -37 -47 -24 -75 14 -30 16 -65 4
-65 -5 0 -17 9 -27 20 -10 11 -27 20 -38 20 -24 0 -57 -27 -57 -47 0 -9 -15
-13 -49 -13 -58 0 -123 -31 -153 -72 -13 -20 -28 -28 -48 -28 -16 0 -46 -9
-66 -21 -32 -18 -41 -19 -61 -8 -19 10 -26 10 -36 0 -9 -11 -9 -14 1 -18 18
-7 15 -43 -5 -49 -18 -6 -30 -11 -90 -45 -18 -10 -44 -19 -57 -19 -25 0 -76
-45 -104 -92 -13 -23 -24 -28 -54 -28 -21 0 -38 -4 -38 -10 0 -5 -9 -10 -20
-10 -11 0 -29 -4 -40 -10 -11 -5 -30 -15 -42 -21 -17 -9 -23 -9 -26 0 -5 14
-158 15 -167 1 -3 -5 -16 -10 -29 -10 -12 0 -26 -4 -32 -10 -5 -5 -42 -11 -81
-13 -50 -2 -78 -9 -91 -20 -11 -10 -35 -17 -60 -17 -22 0 -44 -4 -47 -10 -3
-5 -18 -10 -33 -10 -31 -1 -111 -21 -130 -33 -18 -12 -454 -9 -466 3 -6 6 -42
10 -81 10 -39 0 -75 4 -81 9 -8 9 -48 13 -266 27 -68 4 -90 9 -104 25 -11 12
-30 19 -55 19 -21 0 -54 9 -74 20 -20 11 -44 20 -55 20 -10 0 -22 5 -25 10 -3
6 -22 10 -40 10 -27 0 -39 7 -57 30 -12 17 -30 30 -39 30 -10 0 -21 5 -24 10
-3 6 -20 10 -36 10 -39 0 -57 18 -61 61 -3 31 -6 34 -38 37 -19 2 -39 8 -44
13 -6 5 -33 9 -62 9 -49 0 -54 2 -97 50 -50 54 -105 90 -141 90 -13 0 -35 6
-49 13 -35 18 -107 94 -107 112 0 8 -4 15 -10 15 -5 0 -10 10 -10 23 0 13 -12
34 -26 48 -14 13 -30 34 -35 47 -5 12 -15 22 -22 22 -8 0 -37 24 -65 54 -40
41 -52 62 -52 85 0 24 -12 42 -58 86 -33 32 -66 55 -79 55 -25 0 -47 29 -86
111 -15 32 -34 62 -42 69 -8 7 -15 18 -15 25 0 7 -6 18 -14 24 -21 17 -126
235 -126 260 0 7 -9 24 -20 38 -11 14 -20 35 -20 47 0 12 -7 31 -15 42 -8 10
-15 28 -15 39 0 11 -11 40 -24 65 -14 25 -34 65 -46 90 -11 25 -30 62 -42 83
-14 27 -19 49 -15 73 3 18 1 36 -4 39 -5 4 -9 21 -9 40 0 19 -4 37 -10 40 -5
3 -10 19 -10 34 0 35 -22 80 -55 111 -14 13 -25 34 -25 46 0 13 -5 26 -10 29
-13 8 -13 192 0 200 6 3 10 14 10 24 0 22 -47 116 -65 131 -8 7 -15 25 -15 41
0 16 -9 44 -20 64 -15 27 -20 54 -20 111 0 61 -4 79 -20 96 -25 27 -25 48 0
93 11 20 20 53 20 75 0 21 5 42 10 45 6 3 10 29 10 57 0 49 12 102 31 140 5
10 9 30 9 46 0 15 9 51 20 81 14 39 17 59 9 72 -6 13 -6 25 1 38 5 11 10 56
10 100 0 44 5 83 10 86 6 3 10 16 10 28 0 43 32 112 71 154 39 42 39 43 39
126 0 63 5 92 20 122 11 22 20 47 20 56 0 9 7 22 15 29 9 7 15 20 14 29 -3 31
1 41 26 63 14 12 25 30 25 40 0 10 4 18 9 18 5 0 13 9 16 20 3 11 11 20 16 20
17 0 59 44 59 62 0 10 3 18 8 18 4 0 16 17 27 38 11 20 32 52 47 70 15 18 31
45 34 60 4 15 15 44 25 64 11 21 19 49 19 63 0 14 5 25 10 25 6 0 10 11 10 23
0 13 10 32 21 43 12 10 32 35 44 54 24 38 197 212 218 219 6 2 29 22 50 43 21
21 42 38 48 38 6 0 24 13 42 30 18 16 36 30 40 30 5 0 22 14 37 30 21 22 37
30 63 30 20 0 37 3 39 8 9 20 82 72 102 72 27 0 79 24 96 45 7 8 19 15 26 15
8 0 14 6 14 14 0 8 9 18 20 21 11 3 20 11 20 16 0 5 7 9 16 9 9 0 29 14 44 30
17 18 38 30 54 30 14 0 26 4 26 9 0 5 27 12 60 16 33 4 66 13 73 20 7 7 38 16
68 20 30 4 61 12 69 19 27 20 59 36 75 36 8 0 29 13 47 29 39 33 96 63 156 79
23 7 60 17 82 24 30 8 46 8 65 0 31 -14 92 -16 100 -2 11 18 74 29 106 18 25
-8 38 -7 72 10 23 11 71 26 107 33 36 6 72 16 80 21 8 5 49 6 90 3 41 -3 121
-7 176 -9z"/>
<path d="M4476 6085 c-39 -19 -76 -35 -82 -35 -7 0 -30 -30 -50 -67 -33 -57
-38 -77 -42 -147 -4 -72 -9 -90 -48 -161 -66 -123 -77 -241 -44 -470 26 -184
70 -272 192 -391 104 -100 226 -188 343 -246 50 -25 113 -57 140 -72 28 -14
59 -26 70 -26 11 0 34 -9 50 -21 17 -11 59 -37 95 -59 38 -22 89 -65 122 -102
31 -35 69 -70 85 -78 15 -8 34 -21 41 -27 18 -17 73 -16 98 1 11 8 33 16 49
18 28 3 30 6 33 52 4 57 -9 93 -54 158 -28 40 -31 48 -18 58 16 14 19 67 4
104 -6 17 -6 27 2 32 19 12 2 87 -32 144 -43 71 -114 178 -140 210 -11 14 -20
32 -20 40 0 13 -20 89 -67 245 -29 97 -104 225 -175 299 -49 52 -59 84 -67
236 -6 107 -11 134 -34 185 -31 67 -53 95 -75 95 -7 0 -26 8 -40 18 -42 29
-102 42 -188 42 -70 0 -87 -4 -148 -35z m139 -75 c3 -5 39 -10 79 -10 53 0 77
-4 86 -15 7 -8 18 -15 25 -15 7 0 25 -28 40 -62 28 -63 29 -89 9 -210 -5 -30
-3 -38 9 -38 11 0 17 -15 22 -51 6 -42 17 -62 61 -115 99 -116 165 -237 181
-329 2 -16 8 -39 13 -50 16 -38 40 -124 40 -141 0 -10 25 -55 56 -101 31 -46
54 -89 51 -97 -3 -7 -27 -24 -54 -38 -43 -23 -48 -29 -48 -59 0 -30 4 -34 28
-37 29 -4 31 -6 41 -55 6 -25 5 -26 -13 -16 -13 9 -31 10 -62 3 -43 -9 -44
-10 -44 -51 0 -24 -4 -39 -10 -35 -5 3 -28 18 -50 32 -22 15 -55 31 -74 35
-53 11 -287 135 -381 201 -47 32 -114 87 -150 120 -64 61 -140 172 -140 206 0
23 23 14 35 -15 7 -15 20 -23 42 -25 17 -2 37 -10 43 -18 7 -8 21 -14 32 -14
11 0 37 -13 58 -30 23 -18 50 -30 68 -30 29 0 31 -2 34 -42 3 -37 6 -43 28
-47 14 -1 37 -12 52 -22 15 -11 49 -22 75 -26 41 -4 51 -2 67 16 27 30 12 75
-26 79 -34 4 -46 19 -50 62 -2 27 -8 36 -25 38 -13 2 -23 12 -25 24 -2 12 -12
26 -23 32 -11 6 -32 19 -47 29 -14 9 -33 17 -42 17 -9 0 -16 4 -16 10 0 5 -20
19 -45 30 -25 11 -45 27 -45 35 0 24 40 17 62 -10 12 -16 30 -25 46 -25 19 0
30 -7 37 -22 8 -18 20 -24 53 -26 48 -4 71 14 72 56 0 17 6 22 24 22 35 0 42
-18 13 -29 -14 -6 -28 -15 -32 -21 -12 -20 4 -59 28 -65 13 -4 27 -16 32 -28
14 -30 65 -35 89 -8 25 27 18 75 -11 79 -13 2 -23 10 -23 19 0 12 8 13 41 8
31 -5 45 -3 60 11 23 20 25 57 4 74 -8 7 -15 25 -15 40 0 15 -7 33 -15 40 -8
7 -15 24 -15 38 0 29 -26 62 -49 62 -9 0 -22 9 -29 20 -7 11 -20 20 -29 20
-15 0 -15 1 0 18 20 22 22 85 4 100 -20 17 -124 27 -140 13 -11 -8 -22 -7 -47
5 -41 21 -137 12 -160 -14 -9 -9 -25 -22 -35 -28 -11 -6 -21 -23 -23 -38 -3
-20 -9 -26 -28 -26 -36 0 -64 -18 -64 -40 0 -11 9 -35 20 -55 11 -20 20 -40
20 -45 0 -13 -57 -13 -65 0 -3 6 -20 10 -37 10 l-31 0 6 83 c6 99 28 166 74
231 34 47 36 54 37 140 1 68 6 97 19 116 l17 24 0 -24 c0 -40 37 -70 87 -70
65 0 83 13 83 60 0 46 -26 70 -77 70 -42 0 -42 16 0 34 38 17 83 20 92 6z
m-115 -766 c0 -20 -18 -17 -29 5 -9 16 -8 18 9 14 11 -3 20 -12 20 -19z m260
-34 c0 -5 -6 -10 -14 -10 -8 0 -21 -3 -30 -6 -11 -4 -16 -1 -16 10 0 11 9 16
30 16 17 0 30 -4 30 -10z m577 -872 c18 -2 20 -6 10 -19 -11 -14 -15 -12 -37
15 -13 17 -18 26 -10 19 8 -6 25 -13 37 -15z"/>
<path d="M4677 5932 c-25 -27 -22 -78 5 -96 27 -19 106 -20 131 -2 25 19 24
92 -2 106 -33 17 -116 12 -134 -8z"/>
<path d="M4590 5815 c-23 -27 -24 -88 -2 -115 17 -21 24 -23 48 -15 26 9 29
15 32 64 2 30 -2 59 -9 67 -15 18 -53 18 -69 -1z"/>
<path d="M1290 4370 c-8 -5 -27 -10 -42 -10 -19 0 -28 -5 -28 -16 0 -9 -13
-29 -30 -44 -28 -26 -30 -33 -30 -99 0 -46 4 -71 11 -71 9 0 10 -17 4 -57 -12
-91 -3 -223 16 -223 5 0 9 -13 9 -30 0 -16 -4 -30 -10 -30 -5 0 -10 -18 -10
-40 0 -22 -4 -40 -10 -40 -5 0 -10 -22 -10 -50 0 -27 -4 -50 -10 -50 -5 0 -10
-25 -10 -55 0 -51 -2 -56 -27 -66 -15 -6 -30 -13 -33 -17 -3 -4 -14 -12 -25
-18 -16 -9 -20 -21 -18 -55 2 -55 7 -87 16 -95 4 -4 7 -14 7 -21 0 -19 25 -43
44 -43 9 0 16 -4 16 -10 0 -5 23 -10 50 -10 43 0 50 3 50 20 0 11 5 20 10 20
6 0 10 9 10 20 0 13 7 20 20 20 11 0 20 -4 20 -10 0 -5 9 -10 19 -10 11 0 23
-4 26 -10 3 -5 17 -10 31 -10 13 0 24 -4 24 -10 0 -6 33 -10 80 -10 47 0 80
-4 80 -10 0 -6 31 -10 74 -10 50 0 76 -4 79 -12 4 -10 6 -10 6 0 1 7 14 12 31
12 17 0 30 5 30 10 0 6 16 10 35 10 19 0 35 5 35 10 0 6 9 10 20 10 11 0 20 5
20 10 0 6 21 10 46 10 46 0 58 7 82 49 12 20 11 25 -7 40 -12 10 -21 25 -21
33 0 8 -16 22 -34 31 -37 17 -77 14 -207 -19 -30 -8 -103 -14 -162 -14 -100 0
-107 -1 -107 -20 0 -27 -7 -25 -38 8 -15 16 -39 32 -54 36 -16 3 -28 13 -28
21 0 8 -4 15 -10 15 -5 0 -10 16 -10 35 0 19 5 35 10 35 6 0 10 25 10 55 0 30
5 55 10 55 6 0 10 45 10 115 0 63 -4 115 -9 115 -5 0 -10 65 -10 149 -1 138 1
150 18 156 44 14 61 40 61 96 0 69 -30 109 -81 109 -19 0 -41 -5 -49 -10z"/>
<path d="M2216 4301 c-4 -6 -14 -11 -22 -11 -9 0 -22 -6 -30 -14 -16 -16 -19
-86 -4 -86 6 0 10 -7 10 -16 0 -19 48 -64 68 -64 16 0 16 -104 0 -168 -9 -35
-9 -47 0 -50 15 -5 17 -208 2 -217 -5 -3 -10 -47 -10 -96 l0 -89 -30 -6 c-16
-4 -30 -10 -30 -15 0 -5 -12 -9 -27 -9 -43 -1 -73 -32 -73 -74 0 -20 4 -36 8
-36 5 0 15 -11 22 -25 9 -18 22 -25 42 -25 15 0 28 5 28 10 0 6 9 10 20 10 11
0 20 -4 20 -10 0 -6 45 -10 115 -10 70 0 115 -4 115 -10 0 -23 53 -9 81 21 34
36 31 65 -9 111 -18 20 -35 28 -58 28 -27 0 -36 6 -50 31 -16 32 -16 29 13
172 3 16 1 38 -5 50 -9 18 -19 95 -22 177 -1 19 19 178 25 208 5 18 12 22 45
22 22 0 40 -4 40 -10 0 -5 18 -10 40 -10 22 0 40 5 40 10 0 6 33 10 80 10 47
0 80 -4 80 -10 0 -5 9 -10 20 -10 17 0 20 -7 20 -49 0 -30 5 -52 13 -55 10 -5
10 -7 0 -12 -16 -7 -19 -339 -3 -349 6 -3 10 -37 10 -76 0 -39 -4 -69 -10 -69
-5 0 -10 -24 -10 -54 0 -46 3 -56 20 -61 11 -3 20 -11 20 -16 0 -5 9 -9 20 -9
11 0 20 -4 20 -10 0 -29 76 6 91 43 6 15 15 27 20 27 12 0 11 97 -1 105 -5 3
-10 44 -10 91 0 49 -4 84 -10 84 -6 0 -10 35 -10 85 0 50 -4 85 -10 85 -5 0
-10 14 -10 30 0 17 4 30 9 30 5 0 12 21 15 48 17 130 18 132 35 132 9 0 22 5
28 11 8 8 22 8 49 0 22 -6 87 -11 146 -11 l108 0 5 -27 c3 -16 9 -40 14 -55 5
-14 6 -38 4 -52 -3 -15 -1 -26 6 -26 7 0 11 -20 11 -50 0 -27 5 -50 10 -50 15
0 13 -237 -1 -242 -8 -3 -12 -40 -13 -104 -1 -99 0 -101 29 -132 52 -55 115
-38 115 32 0 19 5 38 10 41 6 4 10 103 10 266 0 166 -4 259 -10 259 -5 0 -10
9 -10 20 0 11 5 20 10 20 6 0 10 16 10 36 0 49 19 64 79 64 90 0 129 -36 110
-102 -5 -18 -9 -118 -9 -223 0 -179 1 -191 20 -203 11 -7 20 -18 20 -25 0 -7
-9 -19 -20 -27 -15 -11 -20 -26 -20 -57 0 -24 -4 -43 -10 -43 -5 0 -10 -11
-10 -25 0 -14 -4 -25 -10 -25 -5 0 -10 -9 -10 -20 0 -11 -4 -20 -10 -20 -23 0
-7 -35 35 -76 l44 -44 121 0 c73 0 120 4 120 10 0 6 30 10 70 10 40 0 70 -4
70 -10 0 -6 35 -10 86 -10 61 0 90 -4 100 -14 11 -11 14 -45 14 -140 0 -77 4
-126 10 -126 6 0 10 -7 10 -15 0 -20 45 -65 65 -65 9 0 15 9 15 21 0 19 4 21
30 16 l30 -7 0 180 c0 181 14 315 37 338 7 7 38 12 77 12 36 0 68 5 71 10 3 6
19 10 34 10 41 0 61 -52 60 -150 -2 -74 19 -235 33 -256 4 -6 16 -45 28 -88
22 -83 62 -156 85 -156 8 0 19 -9 25 -20 6 -11 19 -20 30 -20 10 0 22 -4 25
-10 3 -5 16 -10 27 -10 12 0 36 -5 54 -12 29 -10 34 -9 58 15 26 26 37 87 16
87 -5 0 -10 7 -10 16 0 22 -25 44 -49 44 -33 0 -71 22 -71 42 0 10 -4 18 -10
18 -5 0 -10 16 -10 35 0 19 -4 35 -10 35 -5 0 -10 8 -10 18 0 10 -4 22 -9 27
-12 13 -23 135 -21 248 0 61 -4 98 -15 119 -21 43 -19 58 8 58 37 0 124 36
151 63 14 15 26 35 26 47 0 11 5 20 10 20 15 0 13 186 -2 212 -18 30 -75 88
-88 88 -5 0 -10 5 -10 10 0 6 -24 10 -54 10 -30 0 -58 5 -61 10 -12 19 -63 11
-70 -10 -4 -12 -15 -20 -28 -20 -13 0 -29 9 -37 20 -13 19 -26 20 -172 20 -99
0 -158 -4 -158 -10 0 -14 -36 -13 -76 2 -30 11 -35 10 -52 -10 -11 -12 -26
-22 -34 -22 -18 0 -38 -20 -38 -38 0 -7 13 -27 30 -45 16 -18 30 -36 30 -40 0
-4 8 -7 18 -5 15 3 17 -10 20 -134 1 -76 -1 -138 -6 -138 -26 0 -52 -39 -52
-77 0 -69 -11 -73 -209 -73 -136 0 -175 3 -187 14 -21 22 -20 238 2 271 26 39
89 35 145 -10 47 -38 95 -45 144 -23 22 10 25 17 25 60 0 26 -4 48 -10 48 -5
0 -10 7 -10 15 0 8 -4 15 -10 15 -5 0 -10 7 -10 15 0 20 -65 85 -84 85 -8 0
-18 -4 -21 -10 -3 -5 -37 -10 -74 -10 -68 0 -69 0 -82 33 -9 20 -13 63 -12
117 3 142 -12 130 169 130 168 0 186 -5 177 -51 -8 -42 26 -69 86 -69 71 0 81
12 81 99 0 41 4 71 10 71 6 0 10 7 10 16 0 14 -17 33 -76 83 -13 11 -111 13
-545 14 l-529 0 -45 -24 -45 -24 -23 29 c-21 26 -27 28 -68 22 -124 -17 -590
2 -704 29 -102 24 -142 28 -149 16z m2671 -543 c42 -18 63 -39 63 -63 0 -24
-27 -53 -50 -52 -8 0 -33 -8 -55 -17 -22 -10 -49 -22 -60 -27 -20 -8 -76 -15
-212 -25 -62 -5 -73 -3 -73 10 0 9 -4 16 -10 16 -6 0 -10 29 -10 66 0 102 4
104 211 104 108 0 178 -4 196 -12z"/>
<path d="M5356 3621 c-4 -6 -17 -11 -29 -11 -31 -1 -57 -23 -57 -49 0 -11 -4
-21 -10 -21 -6 0 -10 -47 -10 -120 0 -73 -4 -120 -10 -120 -5 0 -10 -13 -10
-30 0 -16 -4 -30 -10 -30 -6 0 -10 -37 -10 -90 0 -53 -4 -90 -10 -90 -6 0 -10
-28 -10 -65 0 -37 -4 -65 -10 -65 -5 0 -10 -20 -10 -45 0 -25 5 -45 10 -45 6
0 10 -9 10 -19 0 -11 9 -23 20 -26 11 -3 20 -11 20 -16 0 -16 54 -9 78 10 16
14 22 30 22 60 0 22 5 43 10 46 6 3 10 30 10 60 0 30 5 57 10 60 6 3 10 32 10
63 1 31 7 68 15 82 8 14 14 37 15 53 0 15 5 27 11 27 7 0 9 -11 6 -30 -5 -22
-3 -30 8 -30 7 0 17 -9 20 -20 3 -11 15 -20 26 -20 10 0 19 -4 19 -10 0 -14
83 -13 97 1 7 7 28 9 55 5 110 -14 134 -19 146 -28 9 -8 12 -65 12 -224 0
-136 4 -214 10 -214 6 0 10 -8 10 -18 0 -23 44 -62 71 -62 26 0 69 43 69 69 0
11 5 23 10 26 6 3 10 45 10 93 0 91 0 91 -50 122 -12 7 -11 12 8 28 21 18 22
27 22 156 0 86 -4 143 -12 155 -6 11 -8 26 -3 37 11 27 12 30 13 112 2 65 4
72 22 72 17 0 20 7 20 44 0 36 -4 46 -20 51 -11 3 -20 11 -20 16 0 29 -30 36
-180 42 -85 4 -214 10 -286 13 -94 5 -133 4 -138 -5z m204 -131 c0 -4 44 -10
98 -13 53 -3 105 -9 114 -12 26 -10 31 -40 17 -115 l-12 -70 -154 0 c-95 0
-153 -4 -153 -10 0 -5 -11 -10 -24 -10 -23 0 -23 0 -19 93 6 99 19 127 58 127
13 0 25 6 28 14 6 14 47 11 47 -4z"/>
<path d="M2932 2557 c-33 -35 -29 -73 9 -92 28 -15 32 -15 50 1 28 26 36 84
14 101 -27 19 -49 16 -73 -10z"/>
<path d="M3045 2510 c-20 -39 -19 -47 10 -75 47 -48 125 -19 125 47 0 32 -40
58 -89 58 -24 0 -34 -7 -46 -30z"/>
<path d="M2637 2512 c-26 -29 -22 -77 9 -101 14 -11 34 -23 45 -26 17 -6 18
-8 4 -35 -25 -48 -18 -120 12 -120 29 0 71 30 83 59 11 26 9 36 -10 76 -17 35
-19 49 -11 59 18 22 2 66 -33 87 -39 24 -78 24 -99 1z"/>
<path d="M2806 2439 c-14 -11 -26 -28 -26 -38 0 -51 83 -94 127 -66 33 22 32
77 -3 104 -15 12 -37 21 -49 21 -12 0 -34 -9 -49 -21z"/>
<path d="M3118 2379 c-23 -17 -28 -28 -28 -63 0 -93 69 -125 137 -62 35 32 36
34 23 65 -14 34 -67 81 -91 81 -8 0 -26 -10 -41 -21z"/>
<path d="M2544 2380 c-28 -11 -54 -48 -54 -76 0 -28 45 -64 79 -64 34 1 68 28
76 61 5 21 0 31 -30 57 -39 35 -40 35 -71 22z"/>
<path d="M2894 2285 c-11 -17 -14 -35 -10 -60 11 -58 70 -74 105 -29 27 35 27
65 -2 92 -32 30 -72 29 -93 -3z"/>
<path d="M2485 2205 c-14 -13 -25 -31 -25 -39 0 -13 -5 -12 -32 4 -41 25 -53
25 -89 -1 -42 -29 -40 -73 4 -99 17 -11 44 -20 58 -20 27 0 59 27 59 49 0 9 6
8 22 -3 32 -23 54 -20 78 11 26 33 21 79 -11 106 -28 22 -35 22 -64 -8z"/>
<path d="M3153 2192 c-26 -4 -63 -47 -63 -73 0 -16 -3 -15 -26 6 -53 49 -144
15 -144 -54 0 -36 40 -71 82 -71 32 0 88 47 88 73 0 12 8 11 41 -6 l40 -20 32
23 c20 16 32 19 35 12 6 -18 57 -42 87 -42 37 0 67 34 63 72 -6 62 -93 94
-130 48 -20 -25 -20 -25 -36 6 -12 23 -34 32 -69 26z"/>
<path d="M2722 2167 c-38 -41 -24 -91 32 -111 53 -19 93 68 50 111 -29 29 -55
29 -82 0z"/>
<path d="M2606 2081 c-10 -11 -20 -38 -23 -61 -5 -33 -2 -45 17 -65 46 -49
100 -18 100 56 0 29 -7 43 -31 63 -37 31 -41 32 -63 7z"/>
<path d="M3102 2033 c-13 -11 -23 -36 -27 -64 -6 -40 -3 -49 20 -77 34 -40 61
-49 86 -27 40 37 32 138 -14 170 -28 19 -40 19 -65 -2z"/>
<path d="M2347 2002 c-33 -34 -35 -74 -5 -102 45 -42 114 -14 124 50 11 73
-67 107 -119 52z"/>
<path d="M2875 2005 c-34 -13 -55 -51 -55 -94 0 -33 15 -48 59 -61 24 -7 37
-4 63 14 37 24 45 54 27 97 -17 43 -56 61 -94 44z"/>
<path d="M2669 1911 c-34 -35 -36 -59 -8 -95 15 -19 17 -26 7 -26 -17 0 -62
-47 -71 -73 -16 -43 49 -126 86 -111 33 12 46 47 36 97 -5 26 -13 56 -19 67
-9 17 -8 20 14 20 27 0 63 38 73 78 5 20 0 31 -21 49 -36 31 -61 29 -97 -6z"/>
<path d="M2509 1850 c-24 -23 -29 -37 -29 -74 0 -40 4 -48 25 -58 51 -23 105
34 105 110 0 56 -56 68 -101 22z"/>
<path d="M2281 1797 c-28 -45 -27 -71 4 -91 37 -25 80 -20 104 10 40 51 18 95
-56 110 -27 5 -33 2 -52 -29z"/>
<path d="M2767 1812 c-27 -29 -22 -103 7 -135 21 -22 31 -26 58 -21 45 9 50
15 56 72 4 45 2 50 -28 75 -37 31 -70 34 -93 9z"/>
<path d="M2977 1789 c-21 -12 -47 -61 -47 -89 0 -22 50 -50 89 -50 23 0 45 30
55 73 5 21 1 33 -18 52 -27 27 -50 31 -79 14z"/>
<path d="M2412 1687 c-25 -26 -29 -69 -8 -86 8 -7 28 -16 45 -21 26 -7 36 -5
61 17 35 29 38 52 11 75 -51 44 -79 47 -109 15z"/>
<path d="M2905 1642 c-6 -4 -21 -21 -33 -39 l-23 -32 -34 20 c-58 34 -115 3
-115 -62 0 -32 5 -41 30 -54 60 -31 120 -5 120 52 l0 26 23 -20 c57 -52 109
-58 132 -13 22 43 19 68 -14 101 -28 28 -64 37 -86 21z"/>
<path d="M2531 1544 c-48 -61 -13 -152 52 -139 67 14 89 88 42 139 -31 34 -67
34 -94 0z"/>
<path d="M2371 1434 c-33 -42 -22 -87 26 -105 34 -13 57 -4 71 27 21 44 15 72
-18 89 -41 21 -55 19 -79 -11z"/>
<path d="M2810 1418 c-11 -18 -20 -50 -20 -70 0 -34 4 -40 40 -58 52 -27 64
-25 94 11 43 51 31 96 -34 129 -52 26 -57 26 -80 -12z"/>
<path d="M2673 1415 c-56 -24 -60 -63 -14 -112 12 -13 26 -23 32 -23 63 0 101
122 44 144 -22 8 -24 8 -62 -9z"/>
<path d="M2510 1328 c-26 -44 -25 -52 11 -82 39 -33 44 -32 80 3 35 35 38 74
7 95 -38 27 -76 20 -98 -16z"/>
<path d="M2913 1253 c-26 -5 -63 -48 -63 -74 0 -19 45 -59 67 -59 26 0 66 34
80 69 14 33 14 36 -7 53 -22 18 -34 19 -77 11z"/>
<path d="M2721 1236 c-21 -26 -25 -83 -7 -111 9 -14 22 -25 30 -25 8 0 12 -8
9 -23 -3 -16 4 -34 22 -55 34 -40 77 -44 100 -8 31 47 -4 126 -57 126 -15 0
-16 4 -8 26 14 35 13 41 -10 64 -23 23 -62 26 -79 6z"/>
<path d="M2586 1171 c-26 -28 -24 -90 3 -113 46 -36 79 -17 88 50 5 34 2 42
-22 60 -34 27 -47 27 -69 3z"/>
<path d="M2646 999 c-37 -43 -38 -83 -4 -111 48 -41 94 -9 105 73 5 34 2 45
-12 56 -30 21 -61 15 -89 -18z"/>
</g>
</svg>
