<?xml version="1.0" standalone="no"?>
<!DOCTYPE svg PUBLIC "-//W3C//DTD SVG 20010904//EN"
 "http://www.w3.org/TR/2001/REC-SVG-20010904/DTD/svg10.dtd">
<svg version="1.0" xmlns="http://www.w3.org/2000/svg"
 width="700.000000pt" height="700.000000pt" viewBox="0 0 700.000000 700.000000"
 preserveAspectRatio="xMidYMid meet">
<metadata>
Created by potrace 1.11, written by Peter Selinger 2001-2013
</metadata>
<g transform="translate(0.000000,700.000000) scale(0.100000,-0.100000)"
fill="#000000" stroke="none">
<path d="M3290 6640 c0 -6 -37 -10 -90 -10 -49 0 -90 -4 -90 -8 0 -4 -31 -7
-70 -7 -45 1 -71 -3 -74 -10 -2 -7 -17 -11 -33 -10 -15 0 -37 -7 -47 -17 -11
-10 -32 -18 -48 -18 -15 0 -28 -4 -28 -8 0 -4 -39 -7 -87 -7 -94 2 -116 -2
-107 -16 3 -6 -6 -8 -20 -5 -14 3 -28 0 -31 -5 -4 -5 -17 -9 -31 -9 -13 0 -24
-4 -24 -10 0 -5 -10 -10 -21 -10 -12 0 -32 -11 -45 -25 -13 -14 -28 -25 -34
-25 -5 0 -10 -5 -10 -11 0 -5 -4 -8 -9 -5 -4 3 -21 -6 -37 -19 -16 -14 -35
-23 -41 -20 -7 2 -13 0 -13 -6 0 -6 -4 -8 -9 -5 -4 3 -21 -10 -37 -29 -16 -19
-34 -35 -40 -35 -6 0 -17 -7 -24 -15 -15 -18 -35 -20 -24 -3 9 14 -9 4 -58
-35 -21 -16 -38 -25 -38 -20 0 4 -4 3 -8 -3 -12 -20 -80 -44 -86 -31 -2 7 -5
5 -5 -4 -1 -11 -9 -16 -23 -15 -13 1 -32 -6 -44 -16 -11 -10 -35 -20 -53 -22
-18 -2 -37 -10 -42 -17 -7 -12 -9 -12 -9 0 0 11 -4 9 -15 -5 -8 -10 -15 -15
-15 -10 0 4 -13 -6 -29 -23 -16 -17 -33 -31 -38 -31 -5 0 -19 -11 -31 -25 -12
-14 -29 -25 -37 -25 -8 0 -15 -4 -15 -9 0 -5 -14 -14 -30 -20 -16 -5 -30 -15
-30 -20 0 -6 -9 -11 -20 -11 -11 0 -23 -7 -26 -15 -4 -8 -12 -15 -20 -15 -8 0
-14 -4 -14 -10 0 -5 -6 -10 -14 -10 -7 0 -27 -16 -43 -35 -17 -19 -34 -35 -39
-35 -13 -1 -54 -37 -54 -48 0 -5 -7 -13 -16 -16 -8 -3 -12 -10 -9 -16 3 -5 1
-10 -5 -10 -7 0 -10 -7 -6 -15 3 -8 2 -14 -2 -12 -4 1 -9 -2 -12 -8 -7 -17
-49 -55 -60 -55 -5 0 -10 -3 -10 -7 0 -5 -14 -17 -30 -28 -16 -11 -30 -25 -30
-31 0 -6 -9 -23 -20 -37 -13 -16 -19 -35 -16 -51 3 -15 1 -26 -4 -26 -5 0 -7
-9 -5 -20 3 -15 -3 -24 -20 -32 -14 -6 -25 -15 -25 -19 0 -5 -18 -27 -40 -49
-22 -22 -40 -45 -40 -51 0 -6 -4 -8 -9 -5 -5 3 -14 -1 -21 -9 -7 -8 -16 -12
-21 -9 -5 3 -9 2 -8 -3 3 -19 -2 -34 -9 -29 -5 3 -9 -1 -9 -9 0 -8 5 -11 11
-8 6 3 5 0 -1 -8 -7 -7 -13 -19 -13 -27 0 -8 -8 -22 -18 -31 -18 -17 -23 -29
-30 -78 -2 -18 -8 -30 -13 -27 -5 3 -9 -1 -9 -9 0 -8 -8 -29 -17 -48 -10 -19
-18 -47 -18 -64 0 -16 -5 -37 -10 -45 -5 -8 -10 -17 -10 -20 -3 -20 -18 -50
-26 -50 -5 0 -9 -9 -9 -20 0 -11 -5 -20 -11 -20 -5 0 -7 -5 -4 -10 3 -6 -1
-13 -10 -16 -9 -4 -14 -13 -11 -20 3 -8 1 -14 -4 -14 -6 0 -10 -11 -10 -24 0
-14 -4 -28 -10 -31 -5 -3 -10 -15 -10 -26 0 -10 -4 -19 -10 -19 -5 0 -7 -7 -4
-15 4 -8 -1 -17 -9 -21 -9 -3 -14 -11 -11 -19 3 -7 -2 -15 -11 -19 -9 -3 -14
-10 -10 -15 3 -5 1 -12 -5 -16 -5 -3 -10 -15 -10 -26 0 -10 -4 -19 -10 -19 -5
0 -10 -21 -10 -47 -1 -27 -7 -59 -15 -73 -8 -14 -15 -20 -15 -15 -1 20 -20
-20 -20 -42 0 -13 -4 -23 -10 -23 -6 0 -10 -27 -10 -60 0 -33 -4 -60 -10 -60
-5 0 -10 -20 -10 -44 0 -25 -5 -48 -10 -51 -6 -4 -8 -11 -5 -16 4 -5 -1 -9 -9
-9 -11 0 -14 -10 -12 -40 2 -22 -1 -43 -5 -46 -14 -8 -10 -36 9 -74 15 -30 19
-59 13 -103 -1 -5 -5 -6 -10 -3 -18 11 -41 -6 -41 -30 0 -13 -4 -24 -9 -24
-11 0 -9 -56 2 -66 4 -4 7 -29 7 -56 0 -30 4 -47 10 -43 6 4 10 -12 10 -39 0
-25 -4 -46 -10 -46 -5 0 -10 -18 -10 -40 0 -22 5 -40 10 -40 6 0 10 -9 10 -19
0 -29 11 -52 21 -45 5 3 9 2 8 -3 -1 -4 0 -10 1 -13 8 -22 4 -50 -9 -55 -13
-5 -13 -7 -1 -15 18 -11 21 -60 4 -67 -15 -5 -15 -45 0 -55 5 -3 11 -55 12
-115 1 -59 2 -108 4 -108 1 0 3 -8 5 -19 2 -10 8 -23 14 -29 6 -6 11 -19 11
-28 0 -10 4 -19 9 -21 5 -1 11 -30 12 -63 1 -33 5 -62 8 -65 13 -11 41 -82 41
-105 0 -13 5 -27 10 -30 6 -3 10 -15 10 -26 0 -11 4 -18 9 -15 5 4 8 -2 7 -11
-2 -10 2 -27 8 -38 7 -11 12 -29 11 -40 0 -11 6 -26 13 -34 7 -7 11 -20 8 -27
-3 -8 -1 -14 4 -14 6 0 10 -7 10 -15 0 -8 4 -15 8 -15 11 0 28 -40 27 -60 0
-8 3 -18 7 -21 10 -6 18 -38 25 -91 4 -26 11 -39 25 -44 11 -3 17 -8 14 -11
-3 -3 2 -12 10 -20 8 -9 13 -22 10 -30 -3 -8 -1 -11 4 -8 9 6 14 -14 11 -42
-1 -7 3 -13 9 -13 5 0 10 -11 10 -25 0 -14 4 -25 9 -25 5 0 11 -12 14 -28 8
-46 46 -136 62 -148 8 -6 12 -14 8 -17 -3 -4 1 -7 11 -7 9 0 15 -4 12 -9 -3
-4 6 -13 19 -19 14 -7 25 -17 25 -24 0 -7 9 -19 21 -26 11 -7 18 -19 15 -27
-3 -8 0 -18 7 -22 7 -5 20 -21 30 -36 10 -15 21 -25 26 -23 12 8 61 -43 61
-65 0 -11 4 -18 9 -15 5 3 14 -8 20 -26 6 -17 14 -29 17 -25 3 3 14 -3 25 -14
11 -11 25 -17 32 -13 9 5 9 4 0 -6 -9 -10 -5 -18 15 -36 43 -38 51 -44 57 -44
9 0 45 -40 45 -50 0 -14 37 -50 44 -43 5 6 10 -21 7 -39 0 -5 6 -8 14 -8 9 0
26 -11 39 -25 13 -13 26 -22 29 -18 4 3 7 1 7 -5 0 -7 7 -12 15 -12 8 0 14 -3
14 -8 -1 -4 0 -10 1 -14 1 -5 3 -11 5 -15 7 -28 19 -42 29 -36 7 5 7 2 -1 -8
-10 -12 -8 -15 8 -16 10 -1 26 -8 34 -15 34 -31 43 -36 49 -31 3 4 6 0 6 -7 0
-14 40 -54 64 -63 9 -4 16 -13 16 -21 0 -16 21 -26 56 -26 14 0 22 -4 19 -10
-4 -6 5 -10 19 -10 14 0 26 -4 26 -10 0 -5 6 -10 13 -10 7 0 20 -9 29 -19 9
-11 33 -23 52 -27 20 -3 33 -10 30 -15 -3 -5 2 -9 11 -9 9 0 19 -9 22 -21 4
-12 17 -22 34 -26 16 -3 26 -9 24 -13 -9 -14 108 -65 152 -66 24 -1 53 -8 66
-16 12 -9 43 -18 67 -22 25 -3 55 -7 66 -9 12 -1 28 -8 36 -15 8 -6 17 -9 21
-6 3 3 16 0 29 -7 12 -7 34 -14 48 -16 96 -10 131 -17 136 -24 3 -5 34 -9 68
-9 38 0 79 -7 102 -17 22 -9 57 -18 79 -20 63 -4 115 -14 121 -24 3 -5 25 -9
50 -9 24 0 44 -3 44 -8 0 -4 74 -7 165 -7 91 0 165 -3 165 -7 0 -10 47 -10 54
0 2 4 63 7 135 7 72 0 131 3 131 7 0 5 31 8 68 8 37 0 72 4 78 9 7 8 60 17
124 23 8 0 17 4 20 7 3 4 18 12 33 19 15 7 26 16 23 21 -3 4 29 9 72 11 42 1
83 3 90 3 6 0 12 4 12 8 0 4 9 6 20 4 11 -2 20 0 20 4 0 5 12 16 26 26 18 11
24 12 18 4 -6 -11 -5 -12 7 -3 8 6 28 10 46 9 18 -1 30 2 27 6 -3 5 7 9 21 9
14 0 24 4 21 9 -6 9 50 20 107 22 15 1 27 5 27 9 0 4 18 13 40 20 21 7 37 17
34 21 -3 5 15 9 40 9 25 0 46 5 46 10 0 6 15 10 34 10 31 0 117 29 89 30 -21
0 -15 20 6 20 24 0 103 44 94 53 -3 4 8 10 25 13 18 4 29 10 26 15 -3 5 9 9
25 9 17 0 31 4 31 9 0 5 14 12 30 16 19 4 30 13 30 23 0 13 2 14 9 4 7 -11 11
-11 24 2 8 9 21 16 27 16 6 0 8 5 5 10 -3 6 0 10 8 10 8 0 17 9 20 20 3 11 9
20 14 19 12 -3 47 13 55 25 5 7 8 6 8 -4 1 -8 5 -5 11 8 5 13 17 26 27 29 10
2 25 14 33 25 8 12 22 30 32 40 9 10 17 23 17 29 0 5 4 8 9 5 5 -4 11 -1 13 6
4 11 17 16 77 25 19 3 44 14 54 24 11 10 24 16 29 13 4 -3 8 4 8 15 0 14 6 21
20 21 11 0 19 3 19 8 -3 20 3 30 21 35 11 3 23 13 27 24 4 10 20 30 36 45 16
15 26 32 22 38 -3 5 1 10 10 10 21 0 43 22 38 37 -2 6 10 21 27 33 16 12 30
28 30 36 0 8 5 14 10 14 6 0 10 7 10 16 0 8 4 13 9 10 13 -8 42 4 35 15 -3 5
1 9 9 9 7 0 32 22 54 50 22 27 43 47 47 43 3 -3 6 3 6 15 0 11 5 24 10 27 6 4
8 11 5 16 -4 5 1 12 9 15 9 3 14 10 11 14 -3 5 8 17 25 26 16 10 36 32 44 49
8 16 24 40 35 52 12 12 21 29 21 37 0 8 10 27 23 43 34 43 47 70 47 98 0 14 4
25 9 25 11 0 32 56 24 64 -4 3 1 6 10 6 13 0 15 9 13 50 -2 27 0 47 5 44 5 -3
9 9 9 26 0 18 4 29 10 25 6 -3 10 1 10 9 0 9 8 25 18 35 31 35 37 46 37 61 -1
8 2 25 6 37 5 12 9 44 10 72 2 28 6 51 10 51 4 0 10 24 13 53 9 85 10 87 21
87 7 0 11 66 13 198 3 236 9 315 25 305 7 -3 9 -3 5 1 -4 5 -2 20 3 35 17 42
6 481 -12 481 -5 0 -9 11 -9 25 0 14 5 25 10 25 6 0 10 17 10 38 0 27 -3 33
-10 22 -7 -11 -10 -4 -10 27 0 23 -4 44 -8 47 -5 3 -8 40 -7 83 1 52 -3 82
-11 91 -7 7 -11 19 -8 26 3 8 1 17 -5 21 -6 3 -11 37 -11 76 0 38 -4 69 -8 69
-5 0 -10 26 -11 57 -1 32 -6 62 -10 68 -4 5 -7 30 -6 54 0 25 -4 45 -11 48 -6
2 -10 12 -7 21 2 10 0 29 -5 42 -5 14 -11 30 -12 35 -1 6 -13 23 -26 38 -24
28 -28 40 -25 65 1 6 -3 12 -9 12 -6 0 -8 5 -5 10 3 6 -1 13 -9 16 -9 3 -16
14 -16 23 0 14 -2 14 -10 1 -8 -13 -10 -13 -10 2 0 9 -4 18 -10 20 -5 2 -11
15 -12 31 -1 15 -8 27 -16 27 -7 0 -11 4 -8 9 3 5 -1 11 -9 15 -8 3 -15 15
-15 26 0 12 -4 19 -9 16 -7 -5 -12 21 -23 111 -1 7 -3 11 -6 8 -9 -8 -32 24
-32 45 0 12 -4 18 -10 15 -5 -3 -10 3 -10 14 0 18 -11 37 -45 75 -6 6 -11 18
-12 26 -2 32 -16 60 -30 60 -8 0 -12 4 -8 9 3 5 1 12 -5 16 -6 4 -8 9 -6 13 2
4 -8 16 -22 26 -15 12 -22 14 -17 5 4 -8 -8 3 -27 24 -20 20 -42 37 -49 37
-11 0 -11 2 1 10 13 9 13 10 0 10 -15 0 -46 39 -42 52 1 4 -10 11 -24 14 -16
4 -21 9 -14 14 8 5 6 10 -5 20 -8 7 -15 19 -15 26 0 8 -7 14 -16 14 -8 0 -12
5 -9 10 3 6 -1 10 -9 10 -9 0 -18 11 -22 25 -3 14 -10 25 -16 25 -5 0 -6 5 -3
10 3 6 1 10 -4 10 -6 0 -11 7 -11 16 0 8 -4 13 -9 9 -5 -3 -12 3 -16 14 -3 11
-13 22 -21 25 -8 3 -12 10 -9 16 3 5 -1 10 -9 10 -8 0 -21 14 -30 30 -8 17
-10 27 -4 24 7 -4 8 -2 4 4 -4 7 -15 12 -24 12 -10 0 -13 3 -6 8 6 4 4 13 -8
25 -10 9 -18 15 -18 12 0 -3 -6 0 -14 7 -8 7 -12 16 -9 21 2 4 -5 7 -17 7 -11
0 -37 18 -57 40 -21 22 -46 40 -56 40 -10 0 -15 5 -12 10 3 6 1 10 -5 10 -15
0 -41 26 -33 34 4 3 1 6 -5 6 -7 0 -12 7 -12 15 0 8 -5 15 -10 15 -6 0 -9 4
-8 9 2 5 -15 26 -37 47 -22 22 -39 42 -37 47 1 4 -2 7 -8 7 -5 0 -10 8 -10 18
0 14 -2 15 -10 2 -8 -13 -10 -13 -10 2 0 10 -10 20 -25 24 -14 3 -23 10 -20
14 3 4 -6 10 -18 14 -13 3 -29 17 -37 30 -7 14 -17 23 -22 20 -4 -3 -8 0 -8 5
0 6 -7 11 -15 11 -8 0 -15 4 -15 10 0 5 -11 12 -24 16 -14 3 -27 12 -30 21 -3
8 -10 12 -16 8 -12 -8 -51 13 -68 37 -7 10 -20 18 -28 18 -8 0 -14 5 -14 11 0
5 -4 8 -9 4 -5 -3 -12 -1 -16 5 -4 6 -11 8 -16 5 -5 -4 -9 -1 -9 5 0 7 -6 10
-13 7 -14 -5 -39 17 -30 27 5 5 -8 7 -32 6 -3 -1 -13 6 -21 15 -13 13 -27 17
-50 14 -3 0 -14 10 -25 23 -17 19 -22 20 -29 8 -6 -8 -10 -10 -10 -4 0 5 5 15
12 22 9 9 7 12 -9 12 -11 0 -24 -7 -27 -16 -3 -8 -2 -12 4 -9 6 3 10 2 10 -4
0 -5 -9 -9 -19 -8 -11 0 -17 5 -15 9 8 12 -11 9 -23 -3 -9 -9 -10 -7 -6 10 5
18 1 21 -30 21 -22 0 -37 6 -41 16 -3 8 -10 12 -16 9 -5 -3 -10 -2 -10 3 0 5
-21 10 -47 10 -146 4 -218 13 -238 31 -16 14 -37 17 -110 16 -59 -1 -97 4
-111 12 -11 7 -24 10 -27 6 -4 -3 -7 -1 -7 7 0 10 -3 10 -15 0 -11 -10 -18
-10 -29 -1 -10 8 -60 12 -153 11 -186 -1 -185 -1 -178 10 4 6 -33 10 -104 10
-78 0 -111 -4 -115 -12 -5 -10 -7 -10 -12 0 -7 14 -94 17 -94 2z m-20 -181 c0
-8 25 -5 62 7 11 3 18 2 15 -3 -3 -5 3 -9 13 -9 10 0 16 4 14 8 -3 4 -1 8 5 8
5 0 13 -5 16 -10 4 -7 13 -7 24 0 12 6 22 5 31 -3 10 -9 11 -9 6 1 -8 14 10
17 19 2 4 -7 13 -6 26 1 14 7 24 7 33 0 7 -6 16 -8 20 -4 10 11 37 12 30 2 -3
-5 7 -9 21 -9 18 0 24 -4 19 -12 -5 -8 -1 -8 10 1 14 12 19 12 25 2 6 -9 10
-8 13 6 7 25 55 24 93 -1 21 -14 27 -15 23 -4 -5 11 3 13 36 11 22 -2 48 -4
56 -5 8 -1 18 -5 21 -11 4 -5 38 -10 75 -10 44 0 74 -5 82 -14 8 -7 19 -10 25
-6 18 11 38 12 31 2 -3 -5 4 -9 15 -9 12 0 21 -5 21 -12 0 -9 3 -9 12 0 9 9
15 9 26 0 8 -7 16 -8 20 -2 11 15 62 15 62 0 0 -16 87 -16 98 -1 9 12 42 12
61 1 10 -7 12 -5 6 4 -5 9 -4 11 3 6 7 -4 12 -13 12 -20 0 -7 6 -13 13 -14 21
-2 42 -7 54 -15 6 -4 15 -2 19 4 5 8 3 9 -6 4 -8 -5 -11 -4 -6 3 4 6 13 9 21
6 8 -4 12 -10 9 -15 -3 -5 0 -9 5 -9 6 0 11 5 11 10 0 7 6 7 20 0 11 -6 20 -8
20 -5 0 3 12 -6 26 -20 14 -14 29 -23 34 -20 4 3 15 -6 24 -20 10 -15 23 -23
36 -20 11 2 26 -2 34 -10 10 -11 16 -11 26 -2 7 7 10 7 7 2 -3 -6 6 -15 19
-22 13 -6 22 -7 18 -2 -10 17 5 9 32 -16 17 -15 22 -25 13 -25 -9 0 -6 -5 6
-12 11 -7 26 -18 33 -25 7 -7 29 -20 48 -29 20 -10 38 -24 41 -32 3 -8 23 -31
44 -52 22 -21 39 -47 39 -57 0 -14 2 -15 9 -4 7 11 13 9 30 -8 11 -11 26 -21
31 -21 6 0 13 -7 16 -15 4 -8 10 -12 16 -9 5 3 12 -3 15 -15 3 -11 10 -18 15
-15 6 4 5 -4 -2 -16 -8 -15 -8 -20 -1 -16 6 4 11 2 11 -3 0 -6 8 -11 19 -11
19 0 81 -53 81 -71 0 -5 4 -8 9 -5 5 4 21 -8 35 -25 14 -17 26 -27 26 -22 1 4
9 -10 20 -32 11 -22 19 -36 20 -31 0 13 44 -45 46 -62 2 -8 8 -20 15 -26 9 -8
10 -7 4 4 -5 9 1 7 15 -5 13 -11 20 -14 15 -6 -5 10 -4 12 3 7 7 -4 12 -14 12
-22 0 -8 4 -12 10 -9 5 3 15 -3 22 -15 7 -11 18 -20 25 -20 7 0 13 -7 13 -15
0 -9 6 -12 15 -9 10 4 18 -3 25 -20 5 -14 12 -26 15 -26 4 0 3 5 0 10 -3 6 -4
10 -1 10 7 0 36 -61 36 -77 0 -7 7 -13 15 -13 8 0 14 -3 14 -7 -3 -21 3 -32
22 -38 11 -4 25 -17 31 -31 6 -13 14 -21 19 -19 9 6 6 -22 -4 -31 -4 -4 -7
-14 -7 -23 0 -14 2 -14 10 -1 6 9 10 10 10 3 0 -6 -5 -15 -10 -18 -6 -4 -4
-12 5 -21 8 -9 15 -22 15 -29 0 -8 10 -17 21 -20 13 -5 17 -10 11 -14 -8 -5
-5 -12 8 -21 11 -8 20 -20 20 -27 0 -7 15 -19 33 -28 18 -8 38 -24 45 -36 11
-17 11 -20 0 -13 -7 4 -4 -3 7 -15 11 -13 18 -24 15 -25 -2 0 2 -11 11 -23 9
-13 19 -20 22 -16 4 3 7 1 7 -6 0 -16 25 -41 40 -41 6 0 8 -4 5 -10 -3 -5 1
-10 9 -10 9 0 16 -7 16 -16 0 -9 -5 -13 -12 -9 -7 4 -2 -3 11 -14 12 -12 28
-18 34 -14 6 3 7 1 3 -5 -4 -7 -2 -12 4 -12 6 0 9 -4 6 -8 -3 -5 5 -14 17 -21
15 -8 23 -22 25 -48 1 -23 10 -42 22 -50 11 -8 20 -25 20 -38 0 -13 4 -26 8
-29 5 -3 8 -18 7 -33 -1 -15 3 -31 8 -34 5 -4 10 -18 10 -33 1 -14 5 -26 10
-26 4 0 7 -11 7 -24 0 -14 5 -28 10 -31 6 -3 10 -17 10 -31 0 -13 4 -24 8 -24
4 0 8 -11 8 -24 0 -14 -4 -22 -10 -19 -5 4 -6 -3 -2 -18 4 -13 8 -33 10 -44 1
-11 7 -29 13 -40 6 -11 9 -28 8 -37 -2 -10 1 -20 6 -24 5 -3 9 -25 9 -50 0
-24 5 -44 10 -44 6 0 10 -20 10 -44 0 -28 5 -46 14 -49 10 -4 12 -19 8 -56 -2
-28 0 -57 5 -63 5 -7 9 -24 8 -38 0 -14 4 -28 9 -32 11 -7 15 -108 4 -102 -5
3 -5 10 -2 16 4 7 2 8 -4 4 -8 -5 -8 -15 -2 -32 13 -33 13 -37 -2 -28 -10 6
-10 5 -1 -8 7 -8 10 -18 6 -21 -3 -4 -2 -7 4 -7 5 0 9 -12 8 -27 -1 -16 2 -36
7 -47 6 -11 6 -22 0 -28 -6 -6 -6 -20 2 -39 8 -24 8 -32 -3 -38 -9 -6 -10 -11
-2 -15 14 -9 15 -202 1 -211 -6 -4 -8 -21 -4 -41 4 -23 1 -42 -9 -57 -9 -15
-12 -29 -6 -45 5 -12 5 -22 0 -22 -4 0 -7 -20 -6 -45 1 -25 -2 -45 -6 -45 -5
0 -9 -33 -9 -73 0 -68 -15 -127 -32 -127 -5 0 -8 -8 -8 -18 0 -10 -3 -22 -7
-26 -5 -4 -9 -40 -9 -79 -2 -96 -2 -99 -15 -91 -8 4 -8 0 0 -15 7 -11 8 -21 2
-21 -5 0 -12 -17 -16 -37 -5 -27 -9 -33 -16 -22 -9 15 -12 -17 -9 -97 1 -23
-3 -45 -9 -49 -6 -3 -11 -1 -11 5 0 7 -7 5 -16 -4 -8 -9 -14 -24 -13 -33 3
-35 -1 -54 -11 -48 -5 3 -10 -1 -10 -10 0 -10 -5 -13 -12 -9 -6 4 -8 3 -5 -3
9 -15 -17 -73 -47 -105 -15 -15 -27 -38 -28 -52 -1 -13 -6 -22 -10 -20 -11 7
-38 -21 -38 -40 0 -20 -20 -57 -39 -72 -8 -6 -11 -16 -7 -22 4 -7 -8 -21 -29
-34 -19 -13 -38 -33 -41 -46 -4 -13 -18 -36 -33 -52 -75 -82 -85 -96 -83 -103
1 -5 -2 -6 -7 -3 -5 4 -11 2 -13 -3 -1 -5 -10 -11 -18 -13 -8 -2 -20 -19 -26
-38 -7 -19 -17 -34 -24 -32 -6 1 -8 -2 -5 -8 8 -13 -33 -52 -46 -45 -4 3 -6
-4 -4 -15 2 -11 1 -19 -3 -16 -4 2 -20 -13 -36 -35 -17 -21 -35 -39 -40 -39
-6 0 -4 -5 4 -10 13 -8 12 -10 -2 -10 -10 0 -18 -7 -18 -15 0 -18 -55 -73 -73
-72 -32 1 -48 -4 -42 -13 3 -5 -1 -10 -9 -10 -8 0 -19 -8 -25 -17 -5 -10 -12
-17 -15 -15 -3 1 -12 2 -18 2 -9 0 -8 -4 2 -10 13 -8 12 -10 -3 -10 -10 0 -31
-13 -46 -29 -17 -17 -45 -33 -66 -37 -26 -5 -33 -9 -23 -15 7 -5 8 -9 2 -9
-18 0 -64 -52 -57 -64 4 -6 -1 -5 -10 3 -11 9 -17 10 -17 2 0 -6 -8 -11 -17
-11 -15 0 -16 -2 -3 -10 8 -5 10 -10 4 -10 -6 0 -23 -11 -38 -25 -16 -15 -39
-25 -56 -25 -33 0 -73 -28 -63 -43 3 -6 1 -7 -5 -3 -7 4 -12 2 -12 -3 0 -6 -5
-11 -11 -11 -6 0 -17 -7 -25 -15 -10 -9 -34 -15 -65 -15 -38 0 -48 -3 -43 -12
5 -8 0 -7 -11 2 -10 8 -16 10 -12 4 4 -7 -3 -14 -18 -18 -14 -4 -25 -11 -25
-16 0 -5 -10 -14 -21 -21 -17 -9 -20 -8 -14 3 6 10 5 11 -6 1 -7 -7 -21 -13
-31 -13 -10 0 -18 -4 -18 -10 0 -5 -7 -10 -16 -10 -8 0 -13 -4 -10 -8 3 -5
-11 -14 -31 -21 -30 -11 -83 -51 -68 -51 3 0 0 -6 -6 -13 -8 -8 -36 -12 -78
-12 -41 0 -71 -4 -79 -12 -8 -7 -18 -11 -23 -8 -5 4 -9 1 -9 -4 0 -6 -11 -11
-25 -11 -14 0 -25 -4 -25 -10 0 -5 -19 -10 -41 -10 -28 0 -47 -6 -58 -18 -12
-13 -29 -18 -66 -17 -27 1 -54 -1 -60 -4 -17 -9 -39 -10 -50 -2 -9 6 -71 7
-77 1 -2 -1 -37 -3 -78 -4 -72 -2 -135 -21 -125 -37 3 -4 -5 -11 -17 -15 -35
-11 -98 -12 -98 -2 0 5 -17 9 -37 7 -70 -4 -114 1 -108 11 4 6 -5 10 -20 10
-15 0 -24 -4 -20 -10 3 -5 -3 -10 -14 -10 -12 0 -21 4 -21 9 0 4 -40 9 -90 10
-57 1 -90 -2 -90 -8 0 -14 -37 -14 -45 -1 -3 6 -46 10 -94 10 -48 0 -91 3 -95
8 -11 11 -60 9 -68 -3 -6 -7 -10 -6 -15 1 -5 6 -16 10 -26 8 -9 -1 -30 11 -46
27 -25 24 -37 29 -80 29 -28 0 -51 5 -51 10 0 6 -18 10 -41 10 -23 0 -53 8
-67 18 -15 10 -34 18 -42 17 -24 -2 -50 -16 -45 -25 12 -20 -57 -2 -71 18 -8
12 -24 22 -34 22 -10 0 -21 4 -24 9 -3 4 -20 11 -37 15 -18 3 -38 15 -46 26
-10 14 -26 20 -55 20 -28 0 -46 6 -58 20 -24 27 -57 37 -117 35 -49 -1 -53 1
-53 22 0 24 -26 43 -61 43 -12 0 -30 10 -40 22 -11 11 -19 18 -19 14 0 -4 -11
4 -24 18 -14 16 -34 26 -50 26 -29 0 -56 20 -56 42 -1 17 -25 49 -32 42 -3 -3
-9 7 -12 21 -4 14 -11 23 -16 20 -6 -3 -10 -1 -10 4 0 6 -8 11 -17 11 -15 0
-16 2 -3 10 12 8 10 10 -10 10 -14 0 -32 4 -40 10 -8 5 -19 5 -25 1 -6 -5 -27
9 -50 32 -22 22 -33 36 -25 32 8 -3 3 4 -12 18 -19 18 -23 28 -15 36 8 8 5 11
-11 11 -13 0 -22 6 -22 16 0 8 -4 12 -10 9 -5 -3 -10 -1 -10 5 0 6 -4 8 -10 5
-5 -3 -10 0 -10 8 0 8 -11 31 -25 51 -14 20 -25 43 -25 51 0 14 -13 20 -35 15
-5 -1 -7 1 -3 5 8 9 -14 35 -24 28 -5 -2 -8 3 -8 12 0 9 -5 13 -10 10 -5 -3
-10 1 -10 10 0 9 -3 14 -8 12 -4 -3 -13 1 -20 9 -7 8 -10 14 -6 14 4 0 -2 9
-14 20 -12 12 -22 25 -22 30 0 6 -6 9 -12 7 -7 -1 -12 4 -11 11 2 6 -4 12 -13
12 -20 0 -47 27 -39 40 3 5 1 10 -4 10 -6 0 -11 7 -11 15 0 8 -5 14 -11 12 -6
-1 -13 7 -15 18 -1 11 -8 21 -14 23 -5 2 -8 8 -4 13 3 5 -2 9 -11 9 -9 0 -14
4 -10 9 3 5 1 12 -5 16 -6 4 -8 11 -5 16 4 5 1 9 -4 9 -6 0 -11 6 -11 14 0 8
-7 16 -15 20 -8 3 -12 12 -9 19 3 8 -2 21 -10 30 -8 8 -12 17 -9 21 4 3 1 6
-6 6 -6 0 -11 6 -10 13 3 18 -11 46 -37 74 -13 14 -21 29 -18 34 3 5 -2 6 -10
3 -12 -4 -16 0 -16 16 0 14 -4 19 -12 14 -8 -5 -7 0 2 11 9 12 10 16 2 11 -8
-5 -18 5 -29 31 -9 21 -16 44 -16 51 0 7 -7 10 -15 7 -13 -5 -13 -3 -2 11 11
12 11 17 1 23 -7 5 -12 11 -12 15 2 20 -13 65 -20 60 -5 -3 -9 4 -9 14 0 11
-7 23 -16 26 -9 4 -14 9 -11 13 3 3 0 17 -7 32 -13 27 -11 61 4 61 5 0 8 9 7
19 0 11 -5 17 -9 15 -4 -3 -8 2 -8 10 0 9 -11 23 -25 32 -14 9 -25 25 -25 35
0 10 -8 23 -17 28 -13 7 -14 10 -4 11 9 0 7 6 -8 19 -19 17 -21 23 -11 42 7
12 8 19 3 16 -4 -3 -13 6 -20 19 -6 14 -7 26 -2 30 5 3 6 11 2 17 -4 7 -9 21
-10 32 -3 16 -1 17 7 5 5 -8 10 -10 10 -4 0 6 -6 17 -13 23 -9 7 -13 28 -12
55 1 25 -2 43 -6 41 -4 -3 -10 2 -13 11 -4 10 -2 13 7 8 9 -6 9 -5 0 8 -7 8
-9 19 -5 23 4 5 1 5 -5 1 -8 -4 -13 -2 -14 6 0 7 -2 23 -5 36 -3 16 0 21 8 17
7 -4 4 1 -6 9 -21 17 -29 66 -11 66 5 0 3 5 -5 10 -12 8 -13 13 -3 29 6 10 9
22 5 25 -9 10 -8 60 2 67 5 4 5 13 0 20 -10 17 -6 59 8 76 5 7 7 16 4 22 -3 5
1 12 10 15 10 4 13 13 9 27 -5 16 -4 19 5 14 10 -6 10 -3 2 11 -7 12 -7 26 0
43 16 42 20 94 7 85 -8 -4 -9 -3 -5 5 12 19 14 61 4 61 -5 0 -6 5 -3 10 3 6 2
10 -3 10 -6 0 -8 8 -5 19 3 10 0 22 -6 25 -5 4 -8 13 -5 21 4 8 11 12 16 9 6
-4 5 2 -1 14 -14 26 -14 35 0 26 8 -5 8 -1 0 14 -14 27 -14 35 1 26 7 -5 8 -3
3 6 -4 7 -2 16 6 21 11 6 11 11 2 20 -12 12 0 45 22 61 6 5 4 8 -5 8 -12 0
-13 2 -1 9 7 5 14 22 16 39 1 16 5 34 9 40 3 6 2 13 -4 17 -5 3 -10 11 -10 16
0 6 4 7 10 4 6 -4 7 2 1 18 -7 17 -6 29 2 37 9 10 9 11 -1 6 -10 -6 -10 -2 0
21 7 15 17 31 23 35 6 5 5 8 -4 8 -11 0 -11 3 0 17 8 9 9 14 3 10 -7 -4 -11 2
-11 18 0 14 5 25 11 25 6 0 4 5 -4 10 -13 9 -13 12 3 21 9 5 17 17 17 24 0 8
5 15 11 15 5 0 7 5 3 11 -10 16 -13 70 -4 64 12 -7 21 25 14 48 -4 13 -2 17 5
13 7 -5 9 -1 5 8 -4 9 -1 16 6 16 7 0 10 7 6 15 -3 8 -2 14 2 14 19 -3 23 2
12 16 -10 12 -9 16 4 21 9 3 13 10 10 15 -3 5 -2 15 3 22 4 6 8 24 8 38 0 15
7 35 15 45 13 16 13 17 0 9 -12 -7 -13 -6 -3 6 7 9 14 25 16 37 2 12 6 25 10
28 4 4 2 13 -4 21 -9 10 -6 13 12 13 17 0 20 3 10 9 -9 6 -10 11 -2 15 6 4 9
12 6 17 -4 5 -2 9 4 9 5 0 8 9 6 20 -2 13 2 20 11 20 8 0 14 8 14 18 0 14 2
15 10 2 5 -8 10 -10 10 -4 0 5 -6 16 -12 23 -7 8 -8 11 -3 8 6 -2 19 7 29 21
12 16 14 23 5 18 -8 -4 -5 0 5 8 11 9 15 16 10 16 -6 0 -11 7 -11 15 0 8 6 15
14 15 7 0 12 3 12 8 -4 21 2 43 10 38 5 -3 12 5 15 19 4 14 13 25 22 25 8 0
17 7 20 15 3 8 14 17 24 20 10 3 22 19 25 35 4 17 10 30 15 30 4 0 10 9 13 20
3 11 6 24 7 28 2 4 11 18 21 31 11 13 19 30 19 37 0 8 5 14 12 14 6 0 8 3 5 7
-4 3 -1 13 6 21 9 13 9 14 0 8 -17 -10 -16 2 1 19 7 8 17 11 21 7 4 -4 6 -2 5
3 -4 18 12 55 21 49 5 -3 9 1 9 9 0 19 34 49 45 40 4 -5 5 -3 1 4 -7 12 96
123 114 123 5 0 10 5 10 10 0 10 67 78 126 128 15 13 33 21 40 18 8 -3 11 0 7
10 -4 10 0 12 11 8 9 -3 16 -1 16 6 0 6 5 8 10 5 6 -3 10 1 10 9 0 9 4 16 8
16 4 0 16 15 27 33 24 41 53 67 77 67 10 0 18 4 18 8 0 5 11 15 25 22 14 7 25
18 25 23 0 13 52 57 67 57 6 0 14 6 16 13 4 9 8 8 16 -3 7 -10 11 -11 11 -2 0
6 7 12 16 12 8 0 13 4 10 9 -5 8 13 17 53 26 8 2 17 9 21 16 5 6 13 8 20 4 9
-5 11 -4 6 3 -4 7 -1 12 9 12 10 0 13 5 9 13 -4 6 -3 9 1 4 5 -4 19 0 33 9 15
10 21 11 17 3 -5 -7 4 -4 18 7 15 10 27 23 27 28 0 5 7 3 15 -4 12 -10 16 -9
21 4 3 9 10 13 15 10 5 -3 9 0 9 7 0 8 4 8 15 -1 10 -9 15 -9 15 -1 0 6 7 11
15 11 9 0 25 9 37 20 12 10 24 17 28 15 4 -3 13 9 20 25 7 16 17 28 24 27 6
-1 10 4 9 11 -3 11 10 16 30 13 4 -1 10 6 13 14 3 8 10 12 15 9 5 -3 9 0 9 6
0 7 7 9 16 6 10 -4 13 -2 8 6 -5 8 -2 9 9 5 23 -9 49 2 40 17 -4 6 -1 6 9 -2
13 -10 17 -10 21 1 3 9 16 12 36 9 17 -2 28 -8 25 -13 -3 -5 -1 -9 5 -9 5 0
11 4 13 9 2 5 12 11 23 13 11 1 23 8 27 13 5 7 8 6 8 -1 0 -9 25 -10 73 -5 4
1 7 9 8 19 0 14 2 14 9 -3 5 -11 9 -15 9 -8 1 7 8 10 16 7 9 -4 15 -1 15 7 0
10 3 9 13 -2 6 -8 11 -13 10 -11 -1 2 4 10 10 17 9 9 16 10 25 3 9 -8 11 -7 6
6 -4 9 -3 16 2 14 5 -1 20 4 34 12 27 14 142 24 119 9 -10 -6 -7 -8 8 -6 12 0
20 4 17 8 -2 4 6 11 18 15 13 4 27 12 31 18 6 8 10 7 14 -3 4 -11 7 -11 13 0
7 10 12 10 26 -2 11 -9 15 -9 10 -1 -4 6 -2 12 3 12 6 0 11 -5 11 -12 0 -7 7
-3 17 8 16 20 43 28 43 13z"/>
<path d="M3365 6349 c-33 -21 -95 -26 -95 -8 0 8 -6 7 -17 -2 -12 -10 -17 -11
-20 -2 -3 8 -10 7 -23 -4 -20 -18 -54 -27 -45 -13 10 16 -25 4 -57 -20 -18
-14 -36 -24 -40 -22 -5 1 -8 -2 -8 -6 0 -5 -16 -7 -37 -5 -20 1 -51 -5 -69
-13 -18 -9 -37 -13 -42 -10 -5 3 -24 -6 -42 -19 -34 -25 -80 -26 -121 -4 -9 4
-18 6 -20 4 -10 -9 -70 -15 -64 -6 7 13 -37 -10 -58 -29 -34 -31 -47 -40 -57
-40 -5 0 -10 6 -10 13 0 8 -3 9 -8 1 -4 -6 -19 -14 -34 -18 -16 -3 -28 -13
-28 -22 0 -8 -4 -12 -10 -9 -5 3 -10 1 -10 -6 0 -9 -3 -9 -14 0 -10 8 -16 9
-21 1 -4 -6 -14 -9 -23 -8 -10 2 -16 -3 -14 -11 3 -12 1 -12 -13 -1 -14 11
-16 11 -13 -1 4 -19 -84 -62 -94 -46 -5 7 -8 8 -8 2 0 -6 -9 -11 -20 -12 -13
-1 -18 3 -15 10 3 7 -2 2 -11 -10 -9 -13 -23 -23 -31 -23 -8 0 -11 -4 -8 -10
3 -5 1 -10 -4 -10 -21 0 -26 -2 -40 -13 -12 -10 -13 -9 -7 3 5 8 -5 2 -21 -15
-16 -16 -28 -33 -26 -37 2 -5 -3 -8 -11 -8 -9 0 -16 -4 -16 -9 0 -5 -10 -13
-22 -17 -12 -3 -30 -16 -41 -28 -10 -11 -15 -14 -11 -6 6 12 4 13 -7 3 -7 -7
-22 -13 -34 -13 -16 0 -17 -2 -5 -10 9 -6 10 -10 3 -10 -6 0 -15 5 -18 11 -9
13 -45 -23 -45 -44 0 -22 -27 -41 -33 -25 -4 9 -6 9 -6 1 -1 -7 -11 -10 -25
-7 -14 2 -28 0 -31 -6 -4 -6 -11 -8 -16 -4 -5 3 -8 0 -7 -8 2 -7 -3 -12 -9
-10 -7 1 -13 -3 -13 -9 0 -5 -5 -7 -10 -4 -6 3 -10 1 -10 -4 0 -6 -7 -11 -15
-11 -8 0 -15 -4 -15 -10 0 -5 -9 -10 -20 -10 -11 0 -20 -5 -20 -10 0 -6 -11
-16 -25 -22 -14 -6 -25 -17 -25 -25 0 -7 -7 -13 -15 -13 -8 0 -15 -4 -15 -10
0 -5 -9 -10 -20 -10 -11 0 -19 -3 -19 -7 3 -21 -2 -33 -13 -27 -6 4 -8 3 -4
-4 3 -6 -1 -17 -9 -25 -8 -9 -15 -23 -15 -31 0 -9 -7 -16 -16 -16 -18 0 -70
-50 -66 -63 1 -5 -1 -6 -5 -4 -9 6 -39 -13 -42 -25 -5 -23 -16 -44 -25 -50 -7
-5 -7 -8 2 -8 10 0 10 -3 0 -14 -7 -8 -16 -12 -21 -9 -4 2 -7 1 -6 -4 4 -21
-2 -44 -9 -39 -5 3 -9 0 -10 -7 -7 -54 -15 -78 -23 -66 -7 11 -9 9 -9 -6 0
-11 -7 -30 -15 -41 -8 -12 -11 -24 -8 -28 3 -3 1 -6 -6 -6 -7 0 -9 -4 -6 -10
3 -5 -1 -10 -10 -10 -9 0 -14 -4 -10 -9 3 -5 1 -12 -5 -16 -6 -4 -8 -11 -5
-16 4 -5 0 -12 -8 -15 -8 -3 -14 -13 -12 -22 1 -9 -1 -21 -5 -27 -5 -5 -9 -13
-9 -17 -1 -5 -1 -9 -2 -10 -1 -2 -2 -14 -3 -28 -3 -36 -16 -70 -27 -70 -5 0
-9 -7 -9 -16 0 -8 -4 -13 -8 -10 -4 2 -9 -4 -9 -15 -2 -22 -27 -51 -37 -42 -3
4 -6 -1 -6 -10 0 -9 -7 -17 -15 -17 -8 0 -15 -7 -15 -15 0 -8 -4 -15 -9 -15
-11 0 -25 -36 -26 -67 0 -12 -8 -30 -18 -41 -9 -10 -17 -24 -17 -30 0 -7 -4
-12 -10 -12 -5 0 -10 -8 -10 -17 0 -15 2 -16 10 -3 7 12 9 10 7 -7 0 -12 -5
-19 -9 -17 -4 3 -8 -9 -8 -26 0 -20 -4 -29 -11 -24 -7 4 -7 -1 1 -16 8 -15 8
-20 1 -16 -6 4 -11 1 -11 -7 0 -8 -16 -30 -35 -50 -21 -22 -35 -46 -35 -62 0
-14 -5 -25 -11 -25 -6 0 -8 -8 -4 -19 3 -10 -1 -23 -8 -30 -9 -7 -13 -29 -12
-64 1 -28 -3 -61 -9 -72 -15 -30 -15 -97 1 -113 12 -12 12 -17 0 -31 -17 -19
-16 -94 2 -115 9 -11 6 -20 -19 -44 -27 -27 -30 -37 -30 -91 0 -34 -4 -61 -9
-61 -6 0 -9 -21 -7 -46 2 -30 -2 -48 -10 -51 -16 -6 -10 -55 11 -87 9 -13 12
-27 7 -30 -5 -3 -7 -20 -4 -38 2 -18 7 -112 9 -208 2 -96 8 -179 14 -185 12
-12 12 -45 -1 -45 -14 0 -12 -59 3 -75 6 -8 18 -22 26 -31 9 -10 14 -44 15
-97 1 -64 5 -86 19 -99 9 -10 17 -31 17 -48 0 -16 5 -30 10 -30 6 0 10 -15 10
-32 1 -33 22 -73 33 -62 3 3 4 -2 3 -13 -4 -22 9 -48 38 -79 11 -13 27 -30 34
-39 7 -8 17 -13 23 -10 10 7 12 -8 2 -19 -19 -19 -7 -71 24 -104 12 -13 38
-90 35 -104 -1 -5 3 -8 8 -8 6 0 10 -10 10 -22 0 -19 2 -20 10 -8 8 12 10 11
10 -7 0 -12 -6 -24 -12 -26 -10 -4 -10 -6 0 -6 6 -1 12 -8 12 -17 0 -8 3 -13
8 -11 9 6 33 -19 25 -27 -4 -3 2 -6 11 -6 12 0 16 -5 12 -16 -3 -8 -2 -12 4
-9 6 3 10 0 10 -9 0 -8 6 -17 13 -19 9 -4 8 -6 -2 -6 -10 -1 -8 -6 6 -18 11
-10 28 -34 38 -53 10 -19 21 -37 26 -40 4 -3 9 -22 11 -42 1 -20 5 -35 9 -32
5 2 11 -12 15 -33 7 -38 27 -67 38 -56 3 4 6 -1 6 -11 0 -9 5 -14 10 -11 6 3
10 1 10 -4 0 -6 6 -11 14 -11 8 0 24 -13 37 -29 13 -16 26 -28 30 -25 4 2 19
-15 34 -37 15 -23 21 -38 13 -34 -10 6 -11 5 0 -6 14 -16 16 -33 2 -24 -6 3
-7 -1 -4 -9 3 -9 10 -16 16 -16 5 0 6 -4 3 -10 -3 -5 3 -10 14 -10 12 0 21 -4
21 -10 0 -5 4 -9 8 -7 10 3 72 -60 65 -66 -2 -3 5 -8 16 -12 11 -3 23 -15 26
-26 4 -11 11 -16 18 -12 8 4 7 1 -1 -9 -9 -11 -9 -17 -2 -20 6 -2 12 -13 13
-25 0 -12 5 -19 9 -17 7 4 12 -17 10 -37 -1 -4 13 -9 29 -13 19 -4 33 -13 36
-26 3 -11 11 -20 17 -20 6 0 18 -9 26 -19 7 -11 17 -18 21 -15 4 2 15 -6 23
-18 10 -14 28 -22 53 -24 63 -5 97 -16 118 -38 11 -11 20 -23 20 -26 0 -3 10
-16 23 -30 12 -13 22 -28 22 -32 0 -5 5 -6 11 -3 6 4 13 -2 16 -13 3 -11 12
-19 21 -17 10 1 23 -6 30 -16 8 -11 25 -19 43 -19 17 0 28 -4 24 -10 -3 -5 0
-7 8 -4 8 3 21 -2 30 -10 9 -9 23 -13 31 -10 9 3 16 1 16 -5 0 -6 11 -11 25
-11 14 0 25 -4 25 -10 0 -5 13 -10 29 -10 17 0 33 -4 36 -10 3 -5 15 -10 26
-10 10 0 19 -3 19 -7 0 -5 16 -9 37 -10 20 -1 39 -6 42 -11 8 -12 94 -10 103
3 4 5 13 10 20 10 17 1 49 -35 42 -46 -3 -5 6 -9 20 -9 14 0 26 -4 26 -8 0 -4
25 -7 56 -7 38 1 58 -3 61 -12 3 -9 17 -12 40 -9 26 2 37 -1 46 -15 10 -16 24
-19 89 -19 45 0 78 -4 78 -10 0 -15 117 -13 124 3 5 9 7 9 12 0 3 -7 23 -13
44 -13 22 0 40 5 43 13 4 9 7 9 18 -1 9 -8 58 -12 172 -12 87 0 156 -4 153 -8
-3 -5 17 -8 45 -8 27 0 49 4 49 8 0 5 14 8 30 8 17 0 30 5 30 10 0 6 23 10 50
10 28 0 50 5 50 10 0 6 12 10 26 10 14 0 23 -4 19 -10 -3 -6 3 -10 14 -10 11
0 23 5 26 10 3 6 17 10 31 10 13 0 24 5 24 12 0 9 3 9 12 0 18 -18 78 -15 78
4 0 8 4 13 9 10 5 -3 11 1 15 9 3 8 12 15 21 15 8 0 15 5 15 10 0 6 5 10 11
10 5 0 7 -4 4 -10 -3 -5 3 -10 14 -10 12 0 21 4 21 9 0 5 17 11 38 14 56 8 73
12 80 23 4 6 24 10 45 9 21 -1 41 3 44 8 3 5 9 3 14 -4 6 -10 9 -11 9 -1 0 6
7 12 15 12 8 0 15 5 15 10 0 6 14 10 30 10 17 0 30 4 30 9 0 5 16 12 35 15 21
4 35 13 35 21 0 9 6 12 17 8 11 -4 14 -3 9 5 -5 8 1 12 15 12 12 0 19 3 16 7
-4 3 3 11 16 17 12 7 22 16 22 21 0 6 4 16 9 24 7 10 5 12 -5 6 -8 -4 2 9 21
30 19 21 30 35 24 32 -7 -4 -14 -1 -16 6 -9 23 4 37 33 37 18 0 28 -4 24 -10
-4 -6 10 -10 35 -10 25 0 39 4 35 10 -3 6 3 10 14 10 12 0 21 -4 21 -10 0 -5
23 -10 50 -10 28 0 50 5 50 10 0 6 9 10 21 10 11 0 18 4 15 9 -3 4 6 13 20 20
14 6 23 15 20 20 -3 5 1 12 10 15 8 3 12 11 9 16 -4 6 -3 9 2 8 4 -2 22 12 39
29 17 18 34 29 38 25 4 -4 6 -2 4 4 -3 11 69 84 84 84 9 0 78 66 78 75 0 3 7
13 15 21 8 8 11 22 8 31 -4 11 -3 14 5 9 7 -4 12 -2 12 3 0 6 3 10 8 10 4 -1
10 0 15 1 4 1 11 3 15 4 11 1 36 27 50 51 6 11 12 15 12 8 0 -7 7 -10 15 -7 8
4 13 10 10 14 -3 5 4 11 15 15 11 3 20 11 20 16 0 6 5 7 10 4 6 -4 9 -2 8 2
-4 13 54 78 82 93 15 8 20 8 16 1 -11 -17 -2 -13 24 9 13 11 19 20 14 20 -5 0
2 7 14 16 12 8 22 22 22 30 0 8 3 13 8 11 9 -5 42 30 34 37 -3 3 0 6 7 6 8 0
11 7 7 15 -3 9 1 18 9 21 8 4 15 12 15 20 0 7 8 19 19 26 10 7 19 15 19 18 3
20 19 47 34 58 10 7 18 19 18 26 0 6 15 29 34 49 18 20 32 37 29 37 -2 0 2 6
9 14 7 8 16 12 21 9 4 -2 7 5 7 16 0 11 9 22 20 26 11 4 18 10 15 15 -3 4 2
13 11 20 8 7 13 19 10 27 -3 7 -2 13 3 13 4 0 9 37 10 83 2 79 3 83 37 116 35
34 39 43 27 55 -13 13 -9 46 6 51 19 6 41 50 41 82 0 13 5 23 11 23 5 0 8 4 5
9 -3 5 0 14 7 20 9 7 13 34 12 81 -1 38 2 70 7 70 4 0 8 23 8 50 0 28 5 50 10
50 6 0 10 33 10 78 0 43 3 82 7 86 11 10 12 36 2 36 -5 0 -9 52 -9 115 0 63 3
115 8 115 4 0 7 53 6 118 0 64 4 126 10 137 16 31 17 53 3 67 -15 16 -16 49
-2 64 15 15 12 203 -3 232 -7 12 -10 22 -8 22 3 0 -5 19 -18 43 -17 31 -22 53
-18 85 2 24 0 42 -6 42 -5 0 -9 21 -7 48 1 26 -1 49 -6 52 -5 3 -10 15 -12 25
-2 11 -9 31 -14 45 -6 14 -8 29 -5 34 3 5 0 6 -6 2 -8 -5 -12 0 -12 13 0 12
-8 29 -17 40 -32 34 -53 65 -53 78 0 7 -4 13 -10 13 -5 0 -10 15 -10 34 0 19
-6 41 -13 48 -26 25 -47 76 -28 64 12 -8 8 13 -7 42 -7 12 -9 22 -5 22 4 0 2
5 -5 12 -7 7 -12 23 -12 36 0 13 -4 21 -9 18 -8 -6 -21 14 -27 41 -1 7 -18 28
-38 46 -20 19 -33 37 -31 41 3 3 2 4 -2 1 -14 -11 -53 39 -53 67 0 15 -4 28
-10 28 -5 0 -10 10 -10 23 0 12 -9 29 -20 37 -11 8 -20 21 -20 28 0 8 -15 29
-32 48 -18 19 -33 40 -33 47 -1 7 -6 11 -13 10 -6 -2 -9 3 -6 10 2 7 -5 23
-16 35 -12 12 -23 32 -25 43 -9 46 -18 61 -41 69 -13 5 -24 17 -24 25 0 9 -4
13 -10 10 -5 -3 -10 -1 -10 5 0 7 -11 21 -25 32 -14 11 -25 26 -25 34 0 8 -4
13 -9 9 -5 -3 -12 4 -16 15 -3 11 -11 20 -17 20 -6 0 -9 3 -5 6 5 6 -11 30
-49 70 -12 13 -19 26 -16 29 4 3 0 3 -9 0 -16 -6 -69 33 -69 52 0 7 -9 18 -19
25 -11 8 -25 26 -32 41 -7 15 -18 27 -26 27 -7 0 -12 3 -12 8 3 17 -1 35 -7
29 -3 -3 -17 5 -31 19 -13 13 -31 24 -39 24 -8 0 -19 11 -24 25 -5 14 -16 28
-25 31 -8 3 -12 10 -9 15 3 5 0 9 -5 9 -6 0 -11 -5 -11 -11 0 -6 -7 -4 -15 5
-8 8 -15 21 -15 29 0 8 -7 18 -16 21 -8 3 -12 11 -9 16 4 6 1 9 -7 8 -7 -2
-12 3 -10 10 1 6 -1 11 -5 11 -24 -4 -43 2 -38 12 4 6 0 9 -8 7 -9 -2 -16 1
-15 6 0 5 -7 13 -16 18 -9 5 -14 13 -11 19 4 5 2 9 -3 9 -4 0 -18 9 -30 20
-14 13 -22 16 -22 8 0 -10 -2 -10 -9 0 -5 8 -20 15 -35 15 -14 1 -25 6 -23 12
5 15 -22 38 -49 41 -14 1 -34 12 -44 24 -10 12 -21 21 -24 21 -27 -3 -36 0
-30 12 5 7 0 6 -11 -3 -11 -9 -16 -10 -11 -2 4 7 2 12 -5 12 -7 0 -24 10 -37
23 -14 12 -21 15 -17 7 6 -11 3 -10 -12 3 -11 9 -22 15 -25 12 -3 -3 -11 1
-18 10 -7 8 -21 15 -31 15 -10 0 -21 5 -24 10 -5 8 -12 7 -23 -2 -12 -10 -14
-10 -8 0 4 6 2 12 -3 12 -6 0 -11 -4 -11 -10 0 -16 -46 -12 -60 5 -7 9 -15 13
-18 10 -3 -3 -11 0 -18 6 -8 7 -14 7 -19 -1 -4 -7 -12 -7 -26 0 -14 8 -19 7
-19 -1 0 -8 -4 -9 -13 0 -8 6 -17 8 -20 4 -4 -3 -7 -1 -7 6 0 7 -4 9 -10 6 -5
-3 -10 -2 -10 4 0 5 -13 8 -30 6 -16 -2 -30 0 -30 5 0 6 -9 10 -21 10 -13 0
-18 4 -13 12 4 6 -2 5 -14 -4 -22 -15 -86 -13 -76 3 3 5 0 9 -5 9 -6 0 -11 -4
-11 -10 0 -5 -5 -10 -11 -10 -5 0 -8 4 -5 9 7 10 -20 9 -30 -2 -4 -4 -12 -3
-18 1 -21 16 -67 32 -61 22 10 -17 -6 -11 -24 8 -17 18 -71 30 -71 14 0 -14
-48 -33 -55 -21 -4 5 -11 7 -16 4 -5 -4 -9 0 -9 8 0 18 -41 17 -56 -2 -7 -8
-16 -11 -24 -6 -9 5 -11 4 -6 -3 4 -7 3 -12 -3 -12 -5 0 -13 5 -16 10 -4 6
-13 7 -23 1 -21 -11 -31 -11 -60 0 -17 7 -21 6 -16 -3 5 -8 2 -9 -9 -5 -10 4
-24 10 -34 14 -10 4 -14 2 -10 -4 10 -15 -36 -10 -53 7 -21 21 -41 21 -75 -1z
m56 -199 c6 0 8 3 5 8 -6 9 63 8 86 -3 10 -4 15 -12 11 -18 -4 -6 -1 -7 7 -2
19 12 111 14 131 4 10 -5 21 -3 28 4 9 9 14 9 20 -1 5 -8 11 -13 15 -13 20 3
26 0 20 -11 -5 -8 -1 -8 10 1 15 13 19 13 27 0 5 -8 9 -9 9 -4 0 6 9 11 20 12
13 1 18 -2 13 -10 -4 -7 0 -6 10 2 14 11 17 11 17 0 0 -9 3 -10 8 -4 10 14 32
17 32 4 0 -5 5 -7 10 -4 6 4 7 12 3 18 -5 8 -2 8 9 0 8 -7 18 -10 21 -6 4 3
14 0 24 -8 11 -9 14 -10 9 -1 -4 6 -3 12 1 12 5 0 15 -6 22 -12 11 -10 13 -10
7 0 -4 6 -3 12 1 12 5 0 15 -6 22 -12 11 -11 12 -10 6 1 -6 11 -2 10 16 -2 26
-19 43 -22 34 -7 -4 6 2 7 17 1 15 -6 31 -5 42 1 14 8 17 7 12 -1 -5 -8 2 -10
25 -6 18 3 36 8 41 11 4 3 14 2 21 -3 14 -9 18 -10 50 -12 18 -1 19 -3 7 -11
-12 -7 -10 -9 7 -7 12 0 19 5 17 9 -7 11 28 10 46 -1 8 -6 19 -7 25 -3 5 3 19
8 30 9 14 2 16 0 7 -5 -9 -6 -6 -12 13 -20 15 -7 24 -8 21 -4 -3 5 1 9 9 9 8
0 13 -3 11 -6 -1 -3 5 -14 16 -23 12 -12 18 -14 18 -5 1 7 6 5 14 -5 7 -10 16
-15 19 -11 4 3 7 2 7 -4 0 -6 19 -9 45 -8 47 3 72 -11 94 -53 7 -12 16 -20 22
-17 5 4 12 -1 15 -9 3 -9 13 -16 21 -16 8 0 36 -20 61 -45 25 -25 53 -45 61
-45 9 0 26 -7 38 -15 16 -12 22 -12 26 -2 3 7 6 5 6 -5 1 -9 6 -20 13 -24 7
-4 8 -3 4 4 -4 7 -2 12 3 12 6 0 11 -7 11 -16 0 -9 5 -14 12 -12 14 5 68 -50
68 -69 0 -8 5 -11 10 -8 6 3 10 1 10 -5 0 -6 14 -25 30 -43 17 -18 28 -38 24
-47 -3 -8 -2 -11 2 -7 9 9 55 -44 48 -55 -3 -5 -2 -7 3 -6 4 2 19 -5 33 -15
13 -9 20 -17 15 -17 -6 0 5 -8 23 -17 18 -8 31 -18 28 -20 -2 -3 11 -20 31
-39 19 -19 31 -34 26 -34 -4 0 -3 -4 4 -8 6 -4 13 -16 15 -27 4 -24 20 -45 31
-38 4 2 7 -3 7 -12 0 -9 5 -13 10 -10 9 6 14 -8 11 -27 0 -5 6 -8 15 -8 8 0
12 -4 9 -10 -3 -5 -1 -10 5 -10 6 0 8 -4 5 -10 -3 -5 -1 -10 4 -10 6 0 11 -7
11 -15 0 -8 9 -15 20 -15 11 0 20 -4 20 -10 0 -5 8 -10 18 -10 31 0 86 -62 97
-109 4 -20 11 -29 18 -25 8 5 8 2 0 -6 -10 -11 -9 -18 7 -35 11 -12 23 -33 25
-46 3 -13 19 -36 36 -51 18 -16 25 -28 18 -28 -8 0 -10 -3 -4 -8 18 -13 36
-53 29 -64 -5 -7 -3 -8 6 -3 8 5 11 3 8 -6 -5 -14 5 -29 36 -57 10 -9 29 -27
41 -39 13 -12 26 -19 29 -16 5 5 8 -21 5 -43 0 -4 5 -11 13 -15 10 -7 10 -9
-2 -9 -12 0 -12 -2 -2 -9 7 -4 14 -18 15 -29 1 -12 5 -22 9 -22 4 0 8 -11 8
-25 0 -14 5 -25 11 -25 5 0 7 -4 4 -10 -3 -5 -1 -10 5 -10 6 0 17 -14 24 -31
7 -17 17 -30 22 -30 5 1 9 -19 9 -44 0 -25 4 -45 8 -45 5 0 5 -5 1 -12 -4 -6
-3 -8 3 -5 15 9 53 -22 53 -43 0 -10 7 -26 16 -34 12 -12 12 -16 2 -16 -8 0
-9 -3 -3 -8 16 -11 19 -45 3 -37 -7 3 -4 -1 6 -9 11 -9 16 -16 11 -16 -5 0 -4
-5 2 -11 6 -6 9 -18 6 -27 -5 -11 -2 -13 8 -8 8 4 6 1 -3 -7 -10 -8 -16 -16
-14 -18 2 -2 6 -17 10 -32 5 -22 4 -27 -6 -21 -10 5 -11 4 0 -7 6 -7 12 -17
12 -22 0 -4 -6 -5 -12 -1 -10 6 -10 4 0 -7 6 -7 12 -17 12 -22 0 -4 -6 -5 -12
-2 -7 4 -5 0 4 -8 20 -16 31 -97 14 -97 -6 0 -4 -5 4 -10 12 -8 13 -13 3 -29
-6 -10 -9 -22 -6 -25 11 -11 9 -56 -2 -56 -6 0 -7 -3 0 -8 6 -4 10 -16 9 -27
0 -11 7 -29 15 -39 12 -15 13 -17 2 -11 -9 5 -7 -2 5 -17 10 -14 22 -24 25
-22 17 10 17 -31 0 -62 -19 -35 -18 -55 2 -82 8 -10 7 -16 -4 -23 -8 -5 -9 -9
-4 -9 6 0 5 -4 -2 -8 -16 -10 -1 -68 17 -64 11 2 10 0 0 -13 -18 -21 -22 -45
-8 -45 6 0 8 -9 5 -20 -3 -10 0 -21 6 -23 7 -2 5 -14 -6 -35 -8 -18 -11 -30
-6 -27 11 7 7 -22 -7 -50 -12 -24 -11 -45 0 -64 6 -9 5 -12 -1 -8 -6 4 -10
-12 -9 -41 1 -29 -3 -46 -10 -45 -6 1 -11 -4 -11 -12 0 -8 3 -12 7 -10 4 2 7
-2 7 -10 0 -8 -4 -12 -9 -9 -4 3 -8 -4 -8 -16 0 -13 -4 -18 -11 -15 -6 4 -5
-2 3 -14 7 -12 16 -21 20 -21 5 0 8 -5 8 -11 0 -5 -4 -8 -9 -4 -9 5 -9 -12 0
-40 6 -17 -32 -65 -45 -58 -6 4 -5 -1 3 -10 9 -12 10 -17 2 -17 -7 0 -10 -4
-6 -9 3 -5 1 -12 -5 -16 -5 -3 -10 -13 -10 -21 0 -8 4 -13 9 -9 6 3 9 -4 8
-15 -1 -11 -6 -20 -12 -20 -11 0 -15 -12 -16 -52 0 -10 -8 -18 -17 -18 -15 0
-15 -2 -2 -10 8 -5 10 -10 4 -10 -11 0 -12 -6 -15 -55 -1 -13 -5 -23 -9 -20
-4 2 -6 -7 -4 -20 1 -14 -2 -25 -8 -25 -6 0 -4 -7 3 -17 9 -10 9 -14 2 -10 -7
5 -16 -1 -22 -12 -14 -26 -14 -34 1 -25 13 8 3 -11 -21 -40 -9 -11 -11 -17 -5
-13 6 3 11 0 11 -8 0 -8 -5 -13 -11 -12 -6 1 -10 -6 -10 -15 1 -10 -2 -18 -8
-18 -5 0 -6 -5 -3 -11 4 -5 -3 -18 -14 -29 -21 -17 -24 -39 -8 -51 12 -9 19
-62 7 -54 -6 3 -7 0 -4 -9 4 -12 0 -16 -16 -16 -11 0 -18 -4 -15 -10 3 -5 -1
-10 -9 -10 -15 0 -21 -12 -17 -33 1 -4 -19 -22 -44 -39 -25 -18 -45 -37 -45
-44 0 -6 -11 -15 -25 -18 -14 -4 -25 -11 -25 -16 0 -6 -10 -10 -22 -10 -19 0
-20 -2 -8 -10 13 -8 12 -10 -4 -10 -11 0 -16 -3 -13 -6 3 -4 1 -16 -5 -27 -6
-12 -12 -38 -12 -60 -2 -38 -21 -61 -40 -50 -5 3 -6 1 -2 -5 4 -7 2 -12 -3
-12 -6 0 -11 -7 -11 -15 0 -9 -11 -20 -25 -27 -13 -6 -22 -15 -18 -21 3 -6 1
-7 -5 -3 -6 3 -13 2 -17 -4 -4 -6 -10 -8 -14 -6 -10 6 -51 -31 -51 -45 0 -6
-4 -7 -10 -4 -5 3 -10 1 -10 -4 0 -6 -3 -10 -7 -10 -20 3 -34 -2 -29 -10 4 -5
-7 -15 -24 -23 -16 -7 -30 -17 -30 -21 0 -5 -4 -6 -9 -2 -6 3 -8 -4 -6 -15 2
-11 0 -20 -4 -20 -5 0 -14 -13 -21 -30 -7 -16 -16 -27 -21 -24 -5 3 -9 0 -9
-5 0 -6 -7 -11 -16 -11 -8 0 -12 -4 -9 -10 4 -6 -5 -10 -19 -10 -14 0 -26 -5
-26 -11 0 -6 -5 -7 -12 -2 -7 4 -20 8 -28 10 -16 2 -50 -30 -50 -48 0 -7 -3
-9 -6 -6 -16 15 -43 -15 -46 -51 -2 -30 -7 -36 -22 -34 -12 2 -15 -1 -11 -8 6
-9 2 -9 -13 -1 -25 14 -43 14 -22 1 13 -8 12 -10 -2 -10 -10 0 -18 -5 -18 -11
0 -5 -4 -7 -10 -4 -5 3 -10 -1 -10 -9 0 -21 -18 -30 -34 -17 -7 6 -16 8 -19 4
-4 -3 -7 -1 -7 6 0 8 -5 7 -16 -3 -8 -9 -21 -16 -28 -16 -8 0 -19 -7 -26 -15
-7 -8 -17 -12 -24 -8 -6 3 -8 3 -4 -2 4 -4 3 -16 -3 -27 -8 -15 -17 -18 -36
-13 -14 3 -22 2 -19 -4 3 -5 -1 -11 -9 -15 -8 -3 -15 0 -15 6 0 7 -7 3 -15 -8
-8 -10 -15 -14 -15 -9 0 6 -5 3 -10 -5 -9 -13 -11 -13 -20 0 -6 10 -10 11 -10
3 0 -7 -5 -13 -11 -13 -5 0 -8 4 -5 8 3 5 -1 9 -9 9 -8 0 -11 -5 -8 -11 4 -6
-1 -5 -10 3 -15 12 -17 11 -17 -7 0 -11 5 -22 12 -24 21 -7 -15 -43 -47 -46
-16 -2 -34 -11 -40 -19 -6 -7 -26 -16 -45 -19 -19 -3 -38 -11 -42 -17 -3 -7
-16 -23 -28 -37 -12 -14 -25 -31 -29 -37 -4 -7 -21 -14 -39 -16 -18 -2 -35 -7
-39 -10 -3 -4 -16 -7 -28 -7 -13 0 -28 -6 -34 -14 -7 -8 -20 -13 -30 -11 -10
2 -38 4 -62 6 -24 1 -50 7 -56 12 -9 6 -13 6 -13 -2 0 -6 -12 -11 -26 -11 -14
0 -23 -4 -20 -9 4 -5 -2 -8 -11 -7 -10 2 -27 -2 -38 -9 -11 -6 -46 -11 -77
-11 -32 1 -58 -2 -58 -6 0 -5 -7 -8 -15 -8 -8 0 -15 -4 -15 -10 0 -5 -18 -10
-39 -10 -22 0 -41 -4 -43 -9 -1 -5 -25 -11 -53 -14 -67 -6 -78 -10 -92 -27 -9
-11 -12 -11 -13 -2 0 8 -9 10 -27 6 -48 -11 -347 -11 -355 0 -4 6 -38 11 -77
11 -38 0 -73 4 -77 8 -4 4 -32 7 -61 7 -30 0 -52 4 -49 8 2 4 -5 9 -17 9 -17
2 -18 0 -7 -7 11 -7 10 -9 -7 -7 -12 0 -19 5 -17 9 3 4 -36 8 -87 8 -51 0 -89
3 -86 7 12 11 -27 30 -67 31 -21 1 -47 9 -56 17 -10 9 -27 17 -38 18 -11 0
-18 5 -16 9 3 4 -13 8 -35 8 -23 0 -41 5 -41 11 0 5 -4 8 -9 4 -5 -3 -11 5
-13 17 -2 15 -9 22 -20 20 -9 -1 -19 2 -23 8 -3 5 -22 10 -41 10 -21 0 -33 4
-29 10 3 5 -1 10 -9 10 -12 0 -16 10 -16 35 0 33 -2 35 -34 35 -19 0 -37 4
-41 9 -3 5 -18 6 -33 2 -31 -8 -72 -3 -72 8 0 4 -13 23 -30 41 -17 18 -30 37
-30 42 0 4 -7 8 -15 8 -8 0 -15 6 -15 13 0 9 -3 8 -9 -2 -7 -11 -10 -11 -17 0
-9 13 -19 16 -71 22 -11 1 -19 5 -16 9 2 5 -4 8 -13 8 -10 0 -15 2 -12 5 3 3
-12 24 -33 46 -23 24 -39 50 -39 65 0 13 -4 24 -10 24 -5 0 -10 6 -10 14 0 8
-5 18 -12 22 -7 5 -9 2 -4 -7 8 -15 -10 6 -34 40 -8 12 -20 21 -28 21 -7 0
-10 5 -7 10 3 6 1 10 -4 10 -11 0 -51 36 -51 46 0 10 -28 33 -33 27 -8 -8 0
34 9 49 4 6 3 8 -2 5 -5 -3 -20 7 -32 22 -33 42 -70 81 -77 81 -3 0 -3 -5 0
-10 10 -15 2 -12 -35 15 -19 14 -27 25 -19 26 10 0 10 2 2 6 -7 2 -13 11 -13
19 0 9 -5 12 -12 8 -8 -5 -9 -2 -5 9 3 10 2 17 -3 17 -5 0 -14 10 -21 21 -9
17 -8 20 3 13 14 -8 0 11 -34 50 -10 11 -20 28 -24 38 -3 10 -9 16 -14 13 -4
-3 -14 17 -21 44 -7 28 -16 48 -21 45 -7 -5 -12 10 -9 29 0 4 -3 7 -9 7 -5 0
-7 6 -4 14 3 8 0 17 -5 21 -6 3 -9 11 -6 16 4 5 0 9 -8 9 -10 0 -13 7 -10 19
3 11 -4 27 -15 37 -10 11 -18 29 -17 41 1 13 -3 23 -8 23 -5 0 -7 9 -4 20 3
11 2 18 -2 16 -3 -2 -11 7 -18 20 -8 18 -8 24 0 24 7 0 4 5 -6 11 -9 6 -15 14
-12 20 4 5 1 9 -4 9 -6 0 -11 9 -11 21 0 11 -4 18 -9 15 -5 -3 -12 5 -15 19
-4 14 -11 25 -17 25 -8 0 -8 4 0 14 9 11 8 17 -7 28 -11 7 -21 18 -23 23 -2 6
-7 9 -10 8 -3 -1 -4 15 -3 35 1 20 3 37 4 37 1 0 3 8 5 18 2 9 -1 15 -5 12 -5
-3 -12 0 -17 7 -11 18 -13 39 -3 33 10 -6 8 15 -4 33 -4 7 -10 27 -13 43 -2
17 -12 39 -21 49 -33 36 -42 49 -42 60 0 6 -6 8 -13 4 -8 -5 -8 -3 2 9 11 14
11 18 -2 23 -9 3 -13 12 -11 19 3 7 0 16 -6 20 -8 5 -7 14 4 30 12 17 13 26 4
31 -7 5 -8 3 -3 -6 5 -9 4 -11 -4 -6 -9 6 -9 11 -1 21 7 8 8 20 4 26 -4 8 -3
9 4 5 7 -4 12 0 13 11 0 10 2 30 4 46 2 15 -1 27 -7 27 -6 0 -8 3 -5 7 4 3 -1
15 -10 26 -13 15 -14 18 -3 12 8 -4 2 6 -15 22 -16 16 -33 28 -37 26 -8 -4 -4
24 4 33 8 7 -12 56 -27 66 -6 5 -4 8 5 8 11 1 10 4 -4 15 -15 11 -16 15 -5 16
10 0 10 2 2 6 -7 2 -13 9 -13 14 0 6 6 7 13 3 9 -6 9 -4 0 7 -7 7 -13 17 -13
22 0 4 6 5 13 1 9 -6 9 -5 0 7 -7 8 -10 27 -7 42 3 18 0 26 -8 25 -8 -2 -13
11 -13 40 -1 33 3 46 18 53 14 8 16 14 7 24 -8 10 -8 15 0 20 8 5 8 11 -1 21
-8 10 -8 14 0 14 6 0 14 12 17 26 5 19 9 22 15 13 6 -10 8 -7 6 8 0 12 -4 20
-7 18 -9 -5 -6 98 3 113 5 7 12 10 17 7 9 -6 7 21 -3 31 -3 3 1 17 10 30 8 13
13 31 9 39 -3 8 -1 15 4 15 5 0 6 7 3 17 -4 11 -3 14 5 9 7 -4 12 -1 12 8 0 8
-4 17 -10 21 -5 3 -7 12 -4 20 4 8 11 12 16 9 6 -4 5 2 -1 14 -14 26 -14 35
-1 27 6 -3 7 1 4 9 -3 9 -10 13 -15 10 -5 -3 -6 2 -3 10 3 9 11 13 16 10 6 -4
5 2 -1 14 -13 25 -14 35 -2 27 6 -3 6 6 1 25 -5 19 -5 29 2 27 5 -1 12 14 14
33 2 19 10 40 17 45 6 6 13 21 15 35 1 14 11 31 22 39 11 7 20 20 20 28 0 8 4
12 9 9 9 -6 22 16 28 49 2 13 0 16 -5 8 -5 -7 -8 18 -8 56 1 38 4 67 8 64 5
-2 8 3 8 11 0 8 10 25 22 37 13 12 17 19 10 14 -20 -11 -11 27 10 42 10 8 14
21 11 34 -5 16 3 29 27 50 18 16 28 29 21 29 -6 0 -11 5 -11 10 0 6 7 10 17
10 9 0 14 3 10 6 -6 7 23 41 31 36 6 -5 42 40 42 52 0 6 11 24 25 40 13 16 22
33 19 37 -3 5 3 9 13 9 14 0 15 2 5 9 -10 6 -8 10 8 14 12 3 19 10 15 16 -3 6
-1 11 5 11 6 0 8 5 5 10 -3 6 -2 10 2 10 5 0 9 10 10 22 1 12 12 35 24 51 12
17 16 26 9 22 -9 -6 -10 -1 -5 16 4 13 11 28 16 34 5 5 9 15 9 22 0 6 11 24
26 38 14 14 22 30 18 37 -4 7 -3 8 4 4 7 -4 12 -2 12 4 0 15 26 41 34 33 3 -4
6 0 6 8 0 17 34 49 53 49 8 0 7 4 -3 10 -13 9 -13 10 0 10 8 0 30 16 47 35 18
19 36 35 41 35 5 0 18 11 30 25 12 14 26 25 32 25 5 0 10 7 10 16 0 8 4 13 10
9 8 -5 36 14 76 53 7 6 15 12 19 12 3 0 17 11 31 25 27 27 40 33 28 13 -6 -9
-3 -9 9 0 9 8 21 11 27 7 5 -3 10 -1 10 4 0 6 7 11 16 11 8 0 13 4 9 9 -3 5 3
12 14 16 11 3 22 12 24 20 4 8 14 11 25 8 11 -2 23 0 26 6 4 5 13 8 21 4 8 -3
15 0 15 7 0 7 7 10 15 6 9 -3 15 0 15 9 0 14 12 19 32 16 5 0 7 2 6 7 -3 13
14 42 22 37 4 -3 11 2 14 11 3 8 10 12 16 9 5 -3 10 -2 10 4 0 5 9 13 20 16
11 3 20 12 20 20 0 8 9 12 25 10 14 -1 29 3 33 9 9 14 62 17 62 3 0 -6 7 -2
16 9 8 10 12 13 8 5 -5 -9 2 -7 18 5 14 10 24 21 23 25 -2 3 7 5 20 5 13 0 22
-3 20 -6 -2 -3 6 -7 18 -7 17 -2 19 0 7 7 -11 7 -7 10 16 10 20 0 34 6 38 16
3 9 12 14 18 12 7 -3 19 1 26 9 8 7 18 11 23 8 5 -4 9 -1 9 5 0 6 3 9 8 7 10
-7 32 19 24 28 -4 4 0 5 8 3 8 -1 14 2 13 8 -1 6 9 10 23 8 13 -1 22 2 18 7
-3 5 4 9 16 9 12 0 19 4 16 9 -3 5 6 9 20 9 15 0 30 6 35 13 5 8 9 9 9 3 0 -6
7 -11 15 -11 8 0 12 4 9 9 -3 4 7 8 21 8 16 0 24 4 20 11 -4 6 11 1 33 -10 22
-11 42 -17 46 -14 10 11 37 12 30 2 -8 -14 6 -11 21 5 8 7 12 16 10 20 -3 3 0
2 6 -3 8 -6 16 -5 24 3 8 7 27 11 45 8 23 -3 28 -7 19 -13 -10 -7 -8 -8 8 -6
11 2 28 9 37 16 9 7 16 10 16 5 0 -5 5 -1 11 9 9 15 13 16 27 5 9 -7 13 -8 9
-2 -4 7 0 15 9 18 8 3 12 2 9 -4 -3 -6 -1 -10 4 -10 6 0 11 5 11 12 0 6 3 8 6
5 4 -3 15 -2 25 4 14 7 19 6 19 -3 0 -8 3 -9 8 -3 4 6 14 11 22 13 8 2 17 9
19 15 3 9 5 9 9 0 2 -7 8 -13 13 -13z"/>
<path d="M4390 5788 c0 -4 -18 -13 -40 -19 -21 -7 -37 -16 -34 -20 3 -5 -4 -9
-16 -9 -22 0 -50 -21 -50 -39 0 -5 -6 -16 -13 -23 -33 -35 -43 -65 -42 -135 0
-40 -3 -73 -7 -73 -5 0 -8 -11 -8 -25 0 -14 -4 -25 -9 -25 -10 0 -42 -47 -45
-66 -1 -7 -5 -17 -9 -20 -4 -4 -7 -21 -7 -39 0 -17 -5 -36 -11 -42 -7 -7 -8
-17 -3 -25 12 -19 14 -39 3 -32 -11 6 -12 -9 -2 -20 10 -10 13 -37 3 -31 -8 5
-7 -18 4 -63 3 -13 1 -20 -5 -17 -5 4 -9 2 -9 -4 0 -5 4 -11 10 -13 5 -1 11
-27 12 -55 2 -29 5 -53 8 -53 3 0 6 -19 7 -42 1 -22 7 -44 13 -48 6 -4 8 -15
4 -25 -5 -13 -4 -16 4 -11 8 5 12 0 12 -14 0 -12 9 -34 20 -50 11 -15 17 -30
13 -34 -3 -3 -1 -6 6 -6 7 0 19 -7 27 -15 9 -8 12 -15 8 -15 -4 0 26 -31 67
-69 40 -39 75 -68 78 -66 2 3 12 -5 22 -17 11 -11 19 -18 19 -14 0 8 22 -10
48 -36 9 -10 22 -18 30 -18 7 0 10 -5 7 -10 -4 -6 -3 -9 2 -8 13 3 56 -14 71
-28 7 -8 18 -12 23 -9 5 4 9 1 9 -4 0 -6 8 -11 18 -11 10 0 28 -9 39 -19 11
-11 29 -21 39 -23 11 -2 22 -7 25 -12 4 -5 18 -8 33 -8 14 0 23 -4 20 -9 -3
-5 1 -6 9 -4 7 3 25 -5 39 -18 13 -13 29 -22 34 -20 5 2 21 -8 36 -22 15 -14
37 -25 49 -25 12 0 19 -3 16 -7 -4 -3 7 -19 23 -35 17 -16 28 -33 25 -38 -4
-6 3 -10 14 -10 12 0 21 -6 21 -14 0 -8 8 -17 18 -20 9 -3 28 -16 42 -29 24
-22 38 -24 108 -15 6 1 12 6 12 12 0 6 5 4 10 -4 8 -12 10 -12 11 5 0 11 3 15
5 8 3 -7 12 -9 20 -6 7 3 11 9 8 14 -3 5 0 9 5 9 6 0 11 20 11 45 0 25 -4 45
-9 45 -5 0 -7 9 -4 20 3 11 0 20 -6 20 -6 0 -11 7 -11 15 0 8 -4 15 -10 15 -5
0 -10 7 -10 16 0 8 -4 12 -10 9 -6 -4 -10 7 -10 25 0 17 4 29 8 26 4 -2 9 7
10 20 1 14 -2 23 -6 20 -4 -2 -9 5 -9 17 -2 17 0 19 7 7 6 -9 10 -10 10 -3 0
6 -4 15 -10 18 -5 3 -10 13 -10 21 0 8 4 13 8 10 10 -6 7 48 -3 82 -4 12 -11
22 -16 22 -5 0 -9 9 -9 20 0 11 -4 20 -10 20 -5 0 -10 7 -10 15 0 8 -4 15 -9
15 -5 0 -12 11 -15 25 -4 14 -10 25 -15 25 -5 0 -14 14 -21 30 -7 17 -17 30
-22 30 -5 0 -7 4 -4 9 3 5 0 11 -8 14 -8 3 -21 19 -29 36 -9 17 -11 29 -6 26
5 -4 9 -2 9 4 0 5 -4 11 -9 13 -5 2 -10 17 -12 33 -2 17 -7 35 -12 42 -5 7 -6
17 -2 23 3 5 0 10 -8 10 -10 0 -13 10 -12 35 2 19 -1 35 -6 35 -5 0 -9 8 -9
18 0 10 -6 24 -12 31 -11 11 -10 12 1 6 10 -6 8 2 -5 26 -10 19 -22 36 -26 37
-5 2 -8 9 -8 16 0 7 -9 21 -20 31 -11 10 -20 27 -20 37 0 11 -4 16 -10 13 -5
-3 -10 0 -10 8 0 8 -7 18 -16 21 -8 3 -12 10 -9 16 3 5 -1 10 -9 10 -9 0 -16
5 -16 10 0 6 -8 20 -18 30 -12 13 -18 33 -17 54 1 20 -3 37 -10 40 -15 5 -12
60 4 79 6 8 7 17 1 23 -5 5 -11 25 -13 44 -2 20 -6 41 -10 47 -4 6 -1 14 5 16
8 3 6 6 -5 6 -10 1 -16 5 -12 10 3 5 1 12 -5 16 -5 3 -10 15 -10 26 0 11 -4
17 -10 14 -5 -3 -10 3 -10 15 0 11 -8 23 -17 26 -33 11 -68 28 -85 43 -15 12
-18 12 -18 0 -1 -11 -3 -11 -13 1 -9 12 -34 15 -109 16 -54 0 -98 -4 -98 -8z
m73 -94 c4 -1 16 -2 28 -3 12 -1 17 -5 13 -13 -5 -7 -3 -8 7 -2 19 12 32 12
47 1 8 -6 12 -5 12 4 0 11 2 11 10 -1 6 -10 10 -11 10 -2 0 6 8 12 18 12 14 0
15 -2 2 -10 -12 -8 -10 -10 8 -10 13 0 21 -4 18 -9 -3 -4 -26 -8 -50 -6 -28 1
-44 -3 -43 -9 1 -6 -4 -10 -10 -8 -9 1 -13 -13 -13 -49 0 -35 3 -48 12 -43 7
4 8 3 4 -4 -5 -8 2 -12 19 -12 18 0 24 -4 19 -12 -5 -8 0 -7 11 2 11 9 16 10
11 3 -4 -7 -2 -13 3 -13 6 0 11 5 11 10 0 6 5 10 11 10 5 0 7 -6 4 -12 -4 -7
0 -5 8 5 9 10 19 17 24 15 4 -2 12 7 18 20 13 29 24 28 21 -3 -2 -13 0 -22 5
-20 4 3 7 -4 6 -15 -1 -11 -6 -20 -12 -20 -5 0 -3 -5 5 -10 8 -5 10 -10 4 -10
-6 0 -11 -6 -11 -12 0 -7 -4 -22 -9 -32 -5 -14 -4 -17 4 -12 7 4 12 2 12 -3 0
-6 -4 -11 -9 -11 -5 0 -7 -9 -4 -20 3 -11 11 -20 19 -20 8 0 11 -6 8 -15 -4
-8 -1 -22 6 -30 10 -12 10 -15 -1 -16 -10 0 -11 -2 -1 -6 6 -2 12 -11 12 -18
0 -8 22 -36 49 -63 50 -50 85 -105 74 -116 -4 -3 1 -6 10 -6 10 0 16 -3 15 -7
-1 -5 5 -24 14 -43 26 -57 31 -74 29 -92 -1 -10 2 -18 8 -18 6 0 8 -7 5 -15
-4 -8 -2 -15 4 -15 6 0 9 -8 7 -17 -1 -10 4 -26 13 -36 8 -9 12 -20 9 -24 -4
-3 -2 -13 5 -20 9 -11 9 -17 -3 -24 -10 -6 -11 -9 -1 -9 7 0 11 -4 7 -9 -3 -5
2 -16 10 -24 8 -9 15 -20 15 -25 0 -5 11 -22 25 -38 14 -16 25 -35 25 -41 0
-7 5 -13 10 -13 6 0 10 -11 10 -24 0 -20 -4 -24 -20 -21 -11 2 -18 0 -15 -4 2
-5 -9 -14 -25 -21 -17 -7 -30 -15 -31 -19 0 -3 -2 -14 -4 -25 -2 -10 0 -28 5
-40 5 -11 9 -15 9 -7 1 11 4 11 18 0 9 -8 18 -13 20 -11 1 1 3 0 3 -3 0 -3 0
-9 0 -14 0 -5 -11 -8 -25 -6 -14 1 -25 -2 -25 -7 0 -5 -4 -6 -10 -3 -5 3 -10
1 -10 -4 0 -6 -9 -11 -20 -11 -16 0 -19 -5 -16 -25 3 -13 0 -27 -5 -30 -5 -4
-9 -1 -9 4 0 6 -9 11 -20 11 -11 0 -19 5 -17 12 1 7 -4 13 -10 14 -7 1 -14 2
-15 3 -2 2 -14 5 -28 7 -13 2 -27 8 -30 12 -3 4 -9 7 -15 8 -23 3 -55 17 -55
25 0 5 -9 9 -20 9 -11 0 -20 5 -20 11 0 5 -4 7 -10 4 -5 -3 -10 -1 -10 5 0 6
-4 8 -10 5 -5 -3 -10 -1 -10 5 0 7 -7 10 -15 6 -8 -3 -15 -1 -15 4 0 5 -16 14
-34 21 -19 7 -33 16 -30 21 3 4 0 8 -6 8 -11 0 -29 13 -87 60 -7 6 -19 10 -28
10 -8 0 -15 5 -15 11 0 13 -25 39 -38 39 -11 0 -62 60 -62 73 0 4 -4 5 -10 2
-5 -3 -10 0 -10 8 0 7 -9 23 -20 35 -11 12 -20 28 -20 36 0 8 -5 18 -10 21 -6
4 -7 11 -4 17 5 7 10 3 15 -9 6 -16 15 -21 34 -18 16 1 29 -3 32 -12 3 -8 12
-12 20 -9 8 4 11 1 8 -5 -4 -6 -1 -10 6 -8 8 1 23 1 34 0 17 -1 18 -3 5 -11
-13 -8 -13 -10 2 -10 9 0 18 -5 20 -11 2 -5 10 -11 18 -12 8 -2 21 -7 29 -11
9 -6 12 -5 8 2 -5 6 0 8 13 5 21 -6 25 -15 13 -27 -4 -3 -8 -14 -9 -22 -1 -9
0 -14 3 -11 2 3 14 -4 25 -15 16 -16 22 -18 29 -7 7 11 9 10 9 -4 0 -10 4 -16
9 -13 5 3 11 -1 14 -9 4 -8 15 -12 26 -10 11 2 23 0 26 -6 10 -16 51 -10 70
11 10 11 19 31 20 45 3 21 -1 25 -21 25 -13 0 -24 5 -24 11 0 6 -7 9 -15 5 -8
-3 -15 -2 -16 2 -1 4 -2 19 -3 33 -3 33 -14 49 -31 49 -7 0 -15 10 -17 23 -2
12 -9 22 -15 22 -7 0 -13 4 -13 9 -1 10 22 18 53 17 11 0 15 5 11 12 -4 7 -3
8 2 4 5 -5 10 -13 10 -18 1 -5 2 -13 3 -19 0 -5 9 -10 19 -10 11 0 24 -11 30
-25 9 -20 17 -23 43 -20 38 5 70 31 62 53 -5 11 -2 13 8 8 8 -4 3 2 -10 13
-12 12 -27 19 -31 16 -4 -3 -13 1 -18 8 -9 10 -2 13 29 12 21 0 39 -4 39 -9 0
-5 9 1 20 14 11 13 20 31 20 41 0 25 -11 50 -20 44 -6 -4 -17 45 -22 104 -1
14 -38 57 -38 45 0 -4 -6 -1 -13 5 -8 6 -17 8 -20 4 -4 -3 -7 1 -7 10 0 10 -7
17 -15 17 -16 0 -20 12 -8 24 14 14 11 77 -3 83 -8 3 -12 8 -9 12 2 4 -33 8
-78 8 -45 1 -99 5 -119 8 -21 4 -46 4 -55 -1 -21 -9 -29 -11 -44 -13 -5 0 -7
-6 -4 -11 4 -6 3 -9 -2 -8 -20 5 -49 -14 -50 -33 -2 -29 -21 -48 -42 -44 -20
4 -56 -31 -41 -40 6 -4 10 -17 10 -30 0 -13 6 -25 13 -28 8 -3 9 -8 1 -16 -12
-13 -74 -4 -74 11 0 6 -6 6 -14 -1 -11 -10 -14 -3 -14 41 1 29 3 57 6 62 3 6
7 25 8 43 1 18 14 49 28 68 14 18 26 40 26 47 0 8 9 20 19 28 11 7 18 17 15
21 -2 4 1 11 7 15 8 5 7 9 -2 14 -16 10 -20 50 -5 50 6 0 4 5 -4 10 -10 7 -12
12 -4 18 6 4 10 17 9 30 -1 13 4 22 12 22 8 0 12 4 8 9 -3 5 -2 12 3 15 4 2 9
-5 9 -17 2 -18 31 -46 42 -38 2 1 7 -3 11 -9 5 -8 14 -9 26 -3 11 5 29 8 42 7
12 0 20 1 18 4 -3 2 -1 13 5 24 17 31 -7 87 -39 94 -15 3 -31 7 -37 8 -5 2 4
9 20 18 17 8 35 12 40 9 6 -3 13 -6 18 -7z m137 -704 c10 -7 11 -10 3 -11 -7
-1 -19 -2 -25 -3 -21 -4 -31 6 -17 15 18 11 21 11 39 -1z m-165 -30 c3 -11 13
-20 21 -20 8 0 14 -5 14 -11 0 -6 5 -7 13 -2 22 14 33 11 35 -11 1 -16 -5 -22
-19 -23 -12 -1 -19 1 -15 4 6 6 -50 45 -58 40 -1 -1 -11 4 -20 12 -13 11 -14
16 -4 22 20 13 26 11 33 -11z m245 -15 c0 -9 -6 -12 -17 -8 -11 4 -14 3 -9 -5
4 -7 2 -10 -7 -6 -23 8 -16 34 10 34 14 0 23 -6 23 -15z"/>
<path d="M4457 5533 c-9 -2 -15 -9 -12 -14 4 -5 2 -9 -3 -9 -14 0 -9 -73 6
-89 17 -17 71 -22 73 -7 1 6 1 21 1 34 -1 14 3 20 10 16 8 -5 9 3 4 26 -3 19
-7 35 -9 36 -6 6 -54 11 -70 7z"/>
<path d="M1523 4249 c-13 -5 -23 -6 -23 -2 0 3 -7 0 -15 -7 -12 -10 -15 -10
-15 1 0 8 -5 6 -12 -6 -7 -11 -18 -26 -25 -33 -7 -7 -13 -18 -13 -23 0 -6 -4
-7 -10 -4 -5 3 -10 -3 -10 -15 0 -12 -4 -19 -8 -16 -4 2 -7 -14 -5 -37 2 -23
6 -96 9 -162 3 -66 10 -124 14 -130 11 -14 10 -146 -1 -139 -9 5 -13 -9 -10
-35 2 -8 -2 -10 -10 -5 -8 5 -9 3 -3 -7 11 -19 14 -39 5 -39 -7 0 -9 -7 -13
-50 -1 -11 -6 -20 -10 -20 -4 0 -5 -6 -2 -14 3 -8 0 -17 -5 -21 -6 -3 -9 -11
-6 -16 4 -5 -1 -9 -9 -9 -9 0 -16 -4 -16 -10 0 -5 -7 -10 -16 -10 -8 0 -12 -4
-9 -10 3 -6 -1 -7 -9 -4 -9 3 -18 0 -21 -7 -10 -27 -12 -80 -4 -85 5 -3 7 -10
4 -15 -4 -5 -1 -9 4 -9 6 0 11 -7 11 -15 0 -28 24 -65 42 -65 10 0 18 -4 18
-9 0 -12 92 -9 106 4 5 5 13 17 16 26 6 16 50 20 64 6 4 -4 16 -7 26 -7 10 0
29 -9 41 -20 12 -12 23 -16 25 -10 4 12 42 14 42 1 0 -5 16 -8 34 -7 20 2 37
-2 40 -9 5 -14 134 -14 157 1 8 4 23 10 34 11 55 7 84 16 79 24 -5 8 17 14 39
10 4 0 7 3 7 8 0 4 16 7 35 5 19 -1 35 2 35 7 0 6 3 8 8 6 4 -3 13 1 20 9 8 9
9 14 2 14 -7 0 -8 6 -1 18 10 18 -10 58 -22 45 -4 -3 -7 1 -7 10 0 9 -5 17
-11 17 -5 0 -7 5 -4 10 3 6 -1 10 -9 10 -9 0 -16 4 -16 9 0 5 -19 7 -42 4 -24
-3 -63 -7 -88 -10 -25 -3 -48 -10 -52 -17 -5 -7 -8 -7 -8 3 0 11 -3 11 -15 1
-8 -7 -32 -13 -54 -13 -22 -1 -38 -4 -36 -7 2 -4 -2 -7 -10 -7 -8 0 -12 3 -10
7 2 3 -21 6 -51 6 -30 -1 -54 -4 -54 -8 0 -12 -29 -2 -59 21 -20 15 -31 33
-31 48 0 17 -4 22 -12 17 -8 -5 -7 0 2 11 9 11 10 16 3 11 -8 -4 -13 -1 -13 9
0 9 4 14 8 11 5 -3 9 1 9 9 0 8 -3 12 -7 10 -4 -2 -7 2 -7 10 0 8 4 12 7 10
15 -10 33 211 19 230 -9 12 -9 13 -9 76 0 33 -4 48 -11 44 -7 -5 -9 19 -8 74
1 44 6 78 10 75 5 -3 9 0 9 5 0 6 5 11 11 11 14 0 33 20 44 45 13 31 14 46 3
39 -6 -4 -6 1 1 14 8 15 8 22 -2 25 -9 4 -9 6 1 6 15 1 16 21 1 21 -7 0 -17 7
-23 15 -6 8 -21 17 -34 20 -12 2 -25 6 -30 8 -4 3 -17 1 -29 -4z"/>
<path d="M2315 4173 c-8 -8 -15 -12 -15 -9 0 3 -8 -2 -18 -11 -10 -10 -17 -20
-15 -22 1 -2 -3 -11 -10 -19 -9 -13 -9 -14 1 -8 11 6 17 -11 13 -36 0 -5 4 -8
9 -8 6 0 10 -6 10 -14 0 -8 7 -17 16 -20 8 -3 12 -11 8 -17 -4 -7 -3 -9 3 -6
14 9 28 -10 37 -46 5 -20 3 -27 -5 -22 -8 5 -8 2 -2 -11 5 -11 8 -40 7 -67 -1
-26 2 -50 8 -53 5 -3 3 -16 -6 -29 -11 -16 -12 -26 -5 -31 17 -10 28 -48 17
-61 -5 -7 -5 -13 1 -17 11 -7 3 -46 -9 -46 -5 0 -7 -14 -5 -30 3 -22 1 -29 -8
-23 -7 4 -7 0 2 -10 11 -14 11 -20 1 -32 -7 -8 -9 -15 -5 -15 4 0 2 -7 -5 -15
-6 -8 -9 -19 -5 -24 5 -9 -28 -23 -60 -26 -5 -1 -9 -6 -8 -13 2 -6 -4 -9 -12
-6 -8 4 -15 1 -15 -6 0 -6 -4 -9 -8 -6 -15 9 -34 -12 -38 -40 -3 -30 22 -68
38 -58 4 3 7 2 6 -3 -2 -4 6 -17 18 -29 16 -16 26 -19 43 -12 13 4 28 5 34 1
7 -4 72 -8 145 -8 109 -1 132 2 132 14 0 8 3 12 6 8 4 -3 13 0 20 8 16 16 19
65 4 65 -5 0 -10 4 -10 10 0 22 -45 60 -71 60 -17 0 -32 8 -41 23 -16 25 -18
85 -2 95 12 8 12 101 0 121 -6 9 -5 12 1 8 5 -3 10 0 10 8 0 8 -4 12 -8 9 -4
-2 -7 5 -6 16 1 11 4 20 8 20 9 0 6 16 -9 50 -7 18 -7 28 2 35 7 6 11 40 11
87 0 89 22 136 45 98 4 -7 26 -14 49 -15 29 -2 39 1 34 9 -4 6 -1 6 9 -2 13
-10 17 -10 21 2 7 17 47 18 47 1 0 -6 3 -7 8 0 11 16 52 14 52 -2 0 -8 4 -12
9 -9 11 7 28 -14 26 -34 -1 -8 3 -24 9 -35 12 -25 15 -295 2 -295 -5 0 -4 -5
1 -12 5 -7 8 -24 7 -38 -1 -14 2 -33 7 -42 6 -10 6 -18 1 -18 -5 0 -8 -12 -7
-27 1 -16 -4 -37 -11 -48 -7 -11 -12 -31 -10 -45 2 -27 34 -70 50 -70 5 0 18
-8 28 -17 21 -19 48 -26 48 -12 0 5 6 9 14 9 19 0 56 48 56 72 0 11 4 17 8 14
11 -6 9 55 -1 72 -5 7 -10 43 -11 81 -2 37 -6 73 -10 79 -4 7 -4 12 1 12 4 0
1 5 -7 10 -10 7 -11 13 -5 18 12 8 13 22 2 40 -5 6 -4 12 0 12 14 0 11 58 -3
64 -8 3 -11 15 -7 33 3 15 6 34 6 41 0 6 3 12 7 12 3 0 7 10 7 23 1 12 5 40 8
63 l7 40 107 -1 c58 0 114 3 125 8 13 6 16 6 11 -3 -4 -7 -1 -11 6 -9 28 3 36
-2 34 -23 -1 -13 2 -32 8 -43 13 -24 15 -33 23 -107 4 -32 10 -58 15 -58 13 0
11 -198 -1 -202 -6 -2 -11 -28 -13 -60 -1 -34 -6 -54 -12 -50 -5 3 -4 -1 3
-10 9 -11 10 -18 2 -23 -6 -3 -7 -12 -3 -18 4 -7 8 -16 9 -22 0 -5 2 -16 2
-23 1 -7 6 -11 10 -8 5 3 15 -4 22 -15 10 -13 26 -19 53 -19 23 0 36 4 32 10
-6 9 8 14 28 11 5 -1 6 3 2 9 -3 5 2 10 12 10 15 0 16 2 3 10 -12 8 -13 13 -2
30 14 23 16 42 2 20 -8 -12 -10 -9 -7 12 1 15 6 30 10 34 15 15 6 26 -10 13
-16 -13 -16 -11 1 15 10 16 14 26 8 22 -5 -3 -12 1 -16 9 -3 8 0 17 6 21 7 5
8 2 3 -6 -6 -9 -4 -11 4 -5 9 5 10 10 2 18 -7 7 -7 16 0 30 7 12 7 17 1 13 -5
-3 -12 1 -16 9 -3 8 0 17 6 21 7 5 8 2 3 -6 -5 -9 -4 -11 4 -6 9 6 9 11 1 21
-8 9 -8 15 0 20 6 3 8 11 5 16 -4 5 -2 9 3 9 11 0 8 51 -3 70 -5 8 -4 11 2 7
6 -4 10 11 9 39 -1 25 -7 48 -14 53 -12 7 -12 44 1 57 14 14 7 26 -8 14 -13
-11 -14 -10 -8 6 3 10 13 23 20 27 7 5 11 12 8 17 -3 5 0 12 7 17 17 10 39 13
34 4 -2 -3 9 -7 26 -8 20 0 26 2 17 8 -10 6 -8 8 8 6 12 0 20 -3 18 -5 -2 -2
4 -11 14 -21 18 -18 21 -57 6 -81 -5 -8 -4 -11 2 -7 6 4 13 0 17 -8 3 -8 1
-17 -3 -19 -5 -3 -7 -28 -6 -56 2 -32 -1 -47 -8 -43 -6 4 -7 1 -2 -6 12 -21
13 -161 1 -154 -6 3 -5 0 2 -8 6 -7 12 -17 12 -22 0 -4 -6 -5 -12 -1 -9 5 -9
2 1 -9 11 -14 11 -17 0 -18 -8 0 -5 -4 6 -9 13 -6 15 -9 5 -9 -13 -1 -13 -2 0
-11 10 -6 11 -10 3 -10 -7 0 -13 -7 -13 -15 0 -8 -5 -15 -11 -15 -5 0 -7 -4
-4 -10 3 -5 1 -10 -6 -10 -8 0 -8 -4 -1 -12 13 -17 6 -53 -15 -77 -17 -21 -27
-55 -13 -46 10 6 8 -15 -3 -32 -5 -9 -2 -13 8 -13 11 0 15 -5 12 -14 -4 -10 2
-18 16 -22 26 -8 48 -29 40 -38 -4 -3 11 -4 32 -1 21 2 41 8 44 13 3 4 54 8
113 7 58 0 105 2 102 6 -2 4 2 9 10 12 8 3 17 0 19 -7 3 -8 18 -13 36 -11 17
1 34 -1 37 -6 3 -5 10 -7 15 -4 5 4 9 2 9 -3 0 -5 19 -9 43 -8 33 1 44 -3 53
-19 6 -11 8 -24 6 -30 -10 -17 -11 -55 -1 -61 5 -3 6 -11 2 -17 -10 -17 -13
-56 -4 -62 5 -2 6 -16 3 -30 -2 -15 0 -25 7 -25 7 0 9 -4 6 -10 -3 -5 2 -10
11 -10 10 0 14 -3 11 -7 -4 -3 3 -13 15 -22 25 -17 48 -23 47 -13 -1 4 -1 16
0 26 1 20 1 20 16 0 15 -19 15 -19 30 0 9 12 13 34 11 57 -3 28 -1 37 7 32 7
-4 7 0 -1 9 -9 11 -10 18 -2 23 6 4 7 12 1 22 -5 9 -5 28 -2 42 4 14 7 74 6
134 0 59 3 107 7 107 4 0 8 5 8 10 0 28 36 46 90 45 30 -1 58 3 61 8 10 15 39
0 33 -17 -3 -8 -1 -17 5 -21 7 -3 11 -42 11 -91 0 -46 4 -84 9 -84 5 0 11 -24
14 -52 4 -56 12 -92 22 -108 8 -14 16 -48 22 -95 3 -22 14 -47 24 -56 11 -9
19 -19 19 -23 0 -11 38 -45 44 -38 3 3 6 -3 6 -13 0 -10 3 -15 7 -12 3 4 12
-1 19 -11 11 -14 13 -14 14 -2 0 12 3 11 11 -3 6 -9 14 -15 20 -12 5 4 9 1 9
-4 0 -6 5 -11 11 -11 5 0 8 4 5 8 -3 5 1 9 9 9 8 0 15 -4 15 -9 0 -13 50 -9
63 5 15 17 37 55 37 64 0 5 -5 1 -11 -7 -7 -11 -9 -7 -5 18 2 17 0 32 -5 32
-6 0 -7 5 -4 10 3 6 1 10 -5 10 -6 0 -8 5 -5 10 3 6 1 10 -5 10 -6 0 -8 5 -5
10 4 6 3 10 -2 9 -38 -7 -75 3 -80 21 -3 11 -10 17 -16 13 -6 -3 -7 -1 -3 6 9
14 -2 53 -14 46 -4 -3 -6 5 -2 17 4 15 2 19 -7 14 -8 -6 -11 -2 -9 10 2 11 -2
18 -9 16 -19 -3 -16 15 7 38 11 11 16 20 12 20 -5 0 -8 12 -7 28 1 15 -6 32
-14 39 -12 10 -13 12 -2 13 11 0 11 3 0 17 -12 14 -12 16 0 8 11 -6 12 -5 5 6
-13 21 -14 39 -1 39 7 0 6 5 -3 10 -13 9 -13 11 0 20 8 5 10 10 4 10 -14 0
-13 32 1 42 7 5 6 8 0 8 -6 0 -12 13 -13 29 -2 23 3 31 20 37 13 4 29 7 36 6
6 -2 12 2 12 8 0 6 4 9 9 5 5 -3 12 -1 16 5 4 6 11 7 17 4 7 -4 8 -2 4 4 -4 7
0 12 10 12 10 0 14 3 11 7 -4 3 1 12 10 18 15 11 15 15 3 29 -7 10 -9 16 -4
15 27 -5 36 1 24 16 -7 8 -8 20 -4 27 5 7 7 21 6 31 -2 9 1 17 6 17 6 0 13 7
16 16 3 8 2 13 -3 10 -4 -3 -9 9 -10 27 -3 54 -4 56 -13 51 -4 -3 -8 2 -8 11
0 9 -4 14 -9 11 -5 -3 -11 3 -14 14 -3 11 -12 20 -21 20 -9 0 -13 6 -10 13 5
15 -23 44 -33 34 -3 -4 -14 -2 -24 3 -10 6 -20 6 -23 1 -9 -15 -46 0 -46 18 0
9 -3 12 -8 6 -4 -5 -24 -10 -44 -10 -25 1 -38 -4 -38 -12 0 -20 -20 -15 -41
10 -17 20 -18 20 -12 2 l6 -20 -23 20 c-13 11 -20 14 -15 6 6 -11 4 -13 -9 -8
-10 4 -22 7 -27 7 -6 0 -7 6 -3 13 5 7 0 6 -11 -3 -10 -8 -16 -10 -12 -4 10
17 -142 11 -153 -6 -8 -13 -13 -13 -31 -2 -20 13 -21 12 -15 -3 5 -14 4 -15
-7 -7 -7 6 -23 10 -35 7 -12 -2 -22 0 -22 6 0 5 -4 9 -10 9 -5 0 -7 -8 -4 -17
5 -14 4 -15 -4 -4 -8 12 -14 11 -36 -6 -14 -11 -23 -23 -21 -27 3 -3 -1 -2 -7
4 -9 7 -16 4 -24 -12 -14 -26 1 -68 24 -68 9 0 13 -3 9 -6 -3 -3 8 -20 26 -37
29 -28 31 -34 31 -108 1 -56 -2 -75 -10 -68 -8 6 -10 1 -8 -16 1 -18 -7 -36
-26 -55 -22 -22 -28 -37 -26 -62 3 -37 -20 -63 -41 -47 -7 7 -13 6 -18 -1 -3
-5 -11 -10 -16 -10 -6 0 -8 4 -4 9 3 6 -6 7 -23 2 -17 -5 -36 -5 -47 1 -13 8
-16 7 -11 -1 9 -14 0 -14 -26 0 -15 8 -19 8 -14 0 4 -6 4 -11 1 -11 -4 0 -16
5 -27 11 -15 8 -19 8 -14 0 4 -6 4 -11 1 -11 -4 0 -16 5 -27 11 -15 8 -19 8
-14 0 4 -6 3 -11 -3 -11 -5 0 -13 5 -16 10 -4 6 -10 8 -15 5 -18 -11 -26 25
-25 112 1 116 12 140 66 139 21 0 39 -5 39 -10 0 -5 3 -7 6 -4 3 3 15 -4 27
-16 19 -18 32 -22 77 -20 30 1 58 2 63 3 14 2 8 111 -7 117 -8 3 -17 16 -20
30 -4 13 -13 24 -21 24 -8 0 -14 5 -13 12 2 6 -7 17 -19 23 -13 7 -20 16 -15
21 4 4 -1 2 -10 -5 -15 -11 -18 -11 -19 0 0 8 -4 5 -8 -6 -9 -22 -31 -27 -43
-10 -5 6 -8 6 -8 -2 0 -20 -60 7 -69 31 -9 24 -6 161 4 192 6 19 13 21 109 20
68 -1 109 -6 119 -14 10 -9 17 -10 22 -2 11 18 25 0 25 -34 0 -25 6 -35 25
-44 14 -6 25 -20 25 -29 0 -10 4 -14 8 -8 4 6 24 11 46 13 21 1 42 5 47 8 5 3
9 36 9 73 0 37 3 71 7 75 10 10 11 56 1 56 -4 0 -8 6 -8 13 0 6 -14 20 -31 30
-26 14 -57 17 -205 17 -114 0 -173 3 -169 10 4 6 -4 6 -22 -1 -35 -13 -34 -13
-44 3 -7 11 -9 11 -9 -1 0 -9 -4 -10 -12 -4 -7 6 -33 8 -58 5 -103 -11 -462
-13 -455 -2 4 6 -3 6 -19 -2 -14 -6 -26 -15 -26 -19 0 -16 -36 -14 -50 4 -16
19 -115 34 -104 15 3 -5 -79 -8 -200 -7 -116 1 -209 5 -212 11 -3 5 -11 5 -19
-2 -10 -8 -15 -8 -20 0 -5 8 -10 8 -20 0 -10 -8 -15 -8 -20 0 -4 6 -13 9 -20
6 -8 -3 -15 0 -17 5 -4 11 -54 18 -156 24 -36 2 -57 -1 -67 -12z m2336 -494
c5 -8 9 -9 9 -3 0 5 11 10 25 10 14 0 25 -4 25 -8 0 -4 9 -8 20 -8 26 0 42
-38 26 -62 -7 -13 -12 -14 -18 -5 -6 9 -8 9 -8 0 0 -7 -6 -10 -14 -7 -7 3 -16
-2 -20 -11 -3 -9 -11 -15 -18 -14 -26 3 -39 -1 -33 -11 4 -6 3 -10 -2 -9 -4 1
-10 0 -13 -1 -3 -1 -31 -3 -62 -4 -31 -1 -60 -4 -63 -8 -4 -4 -14 -4 -23 -1
-11 5 -13 3 -7 -7 6 -9 4 -11 -5 -5 -7 4 -26 9 -42 10 -29 3 -72 37 -61 49 3
3 0 12 -7 21 -11 13 -10 14 6 9 15 -5 16 -4 8 5 -12 14 3 57 25 70 6 4 63 6
127 5 85 -1 119 -6 125 -15z"/>
<path d="M5150 3581 c0 -6 -3 -10 -7 -10 -29 5 -53 -2 -47 -13 5 -8 0 -7 -11
2 -11 9 -16 10 -11 3 4 -8 1 -13 -8 -13 -9 0 -16 -9 -16 -20 0 -11 -4 -20 -10
-20 -5 0 -9 -3 -9 -7 3 -21 -2 -33 -13 -27 -7 5 -8 3 -2 -7 13 -22 14 -42 1
-58 -10 -12 -9 -13 2 -6 11 6 13 4 8 -7 -3 -9 -1 -20 5 -26 6 -6 6 -12 -3 -17
-8 -6 -10 -4 -4 5 5 9 4 11 -4 6 -9 -6 -9 -11 -1 -21 8 -10 8 -15 0 -20 -7 -4
-8 -11 -1 -18 14 -18 14 -29 0 -38 -8 -5 -13 -35 -14 -88 -1 -45 2 -78 7 -74
5 3 4 -4 -3 -16 -8 -12 -16 -16 -20 -10 -3 6 -6 -8 -5 -29 0 -22 4 -38 8 -36
12 8 2 -25 -14 -43 -12 -13 -14 -23 -7 -36 8 -13 6 -19 -5 -23 -21 -8 -21 -24
-1 -24 9 0 15 -6 14 -12 -3 -28 1 -49 10 -44 5 4 11 1 13 -5 2 -6 22 -12 45
-14 50 -5 80 17 78 58 -1 15 2 30 7 33 4 3 8 27 8 53 0 26 4 51 9 57 5 5 12
37 14 72 3 35 8 66 11 70 12 12 35 10 30 -3 -5 -11 38 -31 59 -27 4 1 6 -3 5
-9 -5 -19 59 -20 67 -2 5 14 7 14 20 -3 8 -10 15 -14 15 -9 0 12 69 13 88 2 7
-5 12 -3 12 4 0 8 3 9 13 0 8 -6 17 -8 20 -4 4 3 7 -3 7 -15 0 -12 5 -22 11
-22 8 0 7 -6 -2 -17 -10 -11 -10 -14 -1 -9 6 4 12 3 12 -1 0 -5 -6 -15 -12
-22 -8 -8 -8 -11 -2 -8 7 4 14 -2 17 -13 3 -11 1 -18 -3 -15 -5 3 -11 1 -15
-5 -3 -5 -2 -10 3 -10 5 0 9 -7 9 -15 0 -8 -5 -15 -11 -15 -5 0 -1 -7 10 -16
10 -8 13 -13 7 -9 -15 7 -14 11 -17 -85 -2 -46 2 -85 10 -101 7 -15 11 -29 8
-31 -7 -8 58 -68 73 -68 7 0 13 4 13 8 0 5 7 9 15 10 8 1 22 3 30 4 8 1 13 4
10 6 -3 3 0 12 7 19 13 16 21 148 15 241 0 6 -9 12 -19 12 -11 0 -17 4 -14 8
3 5 8 24 11 43 4 19 8 39 9 44 1 6 6 16 10 24 6 10 5 12 -2 7 -7 -4 -12 -2
-12 3 0 6 4 11 8 11 12 0 7 140 -4 148 -15 11 -12 192 3 192 14 0 35 35 40 65
2 16 1 17 -7 5 -8 -12 -10 -9 -10 13 0 17 -5 27 -15 27 -9 0 -21 11 -27 25 -8
19 -19 25 -43 25 -17 0 -35 3 -39 7 -10 10 -46 11 -40 1 3 -4 1 -8 -5 -8 -5 0
-13 5 -16 10 -4 7 -13 7 -26 0 -11 -6 -25 -8 -32 -3 -16 10 -47 11 -41 1 3 -4
1 -8 -5 -8 -5 0 -13 5 -16 10 -4 7 -13 7 -24 0 -12 -6 -22 -5 -31 3 -10 9 -11
9 -6 0 8 -15 -10 -18 -19 -3 -4 6 -14 7 -23 2 -22 -10 -103 -9 -121 3 -10 6
-12 4 -6 -6 8 -12 6 -12 -8 0 -11 9 -17 10 -17 2z m255 -156 c94 1 107 -8 111
-72 4 -69 -22 -90 -106 -87 -101 3 -102 3 -94 17 6 9 4 9 -7 1 -8 -5 -24 -9
-36 -8 -13 0 -23 -3 -23 -8 0 -5 -4 -6 -10 -3 -5 3 -10 1 -10 -5 0 -6 -4 -8
-10 -5 -17 10 -12 144 5 161 8 9 15 12 15 7 0 -4 5 0 11 10 6 9 14 15 19 12 5
-3 12 0 16 6 5 9 12 7 23 -7 13 -16 29 -19 96 -19z"/>
<path d="M1400 3135 c0 -7 39 -12 49 -5 7 4 -1 7 -18 8 -17 0 -31 -1 -31 -3z"/>
<path d="M1798 3133 c7 -3 16 -2 19 1 4 3 -2 6 -13 5 -11 0 -14 -3 -6 -6z"/>
<path d="M1830 3135 c0 -7 30 -13 34 -7 3 4 -4 9 -15 9 -10 1 -19 0 -19 -2z"/>
<path d="M965 2900 c-3 -5 -1 -10 4 -10 6 0 11 5 11 10 0 6 -2 10 -4 10 -3 0
-8 -4 -11 -10z"/>
<path d="M2940 2721 c0 -4 -18 -7 -40 -6 -22 1 -40 -2 -40 -6 0 -5 -7 -6 -15
-3 -8 4 -15 1 -15 -6 0 -7 -8 -9 -20 -5 -11 3 -20 3 -20 -2 0 -5 -14 -10 -31
-11 -18 -1 -37 -6 -43 -9 -16 -11 -37 -12 -31 -3 3 5 -3 7 -12 5 -10 -2 -18
-4 -18 -5 0 -1 -8 -3 -18 -5 -9 -2 -15 1 -11 6 12 20 -10 8 -34 -18 -13 -16
-21 -21 -17 -13 4 10 1 9 -8 -2 -8 -10 -17 -15 -20 -11 -4 3 -7 1 -7 -6 0 -7
-4 -10 -9 -6 -5 3 -12 -4 -16 -15 -4 -11 -18 -32 -32 -46 -14 -14 -22 -31 -19
-40 3 -9 1 -12 -4 -9 -6 3 -10 0 -10 -8 0 -8 -7 -28 -15 -45 -21 -41 -25 -63
-32 -157 -3 -44 -9 -81 -14 -83 -5 -2 -9 -8 -9 -13 0 -6 4 -8 9 -5 5 4 8 -2 6
-11 -2 -10 -4 -18 -5 -18 -1 0 -3 -8 -5 -18 -2 -9 0 -15 4 -13 4 3 7 -4 7 -14
0 -10 -4 -16 -8 -14 -4 3 -8 1 -8 -5 0 -5 5 -13 10 -16 8 -5 8 -11 0 -20 -6
-8 -7 -16 -2 -19 5 -3 10 -30 10 -61 0 -30 -4 -52 -9 -49 -5 3 -9 1 -9 -5 0
-5 -3 -16 -6 -24 -3 -8 5 -24 17 -36 14 -12 22 -32 22 -51 0 -16 3 -30 7 -30
4 0 7 -6 8 -12 0 -7 3 -37 5 -66 2 -28 7 -55 10 -59 4 -3 7 -22 7 -40 0 -24 4
-32 13 -27 10 6 10 4 0 -7 -7 -7 -13 -18 -13 -24 0 -5 5 -3 10 5 8 12 10 11
10 -7 0 -34 1 -37 12 -50 5 -7 7 -17 3 -23 -3 -5 -1 -10 4 -10 6 0 11 -7 11
-15 0 -8 9 -30 20 -50 11 -20 20 -45 20 -56 0 -11 5 -17 10 -14 6 3 10 0 11
-7 3 -52 45 -168 62 -168 4 0 7 -7 7 -16 0 -8 5 -12 10 -9 6 3 13 0 16 -8 3
-8 24 -20 47 -27 23 -8 46 -17 51 -21 10 -9 43 8 67 34 9 9 21 17 28 17 6 0
11 5 11 11 0 5 5 7 10 4 6 -3 10 -1 10 4 0 15 37 51 53 51 8 0 7 4 -3 10 -13
8 -12 10 3 10 9 0 17 7 17 16 0 8 5 12 10 9 6 -3 10 3 10 15 0 12 4 19 9 16 4
-3 7 5 6 18 -2 13 5 29 16 37 10 7 19 21 19 30 0 10 5 19 10 21 6 2 12 13 13
26 0 12 6 22 11 22 5 0 6 3 3 7 -4 3 0 17 9 31 9 13 11 21 5 18 -17 -11 -13 5
6 26 13 14 13 18 2 18 -10 1 -9 5 5 15 11 8 20 31 23 59 3 25 13 53 22 63 10
10 16 24 13 31 -2 6 1 12 6 12 11 0 52 78 52 99 0 7 4 10 8 7 5 -3 14 11 21
30 7 19 17 32 22 28 5 -3 9 -2 8 3 -3 15 13 73 21 73 7 0 27 38 28 54 0 5 5
12 11 16 6 3 14 17 16 30 2 13 9 27 15 30 6 4 12 16 13 28 0 11 4 19 8 16 4
-2 10 8 15 24 10 37 12 182 2 188 -5 3 -6 10 -3 15 4 5 1 9 -6 9 -19 0 -39 33
-28 47 7 7 6 13 -1 18 -5 3 -10 15 -10 25 0 10 -8 24 -17 29 -12 7 -13 10 -4
11 7 0 -1 13 -18 29 -17 16 -31 33 -31 38 0 4 -11 17 -25 27 -14 10 -25 25
-25 33 0 8 -4 12 -8 9 -5 -3 -15 4 -22 15 -8 10 -18 19 -23 19 -5 0 -15 7 -24
15 -8 8 -19 13 -24 10 -5 -4 -9 -2 -9 3 0 10 -8 12 -61 16 -20 2 -41 6 -47 10
-7 4 -12 5 -12 2 0 -3 -11 -1 -25 4 -14 5 -25 6 -25 1z"/>
<path d="M5839 2043 c-13 -16 -12 -17 4 -4 16 13 21 21 13 21 -2 0 -10 -8 -17
-17z"/>
</g>
</svg>
